if (_typeface_js && _typeface_js.loadFace) _typeface_js.loadFace({"glyphs":{"¦":{"x_min":127,"x_max":233,"ha":276,"o":"m 233 1011 l 233 475 l 127 475 l 127 1011 l 233 1011 m 233 244 l 233 -292 l 127 -292 l 127 244 l 233 244 "},"Ž":{"x_min":8.140625,"x_max":818.609375,"ha":796,"o":"m 568 797 q 676 941 629 876 l 45 941 l 45 1089 l 817 1090 l 818 940 l 565 607 l 545 580 l 395 579 q 568 797 492 699 m 568 797 q 676 941 629 876 l 45 941 l 45 1089 l 817 1090 l 818 940 l 565 607 l 545 580 l 395 581 l 309 470 l 464 474 l 169 87 l 794 87 l 794 -29 l 8 -29 l 8 92 l 308 472 l 395 581 q 568 797 492 699 m 545 580 l 462 472 l 308 472 l 395 581 l 545 580 m 310 472 l 396 580 l 543 580 l 463 472 l 310 472 "},"е":{"x_min":-18.3125,"x_max":634.140625,"ha":641,"o":"m 13 1136 q 204 943 134 1068 l 329 943 l 329 824 l 247 824 q 294 588 290 705 q 118 446 168 535 q 108 826 132 698 l -18 826 l -18 946 l 90 946 q 13 1136 82 1005 m 366 571 q 555 486 477 571 q 634 284 634 402 q 555 81 634 165 q 366 -2 477 -2 q 176 81 254 -2 q 97 284 97 165 q 176 486 97 402 q 366 571 254 571 m 366 423 q 273 384 310 423 q 236 284 236 345 q 270 182 236 219 q 366 145 305 145 q 458 184 420 145 q 496 284 496 222 q 459 386 496 349 q 366 423 422 423 "},"Κ":{"x_min":101.828125,"x_max":1825.1875,"ha":924,"o":"m 1115 290 q 1069 396 1115 358 q 967 430 1029 430 q 872 397 916 430 q 820 290 820 358 q 858 193 820 232 q 967 151 899 151 q 1074 188 1033 151 q 1115 290 1115 225 m 662 290 q 753 494 662 408 q 967 581 844 581 q 1182 494 1091 581 q 1273 290 1273 408 q 1182 86 1273 173 q 967 0 1091 0 q 753 86 844 0 q 662 290 662 173 m 1115 691 q 1087 779 1115 741 q 967 830 1049 830 q 866 793 909 830 q 820 691 820 753 q 967 552 820 552 q 1115 691 1115 552 m 662 691 q 753 895 662 809 q 967 982 844 982 q 1182 895 1091 982 q 1273 691 1273 809 q 1182 487 1273 574 q 967 400 1091 400 q 753 487 844 400 q 662 691 662 574 m 1666 495 q 1639 583 1666 546 q 1519 634 1600 634 q 1418 597 1460 634 q 1372 495 1372 558 q 1519 356 1372 356 q 1666 495 1666 356 m 1213 495 q 1304 699 1213 613 q 1519 786 1395 786 q 1734 699 1643 786 q 1825 495 1825 613 q 1734 291 1825 378 q 1519 204 1643 204 q 1304 291 1395 204 q 1213 495 1213 378 m 554 494 q 527 581 554 545 q 407 633 489 633 q 306 596 349 633 q 260 494 260 556 q 407 355 260 355 q 554 494 554 355 m 101 494 q 193 698 101 611 q 407 785 284 785 q 622 698 531 785 q 713 494 713 611 q 622 290 713 377 q 407 204 531 204 q 193 290 284 204 q 101 494 101 377 m 1257 881 l 1260 990 l 1051 991 l 1054 1151 l 1419 1152 l 1418 786 q 1257 677 1351 785 l 1257 881 "},"e":{"x_min":52.21875,"x_max":954.9375,"ha":1023,"o":"m 491 1220 q 547 1199 524 1220 q 570 1148 570 1178 q 547 1097 570 1118 q 491 1075 524 1075 q 436 1097 459 1075 q 413 1148 413 1118 q 436 1199 413 1178 q 491 1220 459 1220 m 130 1221 q 186 1200 163 1221 q 208 1148 208 1178 q 186 1097 208 1119 q 130 1076 163 1076 q 75 1097 98 1076 q 52 1148 52 1119 q 75 1200 52 1178 q 130 1221 98 1221 m 210 1243 q 426 1016 336 1174 l 573 1016 l 573 899 l 477 899 q 531 604 525 767 q 325 442 385 544 q 332 662 332 568 q 315 902 332 808 l 172 902 l 172 1019 l 293 1019 q 210 1243 280 1110 m 639 599 q 862 505 767 599 q 954 301 954 413 q 868 90 954 178 q 639 0 777 0 q 406 88 492 0 q 324 301 324 172 q 417 505 324 413 q 639 599 512 599 m 639 472 q 520 417 569 472 q 475 301 475 366 q 520 189 475 238 q 639 137 569 137 q 758 189 710 137 q 804 301 804 238 q 758 417 804 366 q 639 472 710 472 "},"»":{"x_min":95,"x_max":676.234375,"ha":699,"o":"m 536 358 l 359 667 l 459 667 l 676 358 l 459 49 l 360 49 l 536 358 m 274 358 l 95 667 l 197 667 l 410 358 l 197 49 l 95 49 l 274 358 "},"Ѓ":{"x_min":106.890625,"x_max":1246.3125,"ha":785,"o":"m 677 478 q 613 505 639 478 q 587 568 587 531 q 613 631 587 605 q 677 657 639 657 q 740 631 714 657 q 766 568 766 605 q 740 505 766 531 q 677 478 714 478 m 677 520 q 712 534 698 520 q 726 567 726 548 q 711 600 726 587 q 677 614 697 614 q 645 600 658 614 q 631 567 631 587 q 645 534 631 548 q 677 520 658 520 m 720 0 l 430 0 l 430 79 l 635 79 l 635 480 l 720 480 l 720 0 m 106 524 l 106 813 l 187 813 l 187 609 l 589 609 l 589 524 l 106 524 m 1246 612 l 1246 322 l 1166 322 l 1166 527 l 764 527 l 764 612 l 1246 612 m 636 1131 l 926 1131 l 926 1051 l 721 1051 l 721 649 l 636 649 l 636 1131 "},"^":{"x_min":36,"x_max":614.515625,"ha":640,"o":"m 161 468 l 36 468 l 275 1011 l 373 1011 l 614 468 l 491 468 l 324 872 l 161 468 "},"«":{"x_min":73.25,"x_max":691.78125,"ha":762,"o":"m 382 777 l 73 602 l 73 701 l 382 917 l 691 701 l 691 600 l 382 777 m 382 515 l 73 336 l 73 439 l 382 651 l 691 439 l 691 336 l 382 515 "},"∙":{"x_min":135.640625,"x_max":386.59375,"ha":475,"o":"m 135 125 q 172 213 135 177 q 260 250 208 250 q 349 213 313 250 q 386 125 386 177 q 349 36 386 73 q 260 0 313 0 q 172 36 208 0 q 135 125 135 73 "},"к":{"x_min":42.046875,"x_max":785.375,"ha":794,"o":"m 342 925 q 407 900 381 925 q 434 838 434 874 q 407 778 434 803 q 342 752 381 752 q 277 778 304 752 q 250 838 250 803 q 277 900 250 874 q 342 925 304 925 m 280 736 l 403 736 l 403 548 l 280 433 q 280 736 284 739 m 691 786 l 776 685 l 295 268 q 186 240 233 240 q 102 265 142 240 q 42 380 42 303 q 175 528 42 528 q 217 524 189 528 q 258 521 244 521 l 258 409 q 199 423 221 423 q 153 391 153 423 q 191 354 153 354 q 266 388 224 354 q 691 786 299 415 m 280 0 q 280 118 280 59 q 279 240 278 240 q 352 290 312 255 q 403 341 377 316 l 402 0 l 280 0 m 425 255 l 425 366 l 461 389 l 785 56 l 702 -23 l 425 255 "},"ˆ":{"x_min":18,"x_max":447.3125,"ha":474,"o":"m 234 925 l 157 810 l 18 810 l 164 1000 l 294 1000 l 447 810 l 308 810 l 234 925 "},"Ι":{"x_min":129.671875,"x_max":381.96875,"ha":305,"o":"m 169 0 l 169 810 l 351 810 l 351 0 l 169 0 m 255 1127 q 345 1091 308 1127 q 381 1003 381 1054 q 345 915 381 951 q 255 878 308 878 q 166 915 203 878 q 129 1003 129 951 q 166 1091 129 1054 q 255 1127 202 1127 m 255 1097 q 190 1070 217 1097 q 164 1007 164 1044 q 190 943 164 969 q 255 916 217 916 q 320 943 293 916 q 347 1007 347 969 q 320 1070 347 1044 q 255 1097 293 1097 "},"’":{"x_min":73,"x_max":215,"ha":258,"o":"m 84 862 l 84 1004 l 215 1004 l 215 892 q 193 761 215 801 q 102 679 164 706 l 73 726 q 147 862 143 755 l 84 862 "},"Ν":{"x_min":78.671875,"x_max":1113.640625,"ha":1223,"o":"m 173 1613 q 274 1532 231 1572 l 271 1530 l 274 1528 l 274 1525 q 232 1352 249 1452 q 198 1112 215 1300 l 198 1088 q 237 815 198 921 q 310 690 249 769 l 359 653 l 386 644 l 430 661 q 522 531 477 579 l 522 529 q 464 482 514 514 q 405 473 450 477 l 396 473 q 259 524 333 473 q 137 705 184 594 q 86 922 116 741 q 78 992 78 950 l 78 1020 q 159 1596 78 1384 q 173 1613 164 1613 m 1015 1610 l 1023 1610 q 1047 1532 1036 1593 q 1087 1371 1072 1470 q 1106 1239 1099 1321 l 1104 1239 l 1106 1237 l 1106 1215 l 1113 1137 l 1113 1007 l 1111 1005 l 1113 1003 l 1113 1000 q 1106 910 1108 985 q 1013 624 1079 737 q 857 482 952 523 q 811 473 826 473 l 779 473 q 704 492 756 473 l 704 490 q 864 199 761 364 q 889 162 869 199 l 923 111 l 923 99 q 845 31 914 86 q 826 9 845 24 l 815 9 q 769 89 797 26 q 747 141 760 98 l 661 299 q 620 363 646 311 q 608 389 608 381 l 720 602 q 745 649 731 615 l 747 651 l 752 651 l 808 644 q 906 717 861 659 q 945 792 921 728 q 984 942 984 891 q 994 1051 994 997 q 935 1469 994 1213 l 918 1525 l 918 1537 q 1015 1610 936 1558 m 600 1073 l 608 1073 q 737 968 686 1073 q 759 846 759 906 q 600 414 759 694 q 466 155 564 356 l 403 6 l 393 -5 l 386 -5 l 303 72 l 301 82 q 383 253 301 92 l 420 319 q 606 690 536 528 l 623 722 l 620 724 l 620 727 q 644 839 630 727 q 594 931 640 931 q 557 900 575 931 q 539 839 539 856 q 581 687 541 794 l 588 680 q 525 543 535 559 q 469 641 485 584 q 444 800 444 722 l 444 822 q 498 1015 444 928 q 600 1073 551 1073 "},"-":{"x_min":71.21875,"x_max":1838.65625,"ha":1909,"o":"m 912 1503 l 982 1503 l 992 1494 l 992 1385 l 1080 1385 l 1090 1376 l 1090 1311 l 1080 1302 l 992 1302 l 992 1188 l 1277 1188 l 1287 1178 l 1287 1110 l 1277 1100 l 996 1100 l 996 864 q 1100 770 996 854 l 1105 765 l 1105 760 q 1075 706 1090 706 l 992 770 l 992 592 q 1105 661 1022 592 l 1115 651 q 1006 533 1052 533 l 1001 529 l 996 529 l 996 371 l 986 361 l 923 361 l 912 371 l 912 533 q 799 627 872 533 l 779 666 l 785 671 l 790 671 q 908 597 872 597 l 908 819 l 775 947 l 775 956 l 814 996 l 908 917 l 908 1100 l 617 1100 l 607 1110 l 607 1178 l 617 1188 l 903 1188 l 903 1302 l 809 1302 l 799 1311 l 799 1376 l 809 1385 l 903 1385 l 903 1494 l 912 1503 m 81 976 l 533 976 q 588 883 547 970 q 726 750 674 782 q 952 130 839 464 l 957 130 q 1208 750 986 228 q 1341 883 1308 799 q 1385 976 1371 976 l 1829 976 l 1838 967 l 1838 917 l 1829 908 l 1435 908 l 1607 411 l 1602 405 l 1597 405 l 1218 597 l 1154 444 q 952 2 965 12 q 853 223 931 2 l 676 647 l 672 647 q 341 464 492 556 q 219 400 338 455 l 214 405 l 214 411 q 494 903 309 594 l 494 912 l 81 912 l 71 923 l 71 967 l 81 976 m 539 853 q 332 518 437 674 l 661 720 q 543 849 596 759 l 543 853 l 539 853 m 1385 853 q 1306 730 1382 810 q 1243 657 1243 710 q 1513 499 1252 642 l 1513 504 q 1385 853 1397 852 "},"ѕ":{"x_min":42.828125,"x_max":510.796875,"ha":671,"o":"m 46 -164 l 80 -54 q 211 21 141 13 q 364 33 327 13 q 409 106 409 58 q 379 159 409 140 q 278 192 360 172 q 160 225 187 215 q 64 296 90 253 q 42 374 42 331 q 109 501 42 453 q 257 542 165 542 q 455 469 400 542 q 486 419 479 435 l 406 385 q 264 461 378 461 q 138 385 138 461 q 188 324 138 344 q 275 299 202 319 q 390 266 373 273 q 487 201 459 241 q 510 117 510 167 q 398 -42 510 5 q 275 -67 344 -67 q 46 -164 133 -54 "},"Q":{"x_min":67.828125,"x_max":366.234375,"ha":646,"o":"m 164 1038 l 273 1038 l 277 1034 l 277 945 l 362 945 l 366 941 l 366 850 l 362 846 l 281 846 l 281 4 l 277 0 l 164 0 l 160 4 l 160 844 l 71 844 l 67 848 l 67 941 l 71 945 l 160 945 l 160 1034 l 164 1038 "},"Ш":{"x_min":0,"x_max":2322.90625,"ha":2345,"o":"m 1797 630 l 1797 1018 l 1051 1018 l 1051 928 l 1146 887 l 1190 871 l 1359 873 l 1359 5 l 1498 5 l 1500 873 l 1670 873 l 1670 630 l 1797 630 m 1185 630 q 1171 562 1182 581 q 1141 523 1157 539 q 1076 542 1096 541 q 1043 516 1040 544 q 1076 491 1045 493 q 1085 491 1080 491 q 1152 514 1136 500 q 1200 624 1185 540 q 1201 639 1201 632 q 1138 752 1205 701 q 988 836 1106 777 q 853 937 917 873 q 780 1073 775 1015 q 832 1030 779 1067 q 1022 936 909 977 q 1241 822 1175 881 q 1340 617 1323 748 q 1342 574 1343 595 q 1214 399 1336 460 q 1067 360 1126 354 q 961 418 1010 364 q 914 529 911 472 q 968 627 917 588 q 1078 663 1020 667 q 1185 630 1157 657 m 1338 499 q 1343 413 1346 460 q 1277 217 1338 302 q 1004 50 1190 97 q 782 -61 823 4 q 786 -29 784 -46 q 818 23 792 -2 q 862 71 840 47 q 1006 170 893 100 q 1181 345 1178 275 q 1181 363 1182 352 q 1230 385 1206 373 q 1283 413 1270 401 q 1338 499 1325 451 m 305 0 l 303 881 l 0 881 l 1 1023 l 789 1023 l 786 881 l 449 881 l 448 0 l 305 0 m 153 543 l 963 543 l 963 421 l 153 421 l 153 543 m 1496 540 l 2305 540 l 2305 418 l 1496 418 l 1496 540 m 2079 1014 q 2251 940 2177 1014 q 2322 780 2322 868 q 2255 613 2322 682 q 2079 541 2185 541 l 1841 541 q 1835 780 1835 678 q 1906 940 1835 868 q 2079 1014 1981 1014 m 2084 908 q 1993 867 2029 908 q 1959 776 1959 828 q 1993 660 1959 726 q 2084 649 2029 649 q 2175 689 2139 649 q 2209 776 2209 726 q 2175 867 2209 828 q 2084 908 2139 908 m 2001 657 l 1998 549 l 2015 549 l 2019 650 l 2001 657 m 1731 -128 q 1848 301 1848 27 q 1842 417 1848 360 q 1995 419 1913 417 q 1912 52 1981 170 q 1731 -128 1839 -73 "},"M":{"x_min":67.828125,"x_max":806.40625,"ha":882,"o":"m 550 1199 l 551 1198 l 552 1198 l 562 1199 q 669 1155 615 1197 q 746 1072 699 1133 q 787 976 765 1041 q 803 883 800 919 l 801 882 l 805 851 l 803 851 l 805 850 l 805 849 l 806 763 l 805 735 l 803 733 l 805 731 l 804 720 q 796 650 798 649 l 797 648 l 797 647 l 790 607 q 805 416 805 490 q 804 393 805 404 l 803 393 l 804 391 l 804 379 l 803 378 l 804 377 l 801 341 l 800 319 q 757 164 781 220 q 672 48 731 102 l 634 23 q 599 9 630 23 q 550 0 567 0 l 526 0 q 417 46 478 2 q 344 149 364 93 q 316 294 314 223 l 318 296 l 318 297 l 316 299 q 352 402 327 362 q 405 455 377 440 q 436 465 428 465 q 495 446 476 459 q 547 375 543 398 q 569 288 569 324 l 568 281 l 569 276 l 568 274 l 569 267 q 542 158 567 223 q 505 106 526 124 l 503 106 q 458 147 476 123 q 448 158 455 147 l 448 160 q 476 212 461 169 l 485 261 l 485 300 q 472 349 478 337 q 448 375 472 356 q 413 347 419 376 l 408 339 l 410 337 l 410 336 q 400 297 402 317 q 443 134 396 198 q 514 87 480 96 l 548 80 l 552 80 q 654 145 609 78 l 677 189 q 712 343 710 278 l 713 381 l 715 402 l 714 446 l 715 448 l 715 449 q 697 598 710 550 l 693 607 q 714 748 712 691 l 713 749 l 713 750 l 716 765 l 715 767 l 715 772 l 717 784 q 697 936 713 875 l 673 1013 q 587 1107 647 1073 l 585 1106 l 584 1106 l 564 1112 l 560 1111 l 558 1112 l 556 1112 l 520 1102 q 489 1148 509 1128 l 465 1169 l 463 1171 l 463 1172 q 502 1193 464 1182 q 550 1199 508 1197 m 333 1201 l 333 1199 l 335 1201 l 337 1201 l 339 1199 l 341 1201 l 342 1201 l 343 1199 l 345 1201 l 346 1201 q 422 1178 422 1187 q 497 1108 456 1167 q 543 1025 522 1083 q 561 941 556 980 l 559 941 l 560 939 l 560 916 l 561 910 l 560 906 l 561 900 l 558 885 l 559 883 q 520 779 557 836 q 442 733 484 731 l 440 733 q 364 776 400 734 q 318 883 333 806 q 314 933 313 912 q 347 1059 316 1005 q 368 1090 347 1070 l 371 1090 q 429 1041 398 1079 l 429 1039 l 427 1038 l 429 1036 l 428 1033 q 412 1008 416 1025 q 395 948 401 990 l 396 944 l 395 935 l 394 926 q 406 852 394 893 q 438 819 416 830 l 441 819 q 478 903 469 818 l 479 912 q 446 1040 481 978 q 370 1109 420 1085 q 329 1116 356 1115 l 324 1116 l 314 1115 l 314 1117 q 281 1103 294 1112 q 227 1060 265 1101 q 185 978 205 1032 q 154 829 157 905 l 155 815 l 153 809 l 156 747 l 154 747 q 161 693 158 733 l 178 600 q 153 440 158 551 l 153 425 l 154 417 l 153 410 l 154 404 l 153 402 l 152 401 q 181 227 158 309 q 231 130 197 185 q 335 80 275 82 q 360 88 351 82 q 377 61 368 82 l 412 24 l 412 21 q 329 0 403 3 q 243 24 269 8 l 194 61 q 143 122 156 94 q 87 265 114 162 q 71 398 70 363 l 73 398 l 71 400 l 72 415 l 71 431 l 73 450 l 73 453 q 83 554 78 554 l 82 555 l 82 556 l 87 590 q 68 786 71 678 l 67 815 q 120 1048 72 958 q 191 1145 140 1091 q 290 1195 246 1192 l 333 1201 "},"ј":{"x_min":-64.109375,"x_max":566.640625,"ha":254,"o":"m 302 955 l 323 955 q 463 896 381 955 q 566 667 566 813 q 435 412 566 507 q 319 378 374 378 l 291 378 q 230 399 230 391 l 220 408 l 220 416 q 186 608 213 484 l 184 632 l 188 632 q 226 547 212 551 q 306 515 263 515 q 408 592 366 515 q 422 661 422 634 l 422 668 q 334 798 422 762 l 298 803 q 197 727 235 803 q 180 625 180 682 q 205 418 180 574 q 216 281 216 322 l 216 188 l 363 188 l 367 184 l 367 97 l 363 93 l 201 93 q 161 -40 201 62 q 146 -73 157 -44 q 44 -206 100 -152 l 38 -210 l 32 -210 q 28 -204 28 -210 q 82 -71 64 -136 q 101 74 101 25 l 101 93 l -60 93 l -64 97 l -64 186 l -60 190 l 97 190 l 97 205 q 78 357 91 299 q 36 594 36 567 l 34 623 l 34 667 q 63 801 42 748 q 118 881 86 845 q 239 948 163 925 l 302 955 "},"Ψ":{"x_min":86,"x_max":1074,"ha":1086,"o":"m 86 994 l 218 994 l 218 726 q 289 499 218 570 q 514 420 356 432 l 514 994 l 646 994 l 646 420 q 872 506 803 429 q 942 742 942 584 l 942 994 l 1074 994 l 1074 713 q 646 307 1074 313 l 646 0 l 514 0 l 514 307 q 86 701 86 314 l 86 994 "},"{":{"x_min":65.78125,"x_max":1273.03125,"ha":1356,"o":"m 190 960 l 196 960 q 659 591 447 754 l 659 585 q 524 496 656 578 l 518 496 q 423 567 507 496 q 339 634 375 598 l 339 531 l 456 531 l 461 526 l 461 434 l 456 428 l 337 428 l 337 333 q 467 428 358 358 q 662 567 548 493 q 763 637 752 637 q 863 686 800 666 q 971 702 940 702 l 982 702 q 1118 678 1080 694 q 1159 656 1118 673 q 1254 539 1241 594 q 1273 472 1273 503 l 1273 458 q 993 214 1273 276 l 947 208 l 914 208 q 879 217 904 217 q 825 230 859 227 q 700 309 729 268 q 673 355 673 341 l 673 358 q 825 472 785 436 q 830 458 830 472 q 898 404 830 437 l 936 398 l 974 398 q 1080 455 1056 398 l 1080 458 q 966 529 1080 507 q 689 382 866 529 l 228 46 q 158 0 169 0 l 65 132 q 144 195 78 147 q 328 325 276 297 l 328 328 l 242 328 l 236 333 l 236 431 l 122 431 l 117 436 l 117 526 l 122 531 l 236 531 l 236 637 l 242 642 l 326 642 l 73 843 l 190 960 "},"¼":{"x_min":72,"x_max":1138,"ha":1147,"o":"m 170 -39 l 917 1011 l 1023 1011 l 277 -39 l 170 -39 m 224 497 l 224 872 q 72 796 154 817 l 72 879 q 248 1006 177 913 l 322 1006 l 322 497 l 224 497 m 969 -21 l 969 83 l 710 83 l 710 166 l 983 488 l 1067 488 l 1067 156 l 1138 156 l 1138 83 l 1067 83 l 1067 -21 l 969 -21 m 969 156 l 969 335 l 813 156 l 969 156 "},"#":{"x_min":0,"x_max":1289.984375,"ha":1289,"o":"m 1289 475 l 0 475 l 0 581 l 1289 581 l 1289 475 "},"ι":{"x_min":93,"x_max":216,"ha":280,"o":"m 93 0 l 93 720 l 216 720 l 216 0 l 93 0 "},"Џ":{"x_min":108,"x_max":890,"ha":933,"o":"m 557 0 l 557 -276 l 440 -276 l 440 0 l 108 0 l 108 994 l 240 994 l 240 117 l 758 117 l 758 994 l 890 994 l 890 0 l 557 0 "},")":{"x_min":78.671875,"x_max":406.9375,"ha":452,"o":"m 166 -301 l 78 -301 q 281 480 281 88 q 187 1018 281 761 q 78 1262 160 1093 l 166 1262 q 406 480 406 876 q 166 -301 406 65 "},"ε":{"x_min":66,"x_max":587.546875,"ha":591,"o":"m 561 639 l 474 568 q 318 632 391 632 q 238 606 269 632 q 204 531 204 579 q 257 444 204 473 q 363 421 300 421 q 397 421 373 421 l 397 319 q 365 319 375 319 q 193 198 193 319 q 233 116 193 148 q 321 85 270 85 q 500 172 416 85 l 587 99 q 317 -16 479 -16 q 141 36 211 -16 q 66 198 66 94 q 185 372 66 321 q 86 528 86 429 q 157 684 86 627 q 325 737 223 737 q 561 639 465 737 "},"э":{"x_min":13.5625,"x_max":507.984375,"ha":543,"o":"m 453 394 l 453 502 l 185 502 l 185 394 l 453 394 m 23 -55 l 26 -55 q 146 -16 49 -55 q 379 132 289 40 q 507 445 506 262 l 507 449 q 381 798 507 655 q 142 965 290 902 q 16 1010 35 1010 q 13 1009 13 1010 q 359 491 359 744 q 356 442 359 467 q 293 196 335 284 q 186 61 257 120 q 23 -55 183 59 "},"ш":{"x_min":54.265625,"x_max":633.453125,"ha":686,"o":"m 633 211 l 404 211 l 404 0 l 297 0 l 297 211 l 54 211 l 54 737 l 168 737 l 168 320 l 295 320 l 295 520 l 404 520 l 404 320 l 520 320 l 520 736 l 633 736 l 633 211 "},"Я":{"x_min":6.765625,"x_max":875.578125,"ha":870,"o":"m 394 342 l 394 6 l 471 6 l 471 342 l 394 342 m 266 135 l 599 135 l 599 213 l 266 213 l 266 135 m 746 -3 q 809 40 750 -3 q 875 89 870 86 q 682 333 828 145 q 382 730 476 595 q 354 804 354 771 q 375 869 354 831 q 431 900 400 900 q 487 872 459 900 q 507 779 514 844 q 457 659 505 754 l 530 548 q 590 676 558 595 q 626 837 626 766 q 574 956 626 921 q 416 1017 486 1017 q 293 959 347 1017 q 219 787 219 881 q 273 638 219 711 q 746 -3 484 353 m 414 407 l 328 522 q 170 301 330 520 q 6 77 88 189 q 128 -2 5 77 q 414 407 221 131 "},"⋲":{"x_min":35,"x_max":728.8125,"ha":773,"o":"m 35 502 l 35 640 q 223 721 106 721 q 436 661 300 721 q 553 630 510 630 q 728 723 644 630 l 728 579 q 540 502 646 502 q 346 557 467 502 q 212 593 265 593 q 35 502 130 593 m 35 255 l 35 393 q 223 475 106 475 q 436 415 298 475 q 553 383 511 383 q 728 477 644 383 l 728 332 q 540 255 646 255 q 346 310 469 255 q 212 347 265 347 q 35 255 130 347 "},"¸":{"x_min":67.140625,"x_max":609.71875,"ha":678,"o":"m 406 1114 l 67 1115 l 67 1220 l 474 1220 q 578 1152 542 1196 q 609 1058 609 1092 l 609 1055 q 567 977 609 1016 q 442 913 511 918 q 67 912 338 913 l 67 1017 l 406 1017 q 497 1054 474 1017 q 474 1109 497 1081 q 406 1114 450 1119 "},"a":{"x_min":0,"x_max":866.09375,"ha":865,"o":"m 219 423 l 219 423 l 219 423 l 222 911 l 0 911 l 0 1045 l 386 1045 l 386 603 q 219 407 247 501 l 219 423 m 542 615 q 771 518 673 615 q 866 309 866 425 q 777 93 866 183 q 542 0 683 0 q 303 91 391 0 q 219 309 219 177 q 314 518 219 425 q 542 615 412 615 m 542 485 q 420 429 470 485 q 374 309 374 377 q 420 194 374 244 q 542 141 470 141 q 665 194 615 141 q 711 309 711 244 q 665 429 711 377 q 542 485 615 485 m 0 1106 l 0 1220 l 408 1220 l 408 1106 l 0 1106 "},"=":{"x_min":55.609375,"x_max":1380.859375,"ha":1422,"o":"m 1371 0 l 55 0 l 55 32 l 1371 32 l 1371 0 m 1380 1150 l 65 1150 l 65 1183 l 1380 1183 l 1380 1150 m 1376 584 l 60 584 l 60 617 l 1376 617 l 1376 584 "},"Ћ":{"x_min":33,"x_max":1123,"ha":1145,"o":"m 33 994 l 828 994 l 828 877 l 497 877 l 497 571 q 793 635 682 635 q 969 597 891 635 q 1092 471 1058 554 q 1123 261 1123 395 l 1123 0 l 991 0 l 991 257 q 978 388 991 342 q 906 493 959 459 q 785 524 857 524 q 497 461 676 524 l 497 0 l 365 0 l 365 877 l 33 877 l 33 994 "},"ρ":{"x_min":89,"x_max":741,"ha":777,"o":"m 89 -276 l 89 335 q 404 737 89 737 q 654 626 562 737 q 741 361 741 523 q 662 99 741 203 q 423 -16 575 -16 q 212 68 289 -16 l 212 -276 l 89 -276 m 408 636 q 212 351 212 636 q 252 169 212 237 q 408 85 302 85 q 570 170 515 85 q 616 354 616 241 q 571 545 616 471 q 408 636 518 636 "},"˚":{"x_min":110,"x_max":354,"ha":393,"o":"m 110 907 q 145 993 110 957 q 232 1029 181 1029 q 318 992 282 1029 q 354 905 354 956 q 318 817 354 853 q 232 781 283 781 q 144 817 179 781 q 110 907 110 854 m 162 906 q 182 854 162 876 q 233 832 203 832 q 284 853 263 832 q 305 905 305 875 q 284 957 305 935 q 233 979 263 979 q 182 957 203 979 q 162 906 162 936 "},"д":{"x_min":70.53125,"x_max":891.1875,"ha":950,"o":"m 415 994 l 421 994 q 500 950 454 994 q 529 876 529 912 q 511 814 529 860 q 423 765 472 765 l 413 765 q 347 786 383 765 q 305 859 305 829 q 301 870 302 859 l 301 878 q 323 946 307 928 q 370 983 342 973 q 415 994 402 994 m 814 805 q 891 725 891 732 l 817 652 l 864 603 l 815 553 l 765 602 q 467 322 600 440 q 377 263 415 272 q 307 238 330 242 q 246 231 299 231 l 242 231 q 136 261 186 231 q 95 305 100 292 q 70 367 78 326 l 70 386 q 86 455 70 426 q 147 513 100 484 q 220 533 196 533 q 275 524 248 533 q 287 516 284 524 l 287 406 l 284 403 q 245 421 284 411 q 197 403 197 413 q 189 394 193 403 l 189 380 q 228 354 195 354 l 233 354 q 361 400 263 356 q 529 541 384 404 l 682 680 l 637 725 l 637 727 l 687 777 l 691 777 l 737 731 l 814 805 m 311 741 l 375 741 l 378 737 l 378 430 q 309 394 376 426 l 307 396 l 307 737 l 311 741 m 395 741 l 509 741 l 512 737 l 512 544 q 394 438 497 524 l 392 438 l 392 737 l 395 741 m 558 386 l 891 53 l 812 -24 l 533 255 l 533 361 l 558 386 m 509 330 l 509 0 l 506 -2 l 314 -2 l 311 0 l 311 223 q 361 236 315 229 q 451 282 430 259 q 506 330 495 316 l 509 330 "},"Z":{"x_min":63.078125,"x_max":1057.34375,"ha":1138,"o":"m 220 1005 l 227 1001 l 238 1003 l 280 1001 l 311 1001 l 320 998 l 328 1001 l 337 1001 l 350 998 l 359 1001 l 368 998 l 379 1001 l 390 998 l 408 1001 l 410 998 l 412 1001 l 439 1001 l 441 998 l 443 1001 l 461 1001 l 463 998 l 465 1001 l 480 1001 l 483 998 l 485 1001 l 817 1001 l 841 1003 l 843 1001 l 845 1001 l 865 1003 l 889 1003 q 896 992 895 1003 l 894 978 l 896 959 l 894 932 l 896 906 l 894 903 l 896 892 l 896 870 q 878 859 889 859 q 786 779 878 855 l 695 697 l 691 687 q 754 600 739 644 q 775 518 770 569 l 773 510 l 775 507 l 775 505 q 710 351 775 422 q 638 293 689 330 q 596 258 633 293 q 478 170 591 258 q 461 154 472 170 l 461 152 l 470 152 l 480 149 l 494 152 l 505 152 l 514 149 l 520 152 l 522 149 l 525 149 l 527 152 l 529 152 l 554 149 l 569 152 l 571 149 l 573 149 l 576 152 l 587 149 l 642 149 l 651 152 l 662 149 l 677 152 l 684 149 l 686 152 l 689 152 l 691 149 l 693 149 l 699 152 l 701 149 l 704 149 l 710 152 l 713 149 l 724 152 l 744 152 l 746 149 l 748 152 l 830 152 l 838 149 l 847 152 l 894 152 l 901 147 l 898 137 l 898 112 l 896 26 q 887 15 892 16 l 881 15 l 878 17 l 876 15 l 868 15 l 865 17 l 863 15 l 810 15 l 808 17 l 805 15 l 801 15 l 792 17 l 777 15 l 564 15 l 556 12 l 554 15 l 534 12 l 220 10 l 220 33 l 222 35 l 220 37 l 222 48 l 222 94 l 225 119 l 222 121 l 222 123 l 225 137 l 225 152 q 280 191 241 152 q 436 320 335 229 l 436 322 q 359 430 370 377 q 341 501 351 430 l 341 505 l 343 521 l 341 527 q 397 653 349 594 q 478 715 425 685 q 662 859 585 793 l 662 861 l 651 864 l 587 861 l 569 861 l 549 859 l 534 861 l 529 861 l 529 859 l 520 861 l 472 859 l 472 861 l 465 859 l 463 861 l 452 859 l 427 859 l 397 861 l 368 859 l 362 859 l 359 861 l 357 859 l 343 859 l 341 861 l 339 859 l 231 859 l 216 855 l 211 866 l 213 912 l 213 923 l 216 925 l 213 927 l 213 976 q 220 1005 213 1005 m 540 752 l 540 754 l 520 744 l 524 744 l 556 746 q 657 719 607 746 l 677 710 l 677 717 q 604 750 647 739 l 556 756 l 540 752 m 487 520 l 489 518 l 489 516 l 487 514 l 487 512 q 558 456 508 456 l 562 456 q 619 498 590 456 l 626 531 q 567 598 626 582 l 560 598 q 487 520 495 598 m 440 326 q 544 290 470 290 q 604 301 569 290 l 604 306 l 602 306 l 582 301 l 579 303 l 553 299 q 447 333 497 299 l 440 326 m 63 167 l 67 174 l 65 185 l 67 227 l 67 258 l 69 267 l 67 276 l 67 284 l 69 297 l 67 306 l 69 315 l 67 326 l 69 337 l 67 355 l 69 357 l 67 359 l 67 386 l 69 388 l 67 390 l 67 408 l 69 410 l 67 413 l 67 427 l 69 430 l 67 432 l 67 764 l 65 788 l 67 790 l 67 792 l 65 812 l 65 836 q 75 843 65 842 l 89 841 l 109 843 l 135 841 l 162 843 l 164 841 l 175 843 l 198 843 q 208 826 208 836 q 288 733 212 826 l 370 642 l 381 638 q 467 701 423 686 q 549 722 499 717 l 558 720 l 560 722 l 562 722 q 716 657 645 722 q 774 585 737 636 q 809 543 774 580 q 897 425 809 538 q 913 408 897 419 l 915 408 l 915 417 l 918 427 l 915 441 l 915 452 l 918 461 l 915 467 l 918 470 l 918 472 l 915 474 l 915 476 l 918 501 l 915 516 l 918 518 l 918 520 l 915 523 l 918 534 l 918 589 l 915 598 l 918 609 l 915 624 l 918 631 l 915 633 l 915 636 l 918 638 l 918 640 l 915 647 l 918 649 l 918 651 l 915 657 l 918 660 l 915 671 l 915 691 l 918 693 l 915 695 l 915 777 l 918 786 l 915 794 l 915 841 l 920 848 l 931 845 l 955 845 l 1041 843 q 1052 834 1051 839 l 1052 828 l 1050 826 l 1052 824 l 1052 815 l 1050 812 l 1052 810 l 1052 757 l 1050 755 l 1052 752 l 1052 748 l 1050 739 l 1052 724 l 1052 512 l 1055 503 l 1052 501 l 1055 481 l 1057 167 l 1034 167 l 1032 169 l 1030 167 l 1020 169 l 973 169 l 948 172 l 946 169 l 944 169 l 931 172 l 915 172 q 876 227 915 188 q 748 383 838 282 l 746 383 q 637 306 690 318 q 567 288 637 298 l 562 288 l 546 290 l 540 288 q 414 344 473 296 q 352 425 383 373 q 208 609 274 532 l 206 609 l 204 598 l 206 534 l 206 516 l 208 496 l 206 481 l 206 476 l 208 476 l 206 467 l 208 419 l 206 419 l 208 413 l 206 410 l 208 399 l 208 375 l 206 344 l 208 315 l 208 309 l 206 306 l 208 304 l 208 290 l 206 288 l 208 286 l 208 178 l 212 163 l 202 158 l 155 160 l 144 160 l 142 163 l 140 160 l 91 160 q 63 167 63 160 m 330 510 l 328 510 l 339 489 l 339 494 l 337 525 q 363 626 337 577 l 372 647 l 365 647 q 333 573 343 616 l 326 525 l 330 510 m 562 457 l 564 459 l 567 459 l 569 457 l 571 457 q 626 527 626 478 l 626 531 q 584 589 626 560 l 551 596 q 484 536 500 596 l 484 529 q 562 457 484 465 m 756 410 q 792 514 792 440 q 781 573 792 538 l 776 573 l 776 571 l 781 552 l 779 549 l 783 522 q 750 417 783 467 l 756 410 "},"u":{"x_min":67.828125,"x_max":746.71875,"ha":882,"o":"m 287 1075 l 288 1075 l 345 1023 l 345 1019 l 278 948 l 276 940 q 321 895 286 934 q 434 754 404 809 q 471 687 453 734 q 495 575 488 655 l 495 564 q 457 439 484 486 q 417 381 441 407 q 336 333 372 340 q 301 326 336 330 q 206 381 235 326 q 196 424 200 395 l 197 432 l 197 453 q 233 535 202 497 q 332 608 298 602 q 364 623 342 615 l 371 623 q 382 564 382 623 l 382 556 l 383 545 l 332 516 q 280 442 280 486 q 301 415 283 415 l 303 413 q 343 432 333 420 q 397 568 397 491 q 379 660 397 610 q 299 790 376 694 q 212 875 251 845 l 206 875 q 145 809 206 872 q 85 857 96 857 l 85 859 l 151 930 q 118 961 150 936 l 67 1001 l 67 1007 q 122 1070 92 1041 l 126 1070 q 209 998 130 1062 l 212 998 q 287 1075 276 1067 m 508 621 q 609 562 540 617 q 681 403 681 469 q 686 334 686 403 l 686 326 q 655 182 677 233 q 597 46 639 128 q 570 0 573 1 l 566 0 l 497 40 q 489 46 492 40 l 489 51 q 548 157 502 66 q 592 347 592 259 l 592 352 q 571 442 585 400 q 518 512 559 476 l 500 524 l 507 558 l 505 560 l 507 571 l 507 584 l 502 618 l 508 621 m 446 183 l 487 271 l 746 151 l 705 62 l 446 183 "},"k":{"x_min":63.75,"x_max":585.984375,"ha":676,"o":"m 144 914 q 215 868 187 914 q 223 835 223 851 q 175 763 223 791 q 142 754 155 754 q 67 809 91 754 l 63 831 l 63 838 q 126 912 63 893 l 144 914 m 92 719 l 181 719 l 184 716 l 184 5 l 181 2 l 92 2 l 89 5 l 89 716 l 92 719 m 199 719 l 288 719 l 293 716 l 293 104 l 581 104 l 585 101 l 585 5 l 581 2 l 199 2 l 195 5 l 195 716 l 199 719 "},"З":{"x_min":49,"x_max":657.375,"ha":676,"o":"m 98 1015 l 657 1015 l 657 871 q 540 706 599 788 q 382 528 455 588 q 183 447 281 444 q 81 501 120 448 q 49 581 54 538 q 63 670 49 633 q 183 762 94 759 q 247 742 216 762 l 247 619 q 233 630 240 624 q 193 634 221 636 q 168 603 164 631 q 207 579 172 579 q 392 730 261 578 q 500 869 446 799 l 98 869 l 98 1015 m 264 802 l 390 802 l 390 747 l 264 621 l 264 802 m 390 324 l 264 324 l 264 436 l 390 507 l 390 324 m 328 304 q 380 282 358 304 q 402 231 402 261 q 380 179 402 200 q 328 158 358 158 q 276 179 297 158 q 255 231 255 200 q 276 282 255 261 q 328 304 297 304 m 402 512 l 490 617 q 628 360 614 499 q 530 138 634 292 q 418 -12 520 121 q 344 -186 372 -73 q 316 -283 319 -283 q 291 -253 302 -283 q 278 -152 276 -216 q 333 81 282 0 q 412 205 403 191 q 465 372 467 306 q 441 472 462 440 q 402 512 433 486 "},"Α":{"x_min":-2.171875,"x_max":976.5,"ha":918,"o":"m 513 1221 q 590 1179 549 1221 q 608 1130 608 1145 l 608 1102 q 557 1026 598 1053 q 498 1013 528 1013 q 402 1086 433 1013 l 398 1108 q 488 1221 398 1198 l 513 1221 m 499 977 q 667 939 569 975 q 905 731 829 872 q 963 588 963 634 q 976 493 972 556 q 921 283 976 417 q 808 132 888 210 q 649 37 713 53 q 556 6 634 27 q 519 0 536 0 l 492 0 q 90 196 235 0 q -2 491 -2 328 q 94 775 -2 629 q 180 870 126 818 q 499 977 315 977 m 440 948 l 440 888 q 366 868 440 880 q 157 707 224 817 q 90 486 90 604 q 174 243 90 356 q 280 148 238 169 q 404 101 328 119 q 437 95 404 98 l 440 92 l 440 42 l 545 42 l 545 97 q 563 104 545 103 l 563 101 q 687 150 618 115 q 881 501 881 282 q 756 786 881 659 q 627 864 691 841 l 545 884 l 545 948 l 440 948 m 452 935 l 532 935 l 537 930 l 537 57 l 532 53 l 452 53 l 448 57 l 448 930 l 452 935 "},"¢":{"x_min":72,"x_max":700.71875,"ha":721,"o":"m 503 606 l 353 86 q 395 81 376 81 q 522 135 472 81 q 579 263 568 184 l 700 250 q 599 56 679 130 q 396 -19 516 -19 q 327 -9 363 -19 l 246 -277 l 171 -255 l 249 14 q 111 157 157 57 q 72 356 72 244 q 230 693 72 606 q 391 737 309 737 q 459 732 415 737 l 535 994 l 610 972 l 535 709 q 687 508 659 655 l 569 490 q 503 606 551 566 m 431 637 q 397 639 409 639 q 221 513 268 639 q 197 362 197 448 q 280 120 197 182 l 431 637 "},"B":{"x_min":59,"x_max":1222.828125,"ha":1289,"o":"m 512 288 q 467 394 512 356 q 364 427 426 427 q 269 395 313 427 q 217 288 217 356 q 255 191 217 230 q 364 149 296 149 q 471 186 430 149 q 512 288 512 223 m 59 288 q 150 492 59 406 q 364 579 241 579 q 579 492 489 579 q 670 288 670 406 q 579 84 670 171 q 364 -2 489 -2 q 150 84 241 -2 q 59 288 59 171 m 512 689 q 484 777 512 739 q 364 828 446 828 q 263 791 306 828 q 217 689 217 751 q 364 550 217 550 q 512 689 512 550 m 59 689 q 150 893 59 807 q 364 980 241 980 q 579 893 489 980 q 670 689 670 807 q 579 485 670 572 q 364 398 489 398 q 150 485 241 398 q 59 689 59 572 m 1063 493 q 1036 581 1063 543 q 916 632 997 632 q 815 595 857 632 q 769 493 769 556 q 916 354 769 354 q 1063 493 1063 354 m 610 493 q 701 697 610 611 q 916 784 792 784 q 1131 697 1040 784 q 1222 493 1222 611 q 1131 289 1222 376 q 916 202 1040 202 q 701 289 792 202 q 610 493 610 376 "},"…":{"x_min":162,"x_max":1227,"ha":1270,"o":"m 162 0 l 162 139 l 301 139 l 301 0 l 162 0 m 625 0 l 625 139 l 764 139 l 764 0 l 625 0 m 1087 0 l 1087 139 l 1227 139 l 1227 0 l 1087 0 "},"В":{"x_min":9.5,"x_max":636.84375,"ha":638,"o":"m 632 927 l 632 9 q 522 5 575 5 q 19 301 32 5 q 140 525 14 427 q 382 627 249 610 l 476 639 l 476 795 q 415 798 444 798 q 146 647 155 798 q 160 596 144 618 q 184 577 172 577 q 189 578 187 577 l 70 486 q 9 644 11 552 l 9 651 q 126 844 9 764 q 402 925 242 922 q 632 927 398 930 m 476 134 l 476 311 q 436 309 456 309 q 200 383 320 309 q 198 387 198 384 q 236 433 198 401 q 301 471 273 464 q 421 446 347 446 q 476 450 447 446 l 476 499 q 158 317 158 507 q 271 158 158 199 q 476 134 338 133 m 549 1125 q 611 1099 585 1125 q 636 1039 636 1074 q 611 978 636 1003 q 549 952 585 952 q 487 978 513 952 q 461 1039 461 1003 q 487 1099 461 1074 q 549 1125 513 1125 "},"І":{"x_min":72.5625,"x_max":452.375,"ha":524,"o":"m 208 630 l 220 990 q 254 1163 223 1087 q 367 1251 290 1251 q 425 1230 398 1251 q 452 1178 452 1209 q 435 1128 452 1149 q 389 1108 418 1108 q 338 1132 366 1108 q 311 1146 322 1146 q 284 1102 284 1146 q 290 1004 284 1072 q 315 553 315 724 q 304 154 315 523 q 243 -115 298 -46 q 152 -161 207 -161 q 94 -138 116 -161 q 72 -79 72 -115 q 133 -12 72 -12 q 180 -33 158 -12 q 213 -55 202 -55 q 240 -14 240 -55 q 233 67 240 14 q 206 512 206 297 q 208 630 206 571 "},"H":{"x_min":0,"x_max":678.21875,"ha":678,"o":"m 0 0 l 0 1015 l 135 1015 l 135 600 l 542 600 l 542 1015 l 678 1015 l 678 0 l 542 0 l 542 486 l 135 486 l 135 0 l 0 0 "},"ν":{"x_min":17.828125,"x_max":839.828125,"ha":695,"o":"m 18 200 l 839 200 l 839 -134 l 658 -135 l 658 32 l 198 32 l 196 -135 l 17 -135 l 18 200 "},"β":{"x_min":95,"x_max":736,"ha":766,"o":"m 216 91 l 216 -276 l 95 -276 l 95 682 q 120 848 95 787 q 231 968 151 922 q 399 1011 307 1011 q 593 945 514 1011 q 676 761 676 875 q 624 619 676 678 q 489 546 572 560 q 669 464 603 535 q 736 281 736 394 q 653 67 736 151 q 441 -16 571 -16 q 216 91 294 -16 m 324 586 q 563 754 563 586 q 512 868 563 823 q 393 910 463 910 q 292 882 339 910 q 226 803 239 851 q 216 660 216 762 l 216 388 q 226 240 216 284 q 302 118 243 166 q 425 74 355 74 q 561 132 510 74 q 609 275 609 189 q 576 395 609 339 q 483 477 541 455 q 341 497 430 497 l 324 497 l 324 586 "},"−":{"x_min":77,"x_max":733.53125,"ha":778,"o":"m 733 433 l 77 433 l 77 547 l 733 547 l 733 433 "},"≠":{"x_min":53,"x_max":709.515625,"ha":719,"o":"m 335 283 l 204 -19 l 112 -19 l 244 283 l 53 283 l 53 397 l 294 397 l 377 585 l 53 585 l 53 699 l 426 699 l 559 1000 l 650 1000 l 518 699 l 709 699 l 709 585 l 467 585 l 386 397 l 709 397 l 709 283 l 335 283 "},"¥":{"x_min":-1,"x_max":769.453125,"ha":769,"o":"m 324 0 l 324 220 l 43 220 l 43 314 l 324 314 l 324 412 l 43 412 l 43 513 l 274 513 l -1 994 l 134 994 l 331 644 q 383 539 364 586 q 438 650 400 578 l 624 994 l 769 994 l 494 513 l 726 513 l 726 412 l 447 412 l 447 314 l 726 314 l 726 220 l 447 220 l 447 0 l 324 0 "},"U":{"x_min":44.078125,"x_max":949.515625,"ha":950,"o":"m 78 1037 l 221 1020 q 198 836 198 906 q 202 783 198 807 q 236 672 210 725 q 311 596 269 607 l 172 537 q 50 758 73 611 q 44 851 44 805 q 78 1037 44 942 m 470 662 q 559 603 479 619 q 588 659 573 631 q 607 744 607 701 q 454 931 607 931 q 347 870 398 931 q 295 733 294 807 q 324 627 297 669 q 362 583 343 605 q 186 520 245 555 q 50 324 66 451 q 44 225 44 273 q 92 -17 44 84 l 259 14 q 209 227 209 126 q 211 272 209 249 q 253 408 221 368 q 372 461 288 451 q 386 461 379 461 q 506 301 490 461 q 495 253 509 276 q 472 233 482 235 q 430 252 445 229 q 417 299 416 271 q 434 360 418 337 q 457 389 446 375 q 424 432 450 406 q 369 446 422 433 q 323 403 346 425 q 295 288 290 360 q 366 156 301 200 q 472 124 413 124 q 570 162 529 124 q 618 304 623 210 q 585 421 615 374 q 542 473 563 447 q 569 472 556 472 q 849 803 819 472 q 850 835 850 817 q 830 988 850 905 q 804 1064 813 1064 l 665 1034 q 698 813 699 895 q 671 666 695 725 q 557 587 634 581 q 417 758 417 598 q 434 803 417 794 q 454 807 444 805 q 476 800 465 804 q 491 760 490 791 q 484 702 492 729 q 470 662 476 682 m 623 451 q 700 470 670 463 q 763 514 722 479 q 874 272 874 417 q 828 -1 874 128 l 678 30 q 722 242 722 162 q 721 265 722 254 q 668 422 714 371 q 623 451 649 443 m 852 918 l 949 918 l 949 813 l 852 813 l 852 918 m 610 814 l 707 814 l 707 919 l 610 919 l 610 814 "},"F":{"x_min":74.609375,"x_max":1135.34375,"ha":1204,"o":"m 599 210 q 278 330 422 210 q 83 652 129 455 l 74 690 l 103 642 q 318 443 178 520 q 604 366 457 366 q 908 458 766 366 q 1117 693 1046 548 l 1135 732 l 1133 718 q 948 351 1108 497 q 599 210 793 210 "},"Χ":{"x_min":6.25,"x_max":750.9375,"ha":926,"o":"m 103 913 q 277 846 179 913 q 366 729 359 762 q 429 581 429 606 q 498 636 438 581 l 670 781 l 672 783 l 674 783 q 750 685 750 699 q 691 640 734 677 q 657 609 687 640 l 455 436 q 503 217 478 261 q 583 93 518 175 q 707 25 634 40 q 744 17 744 23 l 744 12 q 687 0 744 4 l 670 0 q 455 130 567 15 q 375 253 394 205 q 342 338 353 320 l 219 227 l 88 121 l 80 121 l 8 206 l 8 210 l 301 464 q 316 486 316 475 l 316 488 q 290 657 316 541 q 171 853 245 800 q 84 887 108 887 l 58 887 l 15 881 l 6 893 q 103 913 17 913 "},"*":{"x_min":9.5,"x_max":260.4375,"ha":281,"o":"m 9 476 q 46 564 9 527 q 134 600 82 600 q 223 564 187 600 q 260 476 260 528 q 223 387 260 423 q 134 350 187 350 q 46 387 82 350 q 9 476 9 423 "},"†":{"x_min":49,"x_max":716,"ha":711,"o":"m 320 -235 l 320 587 l 49 587 l 49 696 l 320 696 l 320 971 l 443 971 l 443 696 l 716 696 l 716 587 l 443 587 l 443 -235 l 320 -235 "},"Ќ":{"x_min":109.1875,"x_max":749.4375,"ha":823,"o":"m 109 640 l 749 640 l 749 0 l 109 0 l 109 640 m 160 588 l 160 51 l 697 51 l 697 588 l 160 588 "},"°":{"x_min":87,"x_max":463,"ha":501,"o":"m 87 823 q 141 956 87 901 q 274 1011 196 1011 q 408 956 353 1011 q 463 823 463 901 q 408 689 463 744 q 274 635 353 635 q 141 689 196 635 q 87 823 87 744 m 161 823 q 194 742 161 776 q 275 709 227 709 q 355 742 322 709 q 389 823 389 776 q 355 904 389 870 q 275 938 322 938 q 194 904 227 938 q 161 823 161 870 "},"Ξ":{"x_min":74,"x_max":828.859375,"ha":774,"o":"m 92 994 l 810 994 l 810 877 l 92 877 l 92 994 m 156 555 l 746 555 l 746 439 l 156 439 l 156 555 m 74 117 l 828 117 l 828 0 l 74 0 l 74 117 "},"0":{"x_min":9.5,"x_max":657.875,"ha":661,"o":"m 9 498 q 153 948 9 830 q 333 1006 225 1006 q 573 881 492 1006 q 657 498 657 751 q 514 50 657 167 q 333 -8 442 -8 q 9 498 9 -8 m 134 498 q 161 245 134 334 q 333 91 207 91 q 532 498 532 91 q 505 752 532 663 q 332 905 459 905 q 198 834 247 905 q 134 498 134 744 "},"”":{"x_min":48,"x_max":400,"ha":443,"o":"m 59 862 l 59 1004 l 190 1004 l 190 892 q 168 761 190 801 q 77 679 139 706 l 48 726 q 122 862 118 755 l 59 862 m 269 862 l 269 1004 l 400 1004 l 400 892 q 378 761 400 801 q 288 679 349 706 l 258 726 q 332 862 328 755 l 269 862 "},"΄":{"x_min":150.4375,"x_max":297.625,"ha":429,"o":"m 204 1090 l 150 1090 l 198 1258 l 297 1258 l 204 1090 "},"Β":{"x_min":102,"x_max":1265.828125,"ha":891,"o":"m 555 288 q 510 394 555 356 q 407 427 469 427 q 312 395 356 427 q 260 288 260 356 q 298 191 260 230 q 407 149 339 149 q 514 186 473 149 q 555 288 555 223 m 102 288 q 193 492 102 406 q 407 579 284 579 q 622 492 532 579 q 713 288 713 406 q 622 84 713 171 q 407 -2 532 -2 q 193 84 284 -2 q 102 288 102 171 m 555 689 q 527 777 555 739 q 407 828 489 828 q 306 791 349 828 q 260 689 260 751 q 407 550 260 550 q 555 689 555 550 m 102 689 q 193 893 102 807 q 407 980 284 980 q 622 893 532 980 q 713 689 713 807 q 622 485 713 572 q 407 398 532 398 q 193 485 284 398 q 102 689 102 572 m 1106 493 q 1079 581 1106 543 q 959 632 1040 632 q 858 595 900 632 q 812 493 812 556 q 959 354 812 354 q 1106 493 1106 354 m 653 493 q 744 697 653 611 q 959 784 835 784 q 1174 697 1083 784 q 1265 493 1265 611 q 1174 289 1265 376 q 959 202 1083 202 q 744 289 835 202 q 653 493 653 376 "},"№":{"x_min":79.359375,"x_max":3348.390625,"ha":1290,"o":"m 79 105 l 332 549 l 514 479 l 264 6 l 79 105 m 411 765 q 421 803 409 765 q 435 870 435 846 q 433 887 435 881 q 415 963 416 961 q 345 1015 396 1007 q 289 989 313 1019 q 269 945 271 967 q 289 861 267 919 q 358 760 316 788 q 453 712 415 722 q 684 691 518 696 q 1133 486 1001 683 q 1205 269 1176 418 q 1209 228 1209 252 q 982 6 1209 7 l 978 6 q 763 104 851 6 q 677 331 677 201 q 701 470 677 395 l 893 432 q 876 349 876 389 q 909 244 876 287 q 982 200 942 202 q 1034 258 1034 198 q 1024 306 1034 281 q 911 442 984 405 q 745 478 863 467 q 516 518 597 495 q 166 688 252 590 q 92 945 94 768 q 140 1104 92 1033 q 322 1199 203 1199 q 605 883 605 1199 q 583 722 605 837 l 411 765 m 1037 1193 l 1272 1191 l 992 655 l 794 727 l 1037 1193 m 1140 1372 l 3348 1372 l 3348 1195 l 1040 1195 l 1140 1372 "},"þ":{"x_min":91,"x_max":716,"ha":726,"o":"m 91 -276 l 91 994 l 214 994 l 214 644 q 300 713 262 696 q 411 737 349 737 q 680 555 605 737 q 716 365 716 469 q 561 31 716 127 q 403 -16 485 -16 q 299 6 346 -16 q 214 74 263 23 l 214 -276 l 91 -276 m 202 356 q 242 175 202 246 q 394 85 292 85 q 549 179 497 85 q 591 366 591 254 q 549 548 591 474 q 399 641 499 641 q 245 543 299 641 q 202 356 202 464 "},"]":{"x_min":71.21875,"x_max":1172.640625,"ha":1225,"o":"m 1150 646 q 1107 735 1125 703 q 1085 773 1098 758 q 796 619 932 701 q 415 419 560 501 q 290 370 323 370 q 225 391 263 370 q 193 447 193 416 q 226 507 202 484 q 314 524 250 531 q 448 463 371 507 l 583 538 q 393 634 479 607 q 257 652 326 663 q 128 592 172 642 q 71 442 71 537 q 134 309 77 364 q 307 236 213 236 q 495 295 383 236 q 1150 646 945 543 m 763 420 l 618 342 q 831 228 574 347 q 1110 90 956 162 q 1172 219 1140 157 q 763 420 929 339 m 714 944 q 741 1010 714 983 q 809 1038 769 1038 q 875 1010 848 1038 q 903 944 903 983 q 875 877 903 904 q 809 849 848 849 q 741 877 769 849 q 714 944 714 905 m 743 612 l 742 815 l 876 814 l 877 691 l 743 612 m 877 179 l 876 1 l 742 2 l 743 246 l 877 179 m 776 424 l 773 436 l 876 477 l 878 386 l 776 424 "},"А":{"x_min":52.90625,"x_max":746.046875,"ha":785,"o":"m 52 1 l 52 588 q 124 884 52 767 q 392 1026 213 1026 l 406 1026 q 676 900 588 1020 q 746 653 746 803 q 647 397 746 505 q 410 281 549 289 q 290 318 341 278 q 250 362 252 346 l 250 549 q 286 491 271 506 q 395 452 326 451 q 578 646 555 453 q 581 685 581 666 q 543 812 581 764 q 405 871 497 871 q 265 783 311 871 q 229 611 229 714 q 230 585 229 598 q 226 1 229 376 l 52 1 m 573 1 l 573 307 l 571 307 q 638 362 609 333 q 735 501 711 430 l 735 1 l 573 1 "},"Ы":{"x_min":45.4375,"x_max":885.078125,"ha":874,"o":"m 804 1133 q 859 1112 836 1133 q 883 1061 883 1091 q 859 1010 883 1031 q 804 988 836 988 q 748 1010 771 988 q 725 1061 725 1031 q 748 1112 725 1091 q 804 1133 771 1133 m 590 1128 q 645 1107 622 1128 q 668 1056 668 1085 q 645 1004 668 1026 q 590 983 622 983 q 534 1004 557 983 q 511 1056 511 1026 q 534 1107 511 1085 q 590 1128 557 1128 m 601 942 q 696 942 603 942 l 792 942 l 792 493 q 600 611 712 581 q 601 942 602 775 m 510 1257 q 569 1256 560 1257 q 644 1221 616 1249 q 678 1178 672 1193 q 691 1140 685 1159 q 721 1181 699 1159 q 768 1210 748 1208 q 885 1190 842 1218 q 777 1172 832 1197 q 722 1125 749 1159 q 695 1073 698 1093 q 629 1163 663 1137 q 533 1178 594 1189 l 510 1257 m 83 1241 q 299 1014 209 1172 l 446 1014 l 446 897 l 350 897 q 404 602 398 765 q 198 440 258 542 q 205 660 205 566 q 188 900 205 806 l 45 900 l 45 1017 l 166 1017 q 83 1241 153 1108 m 512 597 q 735 503 640 597 q 828 299 828 411 q 741 88 828 176 q 512 -2 650 -2 q 279 86 365 -2 q 198 299 198 170 q 290 503 198 411 q 512 597 385 597 m 512 470 q 394 415 442 470 q 348 299 348 364 q 394 187 348 236 q 512 135 442 135 q 632 187 583 135 q 677 299 677 236 q 632 415 677 364 q 512 470 583 470 "},"χ":{"x_min":11,"x_max":715.671875,"ha":717,"o":"m 32 720 l 164 720 l 363 321 l 568 720 l 702 720 l 437 229 l 715 -276 l 576 -276 l 363 139 l 147 -276 l 11 -276 l 288 225 l 32 720 "},"8":{"x_min":79,"x_max":687,"ha":722,"o":"m 573 289 q 520 419 573 368 q 383 471 467 471 q 247 420 301 471 q 194 289 194 370 q 250 154 194 204 q 383 108 303 108 q 516 156 462 108 q 573 289 573 206 m 383 -3 q 168 82 257 -3 q 79 289 79 167 q 168 496 79 410 q 383 582 257 582 q 598 496 509 582 q 687 289 687 410 q 598 82 687 167 q 383 -3 509 -3 m 573 703 q 518 830 573 776 q 383 885 463 885 q 255 834 312 885 q 194 703 194 780 q 250 574 194 627 q 383 522 306 522 q 518 574 463 522 q 573 703 573 626 m 383 411 q 168 496 257 411 q 79 703 79 582 q 168 910 79 824 q 383 996 257 996 q 598 910 509 996 q 687 703 687 824 q 598 496 687 581 q 383 411 509 411 "},"Ζ":{"x_min":4.75,"x_max":790.8125,"ha":981,"o":"m 382 735 q 550 668 481 735 q 618 505 618 601 q 549 343 618 411 q 382 276 480 276 q 216 343 285 276 q 147 505 147 411 q 216 668 147 601 q 382 735 284 735 m 385 672 q 264 623 314 672 q 214 505 214 575 q 264 386 214 436 q 385 337 314 337 q 505 386 455 337 q 556 505 556 436 q 506 623 556 575 q 385 672 456 672 m 4 7 l 4 129 l 514 766 q 617 884 568 834 l 62 884 l 62 1001 l 774 1001 l 774 884 l 155 124 l 790 124 l 790 7 l 4 7 "},"R":{"x_min":67.828125,"x_max":1017.328125,"ha":1085,"o":"m 67 0 l 67 991 l 203 991 l 203 585 l 610 585 l 610 990 l 746 991 l 746 0 l 610 0 l 610 474 l 203 474 l 203 0 l 67 0 m 609 1098 l 67 1098 l 67 1220 l 609 1220 l 609 1098 m 759 0 l 759 991 l 929 991 l 929 0 l 759 0 m 649 1138 q 673 1197 649 1172 q 731 1221 697 1221 q 789 1197 765 1221 q 813 1138 813 1173 q 789 1080 813 1104 q 731 1056 765 1056 q 673 1080 697 1056 q 649 1138 649 1104 m 851 1138 q 875 1196 851 1172 q 934 1220 900 1220 q 993 1196 969 1220 q 1017 1138 1017 1172 q 993 1079 1017 1103 q 934 1055 969 1055 q 875 1079 900 1055 q 851 1138 851 1104 "},"o":{"x_min":0,"x_max":496.453125,"ha":516,"o":"m 247 250 q 72 322 144 250 q 0 497 0 395 q 72 673 0 601 q 247 746 145 746 q 423 673 351 746 q 496 497 496 601 q 424 322 496 395 q 247 250 352 250 m 246 370 q 340 408 301 370 q 378 501 378 446 q 339 593 378 555 q 246 632 301 632 q 153 593 191 632 q 115 501 115 555 q 153 408 115 446 q 246 370 191 370 "},"5":{"x_min":35.265625,"x_max":709.421875,"ha":728,"o":"m 238 50 l 273 99 q 451 123 388 96 q 589 319 562 172 q 592 354 592 337 q 477 520 592 460 q 297 567 392 564 l 306 655 q 557 610 479 648 q 709 329 709 536 l 709 316 q 599 88 706 179 q 379 4 501 4 q 238 50 294 4 m 73 477 q 145 447 103 447 q 227 482 195 447 q 284 644 284 543 q 280 701 284 642 q 273 790 281 718 q 183 792 183 788 q 174 655 187 771 q 79 598 138 657 q 50 535 50 569 q 73 477 50 503 m 192 575 q 154 566 177 590 q 145 529 130 543 q 183 538 159 514 q 192 575 206 561 m 41 955 q 118 1007 66 1007 q 155 1001 136 1007 q 239 947 209 982 q 258 915 251 932 q 676 992 527 953 l 676 897 q 204 809 410 809 q 112 819 145 809 q 56 858 78 830 q 35 921 35 887 q 41 955 35 938 m 182 890 q 158 920 189 909 q 120 913 126 931 q 144 883 112 894 q 182 890 175 872 m 163 305 q 240 271 210 305 q 269 194 271 238 q 212 68 265 125 q 145 12 179 40 q 88 -8 118 -8 q 58 9 73 -8 q 48 29 48 20 q 57 43 48 37 q 127 92 75 54 q 81 215 80 132 q 163 305 82 297 m 177 153 q 198 185 198 153 q 177 219 198 219 q 157 185 157 219 q 177 153 157 153 "},"Ѕ":{"x_min":62.828125,"x_max":865.15625,"ha":878,"o":"m 621 1048 l 768 1048 l 772 1043 l 772 930 l 860 930 l 865 925 l 865 828 l 860 823 l 772 823 l 772 526 q 637 345 772 437 q 515 303 599 322 l 440 292 l 408 292 q 243 327 328 292 l 243 480 l 245 482 l 245 484 q 371 452 325 452 l 427 447 q 566 487 513 457 q 616 582 616 518 l 616 823 l 524 823 l 519 828 l 519 923 l 524 927 l 616 927 l 616 1043 l 621 1048 m 67 1046 l 211 1046 l 216 1041 l 216 749 l 150 710 q 81 615 83 649 l 67 566 l 62 566 l 62 1041 l 67 1046 m 410 758 q 598 719 511 758 l 598 556 l 593 552 q 549 582 575 577 q 412 603 514 603 q 315 589 338 598 l 315 591 q 234 540 250 569 q 218 424 218 524 l 218 4 l 213 0 l 67 0 l 62 4 l 62 463 q 125 651 62 594 q 260 735 166 707 q 410 758 319 758 m 768 478 l 772 478 l 772 4 l 768 0 l 621 0 l 616 4 l 616 313 l 684 352 q 768 475 747 398 l 768 478 "},"õ":{"x_min":0,"x_max":831.5,"ha":814,"o":"m 0 507 q 137 857 0 744 q 416 952 251 952 q 724 828 611 952 q 831 519 831 710 q 630 113 831 220 q 416 61 532 61 q 103 189 212 61 q 0 507 0 307 m 206 498 q 252 343 206 403 q 418 271 309 271 q 583 344 528 271 q 630 501 630 405 q 581 655 630 594 q 418 725 525 725 q 252 653 309 725 q 206 498 206 594 m 678 0 l 678 -135 l 543 -135 l 543 0 l 678 0 m 271 0 l 271 -135 l 136 -135 l 136 0 l 271 0 m 0 1220 l 814 1220 l 814 1151 l 0 1146 l 0 1220 "},",":{"x_min":115,"x_max":262,"ha":305,"o":"m 123 0 l 123 139 l 262 139 l 262 0 q 148 -197 262 -147 l 115 -144 q 192 0 188 -112 l 123 0 "},"d":{"x_min":64.4375,"x_max":1096.015625,"ha":1162,"o":"m 64 -204 l 64 219 q 180 220 76 219 q 312 221 283 221 q 334 220 339 221 l 324 220 q 333 221 326 220 q 428 154 353 198 q 548 88 482 124 q 396 59 494 75 q 248 51 310 54 l 248 -204 l 64 -204 m 297 37 q 446 46 329 36 q 588 76 531 57 q 749 43 631 64 q 874 31 849 31 q 594 7 634 7 q 297 37 570 7 m 1096 -209 l 917 -209 l 917 45 q 184 616 215 71 q 298 887 174 777 q 578 991 414 991 l 594 991 q 900 874 784 986 q 1008 608 1010 766 q 931 355 1005 453 q 816 249 899 309 l 636 310 q 743 414 729 395 q 811 597 811 498 q 727 764 811 699 q 600 813 661 812 q 487 790 541 813 q 378 619 377 743 q 529 326 379 430 q 838 219 641 247 q 1095 200 901 209 l 1096 -209 m 499 -203 l 428 -203 l 428 2 l 499 2 l 499 -203 m 747 -206 l 676 -206 l 676 2 l 747 2 l 747 -206 "},"\"":{"x_min":58.328125,"x_max":803.6875,"ha":886,"o":"m 236 919 l 231 919 q 103 857 160 919 q 58 726 58 809 q 63 665 58 697 q 225 389 75 496 q 641 274 384 274 q 803 275 803 281 l 803 274 q 626 324 715 299 q 447 425 508 359 q 353 684 362 514 q 356 742 352 701 q 361 803 361 784 q 236 919 361 906 "},"˙":{"x_min":155,"x_max":306,"ha":349,"o":"m 155 810 l 155 962 l 306 962 l 306 810 l 155 810 "},"„":{"x_min":48,"x_max":400,"ha":443,"o":"m 59 0 l 59 142 l 190 142 l 190 29 q 168 -101 190 -61 q 77 -184 139 -156 l 48 -135 q 122 0 118 -107 l 59 0 m 269 0 l 269 142 l 400 142 l 400 29 q 378 -101 400 -61 q 288 -184 349 -156 l 258 -135 q 332 0 328 -107 l 269 0 "},"ч":{"x_min":51,"x_max":585,"ha":635,"o":"m 321 636 q 383 611 357 636 q 409 551 409 586 q 383 490 409 515 q 321 466 357 466 q 258 490 284 466 q 233 551 233 515 q 258 611 233 586 q 321 636 284 636 m 51 735 l 176 735 l 176 425 l 461 425 l 461 735 l 585 735 l 585 304 l 385 304 l 385 -3 l 248 -3 l 248 304 l 51 304 l 51 735 "},"δ":{"x_min":49,"x_max":725,"ha":754,"o":"m 118 994 l 661 994 l 661 895 l 281 895 q 494 726 348 826 q 665 571 618 640 q 725 352 725 485 q 638 88 725 188 q 383 -16 546 -16 q 134 89 225 -16 q 49 350 49 189 q 123 597 49 499 q 350 710 205 705 q 118 905 287 754 l 118 994 m 174 348 q 227 168 174 242 q 390 85 287 85 q 551 168 495 85 q 600 349 600 239 q 550 532 600 459 q 387 616 493 616 q 224 531 283 616 q 174 348 174 457 "},"ω":{"x_min":59,"x_max":1026,"ha":1062,"o":"m 166 720 l 284 720 q 183 343 183 497 q 214 176 183 249 q 337 80 255 80 q 421 115 382 80 q 469 195 457 149 q 482 328 482 242 l 482 539 l 603 539 l 603 328 q 666 113 603 168 q 748 80 704 80 q 871 177 829 80 q 902 343 902 249 q 800 720 902 497 l 918 720 q 1026 350 1026 529 q 969 104 1026 202 q 762 -16 899 -16 q 542 146 608 -16 q 322 -16 476 -16 q 116 104 185 -16 q 59 350 59 202 q 166 720 59 529 "},"´":{"x_min":-306.5625,"x_max":-159.375,"ha":28,"o":"m -252 1090 l -306 1090 l -258 1258 l -159 1258 l -252 1090 "},"И":{"x_min":55.609375,"x_max":585.984375,"ha":597,"o":"m 411 775 l 411 0 l 215 0 l 215 775 l 411 775 m 174 1056 q 258 1023 223 1056 q 293 946 293 991 q 258 869 293 901 q 174 836 223 836 q 90 869 125 836 q 55 946 55 901 q 90 1023 55 991 q 174 1056 125 1056 m 467 1056 q 551 1023 516 1056 q 585 946 585 991 q 551 869 585 901 q 467 836 516 836 q 383 869 417 836 q 348 946 348 901 q 383 1023 348 991 q 467 1056 417 1056 "},"Љ":{"x_min":9,"x_max":1417,"ha":1405,"o":"m 799 994 l 799 570 l 1036 570 q 1234 548 1162 570 q 1383 427 1340 515 q 1417 289 1417 360 q 1374 132 1417 204 q 1253 26 1328 54 q 1055 0 1184 0 l 667 0 l 667 877 l 309 877 l 309 364 q 302 183 309 231 q 232 23 287 70 q 113 -17 185 -17 q 9 0 70 -17 l 31 115 q 87 102 64 102 q 168 172 150 102 q 177 293 177 204 l 177 994 l 799 994 m 799 112 l 1062 112 q 1246 180 1196 112 q 1276 285 1276 220 q 1159 444 1276 415 q 975 457 1106 457 l 799 457 l 799 112 "},"р":{"x_min":-14.25,"x_max":562.921875,"ha":562,"o":"m -14 -191 q 57 57 57 -134 q 28 292 57 158 q -1 541 -1 425 q 76 730 -1 649 q 262 811 153 811 q 430 767 355 811 q 562 509 558 691 l 562 497 q 493 299 562 373 q 362 224 443 246 q 312 213 322 213 q 198 262 246 217 l 174 451 q 297 358 235 358 q 421 509 421 358 q 368 632 421 585 q 275 671 324 671 q 190 628 233 671 q 143 526 145 581 q 160 342 141 488 q 178 145 179 192 q -14 -191 174 -75 "},"т":{"x_min":0,"x_max":1288.625,"ha":1289,"o":"m 813 1018 l 813 611 l 1152 611 l 1152 1018 l 1288 1018 l 1288 0 l 0 0 l 0 1018 l 813 1018 m 1152 136 l 1152 475 l 678 475 l 678 882 l 135 882 l 135 136 l 1152 136 "},"П":{"x_min":69.171875,"x_max":1113.640625,"ha":1177,"o":"m 254 1112 l 929 1112 l 929 195 l 834 196 l 834 1003 l 358 1003 l 358 196 l 254 196 l 254 1112 m 189 1088 l 188 116 l 999 116 l 999 1090 l 1113 1088 l 1113 -2 l 69 -2 l 69 1088 l 189 1088 m 592 379 q 434 444 499 379 q 368 602 368 510 q 434 760 368 695 q 592 825 499 825 q 750 760 685 825 q 815 602 815 695 q 750 444 815 510 q 592 379 685 379 m 594 532 q 648 554 626 532 q 670 609 670 576 q 648 662 670 640 q 594 685 625 685 q 539 662 561 685 q 517 609 517 640 q 539 554 517 576 q 594 532 561 532 "},"z":{"x_min":67.828125,"x_max":1324.5625,"ha":1386,"o":"m 1085 542 l 1084 1013 l 339 1013 l 339 923 l 434 881 l 478 866 l 647 868 l 647 0 l 786 0 l 788 868 l 949 868 l 948 542 l 1085 542 m 472 624 q 458 556 470 575 q 428 518 444 533 q 363 537 383 535 q 330 511 327 539 q 363 485 333 487 q 372 486 367 485 q 440 508 423 495 q 487 619 472 535 q 489 634 488 626 q 425 747 492 696 q 275 831 394 771 q 140 932 204 868 q 67 1061 67 1005 l 67 1068 q 120 1024 67 1061 q 309 931 196 971 q 528 816 462 875 q 627 612 610 742 q 629 569 630 590 q 501 394 623 455 q 354 354 413 349 q 248 413 297 359 q 202 524 198 467 q 256 622 204 582 q 365 657 307 661 q 472 624 444 651 m 626 493 q 630 407 633 455 q 564 211 625 296 q 291 44 477 92 q 69 -67 110 -1 q 73 -35 71 -52 q 105 18 79 -8 q 149 66 127 42 q 293 164 180 94 q 468 339 465 269 q 468 358 469 346 q 518 379 493 368 q 570 408 557 396 q 626 493 612 446 m 1056 520 q 1245 438 1164 520 q 1324 262 1324 359 q 1250 78 1324 154 q 1056 0 1173 0 q 856 77 929 0 q 786 262 786 149 q 865 438 786 359 q 1056 520 947 520 m 1056 400 q 954 355 995 400 q 917 255 917 311 q 954 158 917 199 q 1056 114 995 114 q 1156 158 1116 114 q 1193 255 1193 199 q 1156 355 1193 311 q 1056 400 1115 400 m 619 1178 q 788 1059 701 1171 q 813 1017 815 1017 q 754 1017 788 1018 l 683 1017 q 619 1178 678 1085 m 786 881 l 786 370 l 811 401 l 854 438 l 854 709 l 838 881 l 786 881 "},"Θ":{"x_min":65,"x_max":1016,"ha":1047,"o":"m 65 484 q 185 858 65 714 q 541 1012 315 1012 q 891 861 760 1012 q 1016 495 1016 718 q 890 132 1016 274 q 540 -17 758 -17 q 286 52 400 -17 q 115 250 168 124 q 65 484 65 368 m 201 482 q 286 211 201 317 q 539 96 379 96 q 797 216 705 96 q 880 496 880 325 q 798 776 880 667 q 541 899 707 899 q 278 774 367 899 q 201 482 201 665 m 344 439 l 344 555 l 737 555 l 737 439 l 344 439 "},"æ":{"x_min":46,"x_max":1178.625,"ha":1206,"o":"m 1175 220 q 858 -16 1105 -16 q 590 117 691 -16 q 292 -16 453 -16 q 121 34 189 -16 q 46 190 46 91 q 80 302 46 251 q 174 377 115 352 q 364 420 232 403 q 535 454 465 433 q 536 481 536 471 q 500 602 536 568 q 376 636 463 636 q 216 581 256 636 q 184 497 197 555 l 65 511 q 222 710 101 662 q 377 737 288 737 q 560 702 490 737 q 627 639 600 682 q 858 737 716 737 q 1145 542 1071 737 q 1178 369 1178 454 q 1177 328 1178 356 l 657 328 q 674 205 658 246 q 754 114 695 148 q 863 85 803 85 q 1048 236 1009 85 l 1175 220 m 657 429 l 1053 429 q 857 636 1034 636 q 713 577 766 636 q 657 429 663 521 m 537 361 q 319 311 483 337 q 215 277 244 299 q 176 193 176 246 q 219 107 176 137 q 316 80 257 80 q 444 113 386 80 q 527 214 508 151 q 537 361 537 248 "},"и":{"x_min":76.640625,"x_max":743.328125,"ha":813,"o":"m 170 617 l 76 709 l 154 790 l 248 695 q 409 744 320 744 q 570 695 499 744 l 664 790 l 743 709 l 649 617 q 697 457 697 542 q 649 297 697 372 l 743 205 l 664 124 l 570 219 q 409 170 499 170 q 248 219 320 170 l 154 124 l 76 205 l 170 297 q 122 457 122 372 q 170 617 122 542 m 233 457 q 284 333 233 384 q 408 281 335 281 q 533 333 482 281 q 584 457 584 384 q 533 582 584 531 q 408 633 482 633 q 284 582 335 633 q 233 457 233 531 "},"~":{"x_min":79.359375,"x_max":432.703125,"ha":524,"o":"m 431 0 l 317 0 q 79 282 86 112 l 79 287 q 179 602 79 418 q 238 810 257 739 q 83 1083 228 951 l 198 1083 q 429 807 429 954 q 432 763 432 786 q 355 523 432 657 q 269 281 264 364 q 431 0 286 149 "},"³":{"x_min":23,"x_max":439,"ha":478,"o":"m 23 630 l 122 640 q 157 584 135 599 q 226 564 186 564 q 299 587 269 564 q 333 654 333 612 q 225 729 333 729 q 206 728 219 729 q 187 728 193 728 l 202 802 q 309 870 309 800 q 228 931 309 931 q 131 862 158 931 l 34 877 q 106 977 63 949 q 228 1006 149 1006 q 415 879 415 1006 q 321 770 415 797 q 439 641 439 741 q 371 521 439 564 q 232 485 314 485 q 23 630 52 485 "},"¡":{"x_min":157,"x_max":308,"ha":343,"o":"m 302 720 l 302 581 l 162 581 l 162 720 l 302 720 m 270 472 l 308 -53 l 308 -274 l 157 -274 l 157 -53 l 192 472 l 270 472 "},"[":{"x_min":70.53125,"x_max":1119.75,"ha":1171,"o":"m 456 428 q 457 273 455 329 q 527 313 491 288 q 619 362 567 332 q 826 493 681 399 q 900 521 867 521 q 965 501 927 521 q 996 444 996 476 q 964 384 988 408 q 876 368 940 361 q 759 421 850 370 l 651 347 q 797 258 721 293 q 933 240 864 229 q 1062 299 1018 250 q 1119 450 1119 355 q 1056 582 1113 528 q 883 656 977 656 q 715 592 807 656 q 456 428 607 526 m 303 -2 l 303 818 l 442 818 l 442 -2 l 303 -2 m 277 935 q 304 1002 277 975 q 371 1030 332 1030 q 438 1002 411 1030 q 465 935 465 975 q 438 869 465 896 q 371 841 411 841 q 304 869 332 841 q 277 935 277 897 m 284 556 l 70 652 l 121 774 l 284 696 l 284 556 m 288 189 l 141 100 l 76 220 l 288 343 l 288 189 m 472 453 l 454 469 l 454 611 l 600 532 l 472 453 "},"℞":{"x_min":162,"x_max":1227,"ha":1270,"o":"m 162 0 l 162 139 l 301 139 l 301 0 l 162 0 m 625 0 l 625 139 l 764 139 l 764 0 l 625 0 m 1087 0 l 1087 139 l 1227 139 l 1227 0 l 1087 0 "},"ζ":{"x_min":49,"x_max":601,"ha":594,"o":"m 159 994 l 601 994 l 601 911 q 312 642 435 809 q 172 280 172 452 q 208 160 172 199 q 327 114 245 120 q 451 97 420 105 q 554 33 518 80 q 588 -69 588 -9 q 549 -188 588 -132 q 453 -269 511 -245 q 323 -292 399 -292 l 356 -179 q 471 -83 471 -166 q 407 -7 471 -22 q 307 1 379 -1 q 74 143 131 6 q 49 285 49 206 q 174 632 49 451 q 441 895 285 789 l 159 895 l 159 994 "},"К":{"x_min":75.28125,"x_max":1009.203125,"ha":1089,"o":"m 75 0 l 75 933 l 1009 933 l 1009 0 l 75 0 m 161 64 l 935 64 l 935 870 l 160 870 l 161 64 "},"Γ":{"x_min":111,"x_max":732.25,"ha":690,"o":"m 111 994 l 732 994 l 732 877 l 243 877 l 243 0 l 111 0 l 111 994 "},"ѳ":{"x_min":62,"x_max":710,"ha":748,"o":"m 62 497 q 386 1011 62 1011 q 710 497 710 1011 q 386 -16 710 -16 q 62 497 62 -16 m 188 546 l 584 546 q 384 910 572 910 q 188 546 195 910 m 584 448 l 188 448 q 386 85 195 85 q 584 448 577 85 "},"%":{"x_min":16.28125,"x_max":558.171875,"ha":572,"o":"m 16 535 q 52 623 16 587 q 141 660 89 660 q 230 624 193 660 q 267 535 267 588 q 230 446 267 483 q 141 410 193 410 q 52 446 89 410 q 16 535 16 483 m 307 535 q 343 623 307 586 q 432 659 380 659 q 521 623 484 659 q 558 535 558 587 q 521 446 558 482 q 432 409 484 409 q 343 446 380 409 q 307 535 307 482 "},"P":{"x_min":67.828125,"x_max":717.5625,"ha":913,"o":"m 67 852 l 717 853 l 717 0 l 574 0 l 579 719 l 209 718 l 209 0 l 67 0 l 67 852 m 384 854 q 249 910 305 854 q 193 1045 193 966 q 249 1180 193 1124 q 384 1236 305 1236 q 520 1180 464 1236 q 575 1045 575 1124 q 520 910 575 966 q 384 854 465 854 m 383 946 q 455 976 425 946 q 484 1047 484 1005 q 455 1119 484 1089 q 383 1148 425 1148 q 312 1119 341 1148 q 283 1047 283 1089 q 312 976 283 1005 q 383 946 341 946 "},"∏":{"x_min":109,"x_max":1033,"ha":1079,"o":"m 109 1011 l 1033 1011 l 1033 -292 l 903 -292 l 903 893 l 240 893 l 240 -292 l 109 -292 l 109 1011 "},"_":{"x_min":66.46875,"x_max":1127.890625,"ha":1214,"o":"m 539 1246 l 642 1246 l 648 1239 l 648 -4 l 642 -10 l 539 -10 l 533 -4 l 533 1239 l 539 1246 m 574 196 q 257 328 397 202 q 73 657 113 457 l 66 695 l 93 647 q 301 440 164 522 q 584 352 438 358 q 891 434 746 347 q 1108 661 1032 519 l 1127 699 l 1125 685 q 927 325 1093 466 q 574 196 768 189 m 577 590 q 339 689 444 595 q 201 935 231 786 l 196 964 l 216 928 q 372 773 269 834 q 584 707 474 711 q 814 769 706 703 q 977 940 921 832 l 992 968 l 990 957 q 841 687 966 792 q 577 590 722 585 m 578 930 q 420 996 490 933 q 328 1160 347 1061 l 324 1179 l 338 1155 q 442 1052 373 1093 q 583 1008 510 1011 q 737 1049 664 1005 q 845 1163 807 1091 l 855 1182 l 854 1175 q 755 994 838 1065 q 578 930 675 927 "},"‚":{"x_min":73,"x_max":215,"ha":258,"o":"m 84 0 l 84 142 l 215 142 l 215 29 q 193 -101 215 -61 q 102 -184 164 -156 l 73 -135 q 147 0 143 -107 l 84 0 "},"Ρ":{"x_min":106.828125,"x_max":756.5625,"ha":853,"o":"m 106 852 l 756 853 l 756 0 l 613 0 l 618 719 l 248 718 l 248 0 l 106 0 l 106 852 m 423 854 q 288 910 344 854 q 232 1045 232 966 q 288 1180 232 1124 q 423 1236 344 1236 q 559 1180 503 1236 q 614 1045 614 1124 q 559 910 614 966 q 423 854 504 854 m 422 946 q 494 976 464 946 q 523 1047 523 1005 q 494 1119 523 1089 q 422 1148 464 1148 q 351 1119 380 1148 q 322 1047 322 1089 q 351 976 322 1005 q 422 946 380 946 "},"ы":{"x_min":0,"x_max":586,"ha":627,"o":"m 501 934 q 554 913 533 934 q 576 865 576 893 q 555 811 576 834 q 501 786 533 786 q 449 810 470 786 q 428 865 428 834 q 448 913 428 893 q 501 934 469 934 m 436 734 l 572 734 l 572 350 q 436 465 507 450 l 436 734 m 0 941 q 184 753 107 886 q 273 487 257 628 q 117 381 189 466 q 123 488 123 433 q 90 740 123 619 q 0 941 57 864 m 342 471 q 514 396 440 471 q 586 236 586 325 q 518 69 586 139 q 342 -2 448 -2 q 161 68 227 -2 q 98 236 98 134 q 169 396 98 325 q 342 471 243 471 m 342 362 q 250 320 287 362 q 217 229 217 281 q 250 142 217 179 q 342 102 287 102 q 433 142 397 102 q 467 229 467 179 q 433 320 467 281 q 342 362 396 362 "},"ª":{"x_min":33,"x_max":488.09375,"ha":545,"o":"m 372 578 q 199 506 290 506 q 81 543 127 506 q 33 654 33 584 q 76 754 33 716 q 131 785 98 774 q 198 799 154 792 l 298 814 q 363 828 325 818 q 357 882 362 868 q 321 920 349 906 q 256 932 296 932 q 144 847 157 932 l 51 870 q 125 979 60 943 q 257 1011 178 1011 q 403 978 355 1011 q 460 846 460 939 l 460 642 q 488 518 458 554 l 387 518 q 372 578 374 545 m 362 748 q 232 724 325 739 q 134 654 134 708 q 162 602 134 620 q 222 587 186 587 q 305 611 268 587 q 357 678 343 635 q 362 748 361 693 "},"ї":{"x_min":7,"x_max":387,"ha":403,"o":"m 134 0 l 134 720 l 257 720 l 257 0 l 134 0 m 7 861 l 7 1000 l 135 1000 l 135 861 l 7 861 m 259 861 l 259 1000 l 387 1000 l 387 861 l 259 861 "},"T":{"x_min":67.828125,"x_max":551.390625,"ha":609,"o":"m 463 328 l 463 562 l 356 562 l 357 0 l 267 0 l 267 562 l 155 562 l 155 328 l 67 328 l 67 656 l 550 656 l 551 328 l 463 328 m 271 657 l 271 1122 l 354 1122 l 354 657 l 271 657 m 317 1252 q 356 1231 335 1252 q 365 1207 365 1214 l 365 1193 q 339 1155 360 1167 q 309 1148 325 1148 q 261 1184 277 1148 l 259 1196 q 305 1252 259 1241 l 317 1252 "},"Њ":{"x_min":111,"x_max":1351,"ha":1337,"o":"m 734 994 l 734 570 l 954 570 q 1146 554 1082 570 q 1302 452 1250 528 q 1351 289 1351 382 q 1306 128 1351 203 q 1180 23 1258 49 q 982 0 1112 0 l 602 0 l 602 457 l 243 457 l 243 0 l 111 0 l 111 994 l 243 994 l 243 570 l 602 570 l 602 994 l 734 994 m 734 112 l 979 112 q 1088 120 1056 112 q 1178 177 1144 133 q 1210 285 1210 218 q 1098 442 1210 411 q 893 457 1041 457 l 734 457 l 734 112 "},"є":{"x_min":54.9375,"x_max":679.578125,"ha":697,"o":"m 434 419 l 434 318 l 180 318 q 377 84 203 84 q 560 263 532 84 l 679 247 q 581 56 660 128 q 372 -16 505 -12 l 358 -16 q 134 82 212 -16 q 54 351 54 181 l 54 360 q 142 636 56 538 q 381 736 229 736 q 570 677 493 736 q 667 507 649 616 l 548 488 q 377 635 518 635 q 237 568 290 635 q 180 419 191 510 l 434 419 "},"Þ":{"x_min":107,"x_max":866,"ha":854,"o":"m 107 0 l 107 994 l 239 994 l 239 792 l 482 792 q 634 782 580 792 q 836 639 779 756 q 866 503 866 577 q 493 202 866 202 l 239 202 l 239 0 l 107 0 m 239 319 l 495 319 q 730 499 730 319 q 701 602 730 558 q 616 665 670 649 q 492 675 582 675 l 239 675 l 239 319 "},"j":{"x_min":-6.109375,"x_max":624.640625,"ha":621,"o":"m 360 955 l 381 955 q 521 896 439 955 q 624 667 624 813 q 493 412 624 507 q 377 378 432 378 l 349 378 q 288 399 288 391 l 278 408 l 278 416 q 244 608 271 484 l 242 632 l 246 632 q 284 547 270 551 q 364 515 321 515 q 466 592 424 515 q 480 661 480 634 l 480 668 q 392 798 480 762 l 356 803 q 255 727 293 803 q 238 625 238 682 q 263 418 238 574 q 274 281 274 322 l 274 188 l 421 188 l 425 184 l 425 97 l 421 93 l 259 93 q 219 -40 259 62 q 204 -73 215 -44 q 102 -206 158 -152 l 96 -210 l 90 -210 q 86 -204 86 -210 q 140 -71 122 -136 q 159 74 159 25 l 159 93 l -2 93 l -6 97 l -6 186 l -2 190 l 155 190 l 155 205 q 136 357 149 299 q 94 594 94 567 l 92 623 l 92 667 q 121 801 100 748 q 176 881 144 845 q 297 948 221 925 l 360 955 "},"Ѱ":{"x_min":86,"x_max":1074,"ha":1086,"o":"m 86 994 l 218 994 l 218 726 q 289 499 218 570 q 514 420 356 432 l 514 994 l 646 994 l 646 420 q 872 506 803 429 q 942 742 942 584 l 942 994 l 1074 994 l 1074 713 q 646 307 1074 313 l 646 0 l 514 0 l 514 307 q 86 701 86 314 l 86 994 "},"Σ":{"x_min":100,"x_max":804,"ha":791,"o":"m 776 994 l 776 877 l 242 877 l 581 516 l 242 117 l 804 117 l 804 0 l 100 0 l 100 137 l 424 516 l 100 862 l 100 994 l 776 994 "},"1":{"x_min":2.03125,"x_max":418.46875,"ha":423,"o":"m 22 445 q 2 461 4 445 l 2 462 q 15 479 2 470 q 53 516 37 495 q 155 641 105 584 l 155 533 q 93 489 129 516 q 22 445 63 453 m 318 811 q 326 843 326 820 q 320 855 326 855 q 306 832 306 855 l 306 21 q 280 -9 306 -9 q 259 -7 275 -9 q 232 -6 242 -6 q 181 3 194 -5 q 166 40 167 12 l 165 746 q 229 938 165 866 q 324 993 277 993 q 387 961 361 993 q 418 857 418 923 q 381 731 418 791 q 318 674 348 675 l 318 811 "},"›":{"x_min":62,"x_max":369.234375,"ha":394,"o":"m 241 359 l 62 667 l 163 667 l 369 363 l 163 49 l 62 49 l 241 359 "},"ℓ":{"x_min":11,"x_max":439,"ha":463,"o":"m 11 286 l 131 445 l 131 754 q 154 926 131 870 q 289 1011 190 1011 q 398 964 358 1011 q 439 848 439 918 q 246 450 439 720 l 246 169 q 248 113 246 127 q 283 80 256 80 q 419 152 315 80 l 419 42 q 266 -16 343 -16 q 131 147 131 -16 l 131 299 l 77 233 l 11 286 m 246 609 q 309 723 296 697 q 344 848 344 797 q 292 930 344 930 q 261 912 271 930 q 246 763 246 884 l 246 609 "},"<":{"x_min":76,"x_max":734.546875,"ha":748,"o":"m 76 434 l 76 548 l 734 827 l 734 706 l 212 491 l 734 274 l 734 153 l 76 434 "},"Ц":{"x_min":52,"x_max":668.515625,"ha":712,"o":"m 52 1021 l 52 566 l 211 566 l 211 1021 l 52 1021 m 510 1017 l 510 5 l 668 5 l 668 1017 l 510 1017 m 52 459 l 638 459 l 638 615 l 52 615 l 52 459 "},"t":{"x_min":67.828125,"x_max":813.875,"ha":882,"o":"m 678 474 l 678 813 l 542 813 l 542 0 l 339 0 l 339 813 l 203 813 l 203 474 l 67 474 l 67 949 l 813 949 l 813 474 l 678 474 m 531 1162 q 586 1141 563 1162 q 609 1089 609 1119 q 586 1038 609 1060 q 531 1017 563 1017 q 475 1038 498 1017 q 452 1089 452 1060 q 475 1141 452 1119 q 531 1162 498 1162 m 349 1163 q 405 1141 382 1163 q 428 1090 428 1120 q 405 1039 428 1060 q 349 1018 382 1018 q 294 1039 317 1018 q 271 1090 271 1060 q 294 1141 271 1120 q 349 1163 317 1163 "},"¬":{"x_min":77,"x_max":734,"ha":784,"o":"m 734 288 l 619 288 l 619 585 l 77 585 l 77 699 l 734 699 l 734 288 "},"Ф":{"x_min":78,"x_max":1038,"ha":1062,"o":"m 558 958 q 897 823 756 958 q 1038 498 1038 688 q 897 173 1038 308 q 558 39 756 39 q 218 173 359 39 q 78 498 78 308 q 218 823 78 688 q 558 958 359 958 m 559 809 q 337 719 424 809 q 250 497 250 630 q 336 278 250 365 q 559 192 423 192 q 782 278 695 192 q 869 497 869 365 q 782 719 869 630 q 559 809 694 809 m 299 1179 q 326 1182 311 1182 q 473 1144 377 1182 q 607 1106 569 1106 q 857 1134 727 1106 q 770 1049 813 1092 q 613 995 699 995 q 445 1026 535 995 q 314 1062 348 1060 q 278 1064 296 1064 q 113 1030 183 1064 q 193 1124 145 1081 q 299 1179 249 1171 m 857 1134 q 782 1035 783 1037 q 688 830 723 944 q 638 483 641 676 q 603 144 633 271 q 484 -98 567 -4 q 404 -148 458 -126 q 256 -176 336 -176 q 204 -172 231 -176 q 349 -112 302 -164 q 412 -1 365 -94 q 449 203 432 39 q 466 476 464 350 q 546 881 469 735 q 708 1047 600 984 q 857 1134 855 1132 "},"ï":{"x_min":7,"x_max":387,"ha":403,"o":"m 134 0 l 134 720 l 257 720 l 257 0 l 134 0 m 7 861 l 7 1000 l 135 1000 l 135 861 l 7 861 m 259 861 l 259 1000 l 387 1000 l 387 861 l 259 861 "},"О":{"x_min":2.03125,"x_max":792.84375,"ha":791,"o":"m 2 0 l 792 0 l 792 1018 l 638 1018 l 638 137 l 152 137 l 149 1021 l 2 1018 l 2 0 m 461 570 q 548 725 459 571 q 678 949 592 805 q 563 950 610 949 q 487 801 556 933 q 408 659 415 659 l 461 570 m 394 463 q 351 376 352 395 q 361 310 347 330 q 392 290 376 290 q 429 318 413 290 q 441 373 441 347 q 423 436 441 403 q 155 883 322 630 q 160 949 135 949 q 224 950 203 949 q 318 794 271 872 q 479 516 432 607 q 517 368 517 446 q 489 244 517 297 q 399 195 463 195 q 332 215 360 195 q 275 336 275 258 q 347 543 275 428 l 394 463 "},"ξ":{"x_min":62,"x_max":596,"ha":576,"o":"m 523 1011 l 523 910 l 423 910 q 213 783 213 910 q 415 667 213 667 l 515 667 l 515 566 q 239 444 333 566 q 186 289 186 376 q 244 154 186 199 q 388 108 291 119 q 492 85 457 100 q 570 15 541 63 q 596 -75 596 -26 q 507 -239 596 -178 q 323 -292 431 -290 l 354 -178 q 435 -154 402 -175 q 477 -83 477 -127 q 361 -1 477 -14 q 62 284 62 31 q 124 472 62 387 q 282 595 183 553 q 151 657 201 605 q 99 792 99 712 q 200 962 99 902 q 402 1011 284 1011 l 523 1011 "},"&":{"x_min":51.546875,"x_max":630.0625,"ha":678,"o":"m 339 745 l 507 1150 l 630 1150 l 389 607 l 290 607 l 51 1150 l 177 1150 l 339 745 "},"˝":{"x_min":39,"x_max":517.140625,"ha":547,"o":"m 39 810 l 121 1000 l 279 1000 l 136 810 l 39 810 m 274 810 l 360 1000 l 517 1000 l 376 810 l 274 810 "},"I":{"x_min":97.671875,"x_max":349.96875,"ha":475,"o":"m 137 0 l 137 810 l 319 810 l 319 0 l 137 0 m 223 1127 q 313 1091 276 1127 q 349 1003 349 1054 q 313 915 349 951 q 223 878 276 878 q 134 915 171 878 q 97 1003 97 951 q 134 1091 97 1054 q 223 1127 170 1127 m 223 1097 q 158 1070 185 1097 q 132 1007 132 1044 q 158 943 132 969 q 223 916 185 916 q 288 943 261 916 q 315 1007 315 969 q 288 1070 315 1044 q 223 1097 261 1097 "},"G":{"x_min":65.109375,"x_max":941.375,"ha":1000,"o":"m 65 1019 l 840 1019 l 840 2 l 676 2 l 675 859 l 233 859 l 233 2 l 65 1 l 65 1019 m 566 316 l 566 472 l 941 472 l 941 316 l 566 316 "},"`":{"x_min":-2.71875,"x_max":866.09375,"ha":859,"o":"m 219 423 l 218 423 l 219 423 l 221 908 l -2 908 l -2 1033 l 386 1034 l 386 603 q 219 407 247 501 l 219 423 m 542 615 q 771 518 673 615 q 866 309 866 425 q 777 93 866 183 q 542 0 683 0 q 303 91 391 0 q 219 309 219 177 q 314 518 219 425 q 542 615 412 615 m 542 485 q 420 429 470 485 q 373 309 373 377 q 420 194 373 244 q 542 141 470 141 q 664 194 615 141 q 711 309 711 244 q 664 429 711 377 q 542 485 615 485 m 241 1180 l 0 1181 l 0 1244 l 290 1245 q 364 1203 338 1230 q 386 1146 387 1167 q 356 1098 386 1122 q 267 1060 316 1063 q 0 1059 193 1060 l 0 1122 l 242 1122 q 306 1144 290 1122 q 290 1178 306 1161 q 241 1180 272 1183 "},"¿":{"x_min":107,"x_max":747.921875,"ha":698,"o":"m 497 720 l 497 581 l 358 581 l 358 720 l 497 720 m 488 475 q 489 440 489 452 q 469 314 489 367 q 420 234 453 274 q 330 149 403 213 q 250 61 269 95 q 232 -11 232 28 q 290 -139 232 -87 q 424 -190 346 -190 q 623 10 591 -190 l 747 -4 q 647 -216 730 -141 q 426 -291 564 -291 q 205 -222 295 -291 q 107 -19 107 -146 q 151 122 107 56 q 256 233 181 167 q 319 293 304 276 q 362 369 351 330 q 371 475 370 402 l 488 475 "},"Ђ":{"x_min":34,"x_max":1146,"ha":1143,"o":"m 34 994 l 827 994 l 827 877 l 497 877 l 497 567 q 795 635 668 635 q 1043 546 944 635 q 1146 305 1146 453 q 1060 75 1146 166 q 835 -17 972 -17 q 675 5 764 -17 l 696 116 q 804 92 748 92 q 956 148 901 92 q 1012 302 1012 205 q 941 470 1012 412 q 762 525 875 525 q 497 461 653 525 l 497 0 l 365 0 l 365 877 l 34 877 l 34 994 "},"º":{"x_min":31,"x_max":476,"ha":512,"o":"m 253 1011 q 421 935 360 1011 q 476 756 476 865 q 420 577 476 647 q 254 502 360 502 q 86 575 147 502 q 31 753 31 643 q 85 934 31 864 q 253 1011 145 1011 m 253 921 q 131 756 131 921 q 253 592 131 592 q 376 759 376 592 q 253 921 376 921 "},"∞":{"x_min":104,"x_max":888,"ha":925,"o":"m 466 550 q 578 668 537 639 q 692 708 633 708 q 837 644 784 708 q 888 490 888 583 q 793 290 888 345 q 692 263 744 263 q 578 301 631 263 q 466 420 538 330 q 270 305 374 305 q 150 359 198 305 q 104 486 104 412 q 151 613 104 559 q 270 667 198 667 q 466 550 374 667 m 514 485 q 621 360 572 394 q 691 338 653 338 q 783 382 750 338 q 813 483 813 422 q 783 586 813 546 q 688 631 749 631 q 626 612 655 631 q 514 485 587 586 m 420 485 q 270 592 334 592 q 202 560 227 592 q 179 487 179 532 q 203 413 179 443 q 272 382 229 382 q 420 485 340 382 "},"я":{"x_min":-3.390625,"x_max":870.84375,"ha":864,"o":"m 550 514 l 456 636 q 598 827 465 636 q 735 1029 722 1006 q 870 939 806 984 q 707 725 789 832 q 550 514 548 516 m 427 370 q 351 252 354 278 q 370 162 343 189 q 424 137 396 137 q 493 173 463 137 q 515 249 515 213 q 483 335 515 289 q -3 938 297 596 q 59 986 1 941 q 120 1030 114 1030 q 120 1029 120 1030 q 291 818 206 923 q 583 442 496 564 q 653 241 653 347 q 601 74 653 146 q 437 8 554 8 q 316 35 366 8 q 205 200 205 97 q 343 478 205 301 l 427 370 m 110 1098 l 110 1233 l 765 1233 l 765 1098 l 110 1098 "},"Ё":{"x_min":53.578125,"x_max":1007.15625,"ha":1036,"o":"m 722 1241 q 809 1206 773 1241 q 845 1119 845 1170 q 809 1033 845 1069 q 722 997 773 997 q 636 1033 672 997 q 600 1119 600 1069 q 636 1206 600 1170 q 722 1241 672 1241 m 319 1241 q 405 1206 370 1241 q 441 1119 441 1170 q 405 1033 441 1069 q 319 997 370 997 q 233 1033 269 997 q 197 1119 197 1069 q 233 1206 197 1170 q 319 1241 269 1241 m 209 489 q 296 255 209 351 q 530 155 387 155 q 761 253 669 155 q 850 489 850 349 q 760 721 850 633 q 530 809 670 809 q 299 717 389 809 q 209 489 209 624 m 530 0 q 193 144 333 0 q 53 489 53 290 q 192 826 53 687 q 530 966 332 966 q 867 826 727 966 q 1007 489 1007 687 q 866 144 1007 290 q 530 0 726 0 "},"φ":{"x_min":48.828125,"x_max":852.53125,"ha":887,"o":"m 338 734 l 314 628 q 174 383 174 581 q 229 194 174 272 q 394 89 288 112 l 394 537 q 401 633 394 604 q 451 712 413 685 q 550 736 487 736 q 810 573 729 736 q 852 390 852 488 q 711 77 852 206 q 515 -16 636 8 l 515 -276 l 394 -276 l 394 -16 q 144 109 246 -16 q 48 377 48 227 q 122 619 48 516 q 330 734 203 734 l 338 734 m 515 94 q 674 208 617 113 q 724 402 724 291 q 695 550 724 486 q 584 635 658 635 q 522 588 537 635 q 515 501 515 564 l 515 94 "},";":{"x_min":115,"x_max":262,"ha":289,"o":"m 123 581 l 123 720 l 262 720 l 262 581 l 123 581 m 123 0 l 123 139 l 262 139 l 262 0 q 148 -197 262 -147 l 115 -144 q 192 0 188 -112 l 123 0 "},"Г":{"x_min":71.890625,"x_max":1211.3125,"ha":1292,"o":"m 642 478 q 578 505 604 478 q 552 568 552 531 q 578 631 552 605 q 642 657 604 657 q 705 631 679 657 q 731 568 731 605 q 705 505 731 531 q 642 478 679 478 m 642 520 q 677 534 663 520 q 691 567 691 548 q 676 600 691 587 q 642 614 662 614 q 610 600 623 614 q 596 567 596 587 q 610 534 596 548 q 642 520 623 520 m 685 0 l 395 0 l 395 79 l 600 79 l 600 480 l 685 480 l 685 0 m 71 524 l 71 813 l 152 813 l 152 609 l 554 609 l 554 524 l 71 524 m 1211 612 l 1211 322 l 1131 322 l 1131 527 l 729 527 l 729 612 l 1211 612 m 601 1131 l 891 1131 l 891 1051 l 686 1051 l 686 649 l 601 649 l 601 1131 "},"6":{"x_min":59.6875,"x_max":678.21875,"ha":692,"o":"m 531 771 q 359 881 480 879 q 213 722 259 883 q 182 473 182 614 q 227 529 182 490 q 371 579 288 579 q 631 449 551 579 q 678 297 678 373 q 643 139 678 202 q 359 -2 569 0 l 352 -2 q 59 525 59 -2 q 135 875 59 748 q 336 1003 210 1003 q 359 1002 347 1003 q 549 931 470 992 q 640 824 607 887 q 661 765 668 772 l 531 771 m 385 459 q 262 409 314 459 q 211 288 211 359 q 262 168 211 218 q 385 118 314 118 q 509 168 458 118 q 560 288 560 218 q 509 409 560 359 q 385 459 458 459 "},"Ь":{"x_min":49,"x_max":780,"ha":781,"o":"m 49 1109 q 375 619 335 964 q 174 483 267 592 q 185 651 185 571 q 49 1109 185 930 m 464 598 q 687 503 592 598 q 780 299 780 411 q 693 88 780 176 q 464 -3 602 -3 q 231 86 317 -3 q 150 299 150 170 q 242 503 150 411 q 464 598 337 598 m 464 471 q 346 415 394 471 q 301 299 301 364 q 346 186 301 235 q 464 135 394 135 q 583 186 535 135 q 629 299 629 235 q 583 415 629 364 q 464 471 535 471 "},"ϊ":{"x_min":-31,"x_max":349,"ha":364,"o":"m 93 0 l 93 720 l 216 720 l 216 0 l 93 0 m -31 861 l -31 1000 l 97 1000 l 97 861 l -31 861 m 221 861 l 221 1000 l 349 1000 l 349 861 l 221 861 "},"n":{"x_min":43.40625,"x_max":1085.828125,"ha":1085,"o":"m 43 78 l 250 443 l 400 386 l 195 -2 l 43 78 m 316 619 q 324 651 314 620 q 335 707 335 687 q 334 720 335 714 q 319 782 320 781 q 261 825 303 819 q 215 804 236 828 q 199 768 200 785 q 215 699 198 746 q 271 616 237 639 q 350 577 318 585 q 539 560 403 564 q 908 391 800 553 q 967 212 944 335 q 970 179 970 198 q 784 -2 970 -1 l 781 -2 q 604 78 677 -2 q 534 263 534 157 q 555 378 534 317 l 711 347 q 697 279 697 312 q 724 193 697 228 q 784 156 751 158 q 826 204 826 154 q 818 244 826 223 q 727 356 786 324 q 589 385 687 375 q 401 417 468 399 q 114 557 185 476 q 54 768 56 623 q 92 899 53 840 q 242 975 145 975 q 474 716 474 975 q 457 585 474 680 l 316 619 m 630 589 l 792 530 l 1017 949 l 881 1042 l 630 589 m 651 891 l 724 1017 l 838 952 l 765 826 l 651 891 m 900 743 l 972 869 l 1085 803 l 1013 678 l 900 743 "},"¤":{"x_min":50.28125,"x_max":716.71875,"ha":754,"o":"m 143 651 l 50 744 l 128 825 l 222 730 q 383 779 294 779 q 543 730 472 779 l 638 825 l 716 744 l 622 651 q 671 492 671 577 q 622 332 671 407 l 716 240 l 638 159 l 543 254 q 383 205 472 205 q 222 254 294 205 l 128 159 l 50 239 l 144 332 q 96 492 96 406 q 143 651 96 576 m 207 492 q 258 367 207 419 q 382 316 309 316 q 506 367 455 316 q 558 492 558 419 q 506 616 558 565 q 382 668 455 668 q 258 616 309 668 q 207 492 207 565 "},"∂":{"x_min":39,"x_max":660.921875,"ha":709,"o":"m 289 771 l 198 812 q 442 1011 287 1011 q 598 922 545 1011 q 660 627 660 819 q 614 315 660 458 q 443 55 557 138 q 247 -17 344 -17 q 91 51 146 -17 q 39 218 39 115 q 142 480 39 371 q 582 626 276 620 q 573 766 580 719 q 520 892 559 853 q 443 924 487 924 q 289 771 346 924 m 580 539 q 370 506 440 531 q 212 374 268 469 q 162 205 162 290 q 193 116 162 153 q 277 76 226 76 q 385 113 327 76 q 580 539 547 219 "},"κ":{"x_min":91,"x_max":693.75,"ha":703,"o":"m 91 720 l 212 720 l 212 437 l 504 720 l 665 720 l 343 421 l 693 0 l 537 0 l 256 339 l 212 298 l 212 0 l 91 0 l 91 720 "},"p":{"x_min":69.859375,"x_max":845.0625,"ha":884,"o":"m 69 1018 l 238 1017 l 238 160 l 680 159 l 680 1017 l 845 1017 l 845 0 l 69 0 l 69 1018 m 449 748 q 595 688 535 748 q 655 543 655 628 q 595 399 655 459 q 449 339 535 339 q 304 399 364 339 q 244 543 244 459 q 304 688 244 628 q 449 748 364 748 m 448 649 q 372 618 403 649 q 340 541 340 586 q 372 464 340 496 q 448 433 403 433 q 525 464 493 433 q 557 541 557 496 q 525 618 557 586 q 448 649 494 649 "},"‡":{"x_min":71.890625,"x_max":739.9375,"ha":813,"o":"m 344 2 l 344 253 l 71 253 l 71 362 l 344 362 l 344 854 l 71 854 l 71 963 l 344 963 l 344 1218 l 466 1218 l 466 963 l 739 963 l 739 854 l 466 854 l 466 362 l 739 362 l 739 253 l 466 253 l 466 2 l 344 2 "},"√":{"x_min":57,"x_max":762.359375,"ha":731,"o":"m 711 1268 l 762 1268 l 550 -53 l 214 639 l 80 577 l 57 621 l 261 724 l 535 166 l 711 1268 "},"Ю":{"x_min":78.671875,"x_max":1113.640625,"ha":1197,"o":"m 173 1613 q 274 1532 231 1572 l 271 1530 l 274 1528 l 274 1525 q 232 1352 249 1452 q 198 1112 215 1300 l 198 1088 q 237 815 198 921 q 310 690 249 769 l 359 653 l 386 644 l 430 661 q 522 531 477 579 l 522 529 q 464 482 514 514 q 405 473 450 477 l 396 473 q 259 524 333 473 q 137 705 184 594 q 86 922 116 741 q 78 992 78 950 l 78 1020 q 159 1596 78 1384 q 173 1613 164 1613 m 1015 1610 l 1023 1610 q 1047 1532 1036 1593 q 1087 1371 1072 1470 q 1106 1239 1099 1321 l 1104 1239 l 1106 1237 l 1106 1215 l 1113 1137 l 1113 1007 l 1111 1005 l 1113 1003 l 1113 1000 q 1106 910 1108 985 q 1013 624 1079 737 q 857 482 952 523 q 811 473 826 473 l 779 473 q 704 492 756 473 l 704 490 q 864 199 761 364 q 889 162 869 199 l 923 111 l 923 99 q 845 31 914 86 q 826 9 845 24 l 815 9 q 769 89 797 26 q 747 141 760 98 l 661 299 q 620 363 646 311 q 608 389 608 381 l 720 602 q 745 649 731 615 l 747 651 l 752 651 l 808 644 q 906 717 861 659 q 945 792 921 728 q 984 942 984 891 q 994 1051 994 997 q 935 1469 994 1213 l 918 1525 l 918 1537 q 1015 1610 936 1558 m 600 1073 l 608 1073 q 737 968 686 1073 q 759 846 759 906 q 600 414 759 694 q 466 155 564 356 l 403 6 l 393 -5 l 386 -5 l 303 72 l 301 82 q 383 253 301 92 l 420 319 q 606 690 536 528 l 623 722 l 620 724 l 620 727 q 644 839 630 727 q 594 931 640 931 q 557 900 575 931 q 539 839 539 856 q 581 687 541 794 l 588 680 q 525 543 535 559 q 469 641 485 584 q 444 800 444 722 l 444 822 q 498 1015 444 928 q 600 1073 551 1073 "},"S":{"x_min":67.828125,"x_max":870.15625,"ha":950,"o":"m 626 1048 l 773 1048 l 777 1043 l 777 930 l 865 930 l 870 925 l 870 828 l 865 823 l 777 823 l 777 526 q 642 345 777 437 q 520 303 604 322 l 445 292 l 413 292 q 248 327 333 292 l 248 480 l 250 482 l 250 484 q 376 452 330 452 l 432 447 q 571 487 518 457 q 621 582 621 518 l 621 823 l 529 823 l 524 828 l 524 923 l 529 927 l 621 927 l 621 1043 l 626 1048 m 72 1046 l 216 1046 l 221 1041 l 221 749 l 155 710 q 86 615 88 649 l 72 566 l 67 566 l 67 1041 l 72 1046 m 415 758 q 603 719 516 758 l 603 556 l 598 552 q 554 582 580 577 q 417 603 519 603 q 320 589 343 598 l 320 591 q 239 540 255 569 q 223 424 223 524 l 223 4 l 218 0 l 72 0 l 67 4 l 67 463 q 130 651 67 594 q 265 735 171 707 q 415 758 324 758 m 773 478 l 777 478 l 777 4 l 773 0 l 626 0 l 621 4 l 621 313 l 689 352 q 773 475 752 398 l 773 478 "},"ο":{"x_min":46,"x_max":542.453125,"ha":759,"o":"m 293 250 q 118 322 190 250 q 46 497 46 395 q 118 673 46 601 q 293 746 191 746 q 469 673 397 746 q 542 497 542 601 q 470 322 542 395 q 293 250 398 250 m 292 370 q 386 408 347 370 q 424 501 424 446 q 385 593 424 555 q 292 632 347 632 q 199 593 237 632 q 161 501 161 555 q 199 408 161 446 q 292 370 237 370 "},"/":{"x_min":114.625,"x_max":341.140625,"ha":465,"o":"m 316 950 l 316 2 l 139 2 l 139 950 l 316 950 m 114 1118 q 147 1198 114 1165 q 227 1232 180 1232 q 307 1198 274 1232 q 341 1118 341 1165 q 307 1038 341 1071 q 227 1005 274 1005 q 147 1038 180 1005 q 114 1118 114 1072 "},"Τ":{"x_min":32.828125,"x_max":516.390625,"ha":806,"o":"m 428 328 l 428 562 l 321 562 l 322 0 l 232 0 l 232 562 l 120 562 l 120 328 l 32 328 l 32 656 l 515 656 l 516 328 l 428 328 m 236 657 l 236 1122 l 319 1122 l 319 657 l 236 657 m 282 1252 q 321 1231 300 1252 q 330 1207 330 1214 l 330 1193 q 304 1155 325 1167 q 274 1148 290 1148 q 226 1184 242 1148 l 224 1196 q 270 1252 224 1241 l 282 1252 "},"ђ":{"x_min":59,"x_max":933.234375,"ha":937,"o":"m 613 505 l 518 627 q 661 818 528 627 q 798 1020 785 997 q 933 930 868 975 q 769 716 851 823 q 613 505 610 507 m 490 362 q 413 244 416 269 q 433 153 406 181 q 486 128 458 128 q 555 164 525 128 q 577 240 577 204 q 545 326 577 280 q 59 929 360 587 q 122 978 63 932 q 182 1021 177 1021 q 183 1020 183 1021 q 354 809 268 914 q 646 434 558 555 q 715 232 715 338 q 663 65 715 137 q 499 0 616 0 q 379 26 428 0 q 267 191 267 88 q 406 470 267 292 l 490 362 "},"y":{"x_min":63.078125,"x_max":1734.21875,"ha":1796,"o":"m 1574 413 q 1547 500 1574 463 q 1427 552 1509 552 q 1326 514 1369 552 q 1280 413 1280 475 q 1427 274 1280 274 q 1574 413 1574 274 m 1121 413 q 1213 617 1121 530 q 1427 704 1304 704 q 1643 617 1551 704 q 1734 413 1734 530 q 1643 208 1734 295 q 1427 122 1551 122 q 1213 208 1304 122 q 1121 413 1121 295 m 516 412 q 489 499 516 463 q 368 551 450 551 q 267 514 310 551 q 221 412 221 474 q 368 273 221 273 q 516 412 516 273 m 63 412 q 154 616 63 529 q 368 703 245 703 q 583 616 493 703 q 674 412 674 529 q 583 208 674 295 q 368 122 493 122 q 154 208 245 122 q 63 412 63 295 m 613 13 q 685 263 685 71 q 655 497 685 364 q 626 746 626 631 q 703 935 626 855 q 889 1016 781 1016 q 1057 972 982 1016 q 1190 714 1185 896 q 1120 504 1193 581 q 990 430 1070 451 q 940 419 950 419 q 826 467 873 423 l 802 657 q 925 564 862 564 q 1049 714 1049 564 q 995 837 1049 790 q 902 876 951 876 q 817 833 860 876 q 770 731 773 787 q 787 548 769 693 q 805 350 806 398 q 613 13 802 129 "},"≈":{"x_min":35,"x_max":728.8125,"ha":773,"o":"m 35 502 l 35 640 q 223 721 106 721 q 436 661 300 721 q 553 630 510 630 q 728 723 644 630 l 728 579 q 540 502 646 502 q 346 557 467 502 q 212 593 265 593 q 35 502 130 593 m 35 255 l 35 393 q 223 475 106 475 q 436 415 298 475 q 553 383 511 383 q 728 477 644 383 l 728 332 q 540 255 646 255 q 346 310 469 255 q 212 347 265 347 q 35 255 130 347 "},"Π":{"x_min":111,"x_max":891,"ha":935,"o":"m 111 0 l 111 994 l 891 994 l 891 0 l 759 0 l 759 877 l 243 877 l 243 0 l 111 0 "},"g":{"x_min":65.78125,"x_max":786.0625,"ha":847,"o":"m 370 -4 l 65 744 l 238 651 l 376 279 q 423 159 400 218 q 465 263 452 218 l 613 651 l 786 744 l 476 -4 l 370 -4 m 427 542 q 116 642 197 542 q 75 767 75 691 q 162 933 75 876 q 427 991 252 991 q 737 892 657 991 q 779 767 779 843 q 427 542 779 542 m 427 629 q 602 647 541 629 q 709 767 709 679 q 427 904 709 904 q 252 886 313 904 q 145 766 145 854 q 195 673 145 707 q 427 629 257 629 "},"²":{"x_min":18,"x_max":440.53125,"ha":477,"o":"m 18 497 q 190 703 27 585 q 306 794 288 774 q 332 851 332 822 q 238 926 332 926 q 170 909 192 926 q 134 849 148 892 l 32 859 q 239 1006 70 1006 q 372 977 319 1006 q 438 868 438 941 q 397 760 438 810 q 258 644 369 724 q 178 579 204 605 l 440 579 l 440 497 l 18 497 "},"–":{"x_min":-1,"x_max":771.5,"ha":813,"o":"m -1 311 l -1 409 l 771 409 l 771 311 l -1 311 "},"ë":{"x_min":58.328125,"x_max":576.484375,"ha":587,"o":"m 187 1024 q 255 996 227 1024 q 283 929 283 968 q 255 862 283 889 q 187 834 227 834 q 119 862 147 834 q 90 929 90 889 q 119 996 90 968 q 187 1024 147 1024 m 461 1024 q 530 996 501 1024 q 558 929 558 968 q 530 862 558 889 q 461 834 501 834 q 393 862 421 834 q 365 929 365 889 q 393 996 365 968 q 461 1024 421 1024 m 575 653 l 204 653 l 204 450 l 575 450 l 575 311 l 204 311 l 204 126 l 575 126 l 575 -2 l 58 -2 l 59 778 l 576 778 l 575 653 "},"ƒ":{"x_min":31,"x_max":735.671875,"ha":734,"o":"m 31 -274 l 54 -169 q 158 -184 123 -184 q 223 -154 203 -184 q 245 -81 236 -134 l 365 625 l 228 625 l 244 720 l 381 720 l 397 810 q 427 922 411 890 q 589 1012 473 1012 q 735 986 644 1012 l 711 882 q 607 899 642 899 q 540 867 560 899 q 518 790 529 847 l 505 720 l 644 720 l 627 625 l 489 625 l 359 -115 q 308 -244 343 -204 q 182 -292 266 -292 q 31 -274 119 -292 "},"б":{"x_min":23.0625,"x_max":566.3125,"ha":594,"o":"m 113 322 l 232 322 l 232 213 q 338 118 245 127 q 455 239 454 123 q 415 309 450 284 q 337 333 383 333 l 23 333 l 23 451 l 341 451 q 494 394 432 451 q 565 240 558 335 q 566 223 566 231 q 505 75 566 144 q 338 -2 435 -2 q 180 65 246 -2 q 115 214 116 131 l 113 322 m 113 734 l 526 734 l 526 617 l 233 617 l 233 461 q 113 461 155 462 l 113 734 "},"у":{"x_min":54.265625,"x_max":676.859375,"ha":724,"o":"m 448 375 l 381 464 q 482 606 388 464 q 580 755 571 738 q 676 688 630 721 q 560 530 618 609 q 448 375 447 376 m 361 268 q 306 181 308 200 q 320 115 301 134 q 358 95 339 95 q 407 122 385 95 q 423 178 423 152 q 400 241 423 208 q 54 688 268 434 q 102 726 57 689 q 142 755 122 741 q 264 599 203 677 q 472 321 410 411 q 521 172 521 250 q 484 49 521 102 q 368 0 451 0 q 282 20 318 0 q 208 141 208 63 q 301 348 208 233 l 361 268 "},"J":{"x_min":86.8125,"x_max":339.109375,"ha":475,"o":"m 308 857 l 308 46 l 126 46 l 126 857 l 308 857 m 212 -270 q 123 -233 160 -270 q 86 -146 86 -197 q 123 -57 86 -94 q 212 -21 160 -21 q 302 -57 265 -21 q 339 -146 339 -94 q 302 -233 339 -197 q 212 -270 265 -270 m 212 -240 q 277 -213 250 -240 q 304 -149 304 -187 q 277 -86 304 -112 q 212 -59 250 -59 q 147 -86 174 -59 q 121 -149 121 -112 q 147 -213 121 -187 q 212 -240 174 -240 "},"Ј":{"x_min":39.8125,"x_max":292.109375,"ha":640,"o":"m 261 857 l 261 46 l 79 46 l 79 857 l 261 857 m 165 -270 q 76 -233 113 -270 q 39 -146 39 -197 q 76 -57 39 -94 q 165 -21 113 -21 q 255 -57 218 -21 q 292 -146 292 -94 q 255 -233 292 -197 q 165 -270 218 -270 m 165 -240 q 230 -213 203 -240 q 257 -149 257 -187 q 230 -86 257 -112 q 165 -59 203 -59 q 100 -86 127 -59 q 74 -149 74 -112 q 100 -213 74 -187 q 165 -240 127 -240 "},"‐":{"x_min":71.21875,"x_max":1838.65625,"ha":1909,"o":"m 912 1503 l 982 1503 l 992 1494 l 992 1385 l 1080 1385 l 1090 1376 l 1090 1311 l 1080 1302 l 992 1302 l 992 1188 l 1277 1188 l 1287 1178 l 1287 1110 l 1277 1100 l 996 1100 l 996 864 q 1100 770 996 854 l 1105 765 l 1105 760 q 1075 706 1090 706 l 992 770 l 992 592 q 1105 661 1022 592 l 1115 651 q 1006 533 1052 533 l 1001 529 l 996 529 l 996 371 l 986 361 l 923 361 l 912 371 l 912 533 q 799 627 872 533 l 779 666 l 785 671 l 790 671 q 908 597 872 597 l 908 819 l 775 947 l 775 956 l 814 996 l 908 917 l 908 1100 l 617 1100 l 607 1110 l 607 1178 l 617 1188 l 903 1188 l 903 1302 l 809 1302 l 799 1311 l 799 1376 l 809 1385 l 903 1385 l 903 1494 l 912 1503 m 81 976 l 533 976 q 588 883 547 970 q 726 750 674 782 q 952 130 839 464 l 957 130 q 1208 750 986 228 q 1341 883 1308 799 q 1385 976 1371 976 l 1829 976 l 1838 967 l 1838 917 l 1829 908 l 1435 908 l 1607 411 l 1602 405 l 1597 405 l 1218 597 l 1154 444 q 952 2 965 12 q 853 223 931 2 l 676 647 l 672 647 q 341 464 492 556 q 219 400 338 455 l 214 405 l 214 411 q 494 903 309 594 l 494 912 l 81 912 l 71 923 l 71 967 l 81 976 m 539 853 q 332 518 437 674 l 661 720 q 543 849 596 759 l 543 853 l 539 853 m 1385 853 q 1306 730 1382 810 q 1243 657 1243 710 q 1513 499 1252 642 l 1513 504 q 1385 853 1397 852 "},"˘":{"x_min":32,"x_max":432.828125,"ha":467,"o":"m 349 993 l 432 993 q 232 817 411 817 q 32 993 53 817 l 115 993 q 228 901 134 901 q 349 993 331 901 "},"ώ":{"x_min":59.4375,"x_max":1062,"ha":1041,"o":"m 202 720 l 320 720 q 219 343 219 497 q 250 176 219 249 q 373 80 291 80 q 457 115 418 80 q 505 195 493 149 q 518 328 518 242 l 518 539 l 639 539 l 639 328 q 702 113 639 168 q 784 80 740 80 q 907 177 865 80 q 938 343 938 249 q 836 720 938 497 l 954 720 q 1062 350 1062 529 q 1005 104 1062 202 q 798 -16 935 -16 q 578 146 644 -16 q 358 -16 512 -16 q 152 104 221 -16 q 95 350 95 202 q 202 720 95 529 m 113 1090 l 59 1090 l 107 1258 l 206 1258 l 113 1090 "},"≥":{"x_min":52,"x_max":710.5625,"ha":707,"o":"m 710 516 l 52 235 l 52 357 l 573 573 l 52 787 l 52 909 l 710 630 l 710 516 m 709 72 l 52 72 l 52 185 l 709 185 l 709 72 "},"D":{"x_min":44.765625,"x_max":1268.28125,"ha":1356,"o":"m 367 494 l 462 377 q 319 193 453 377 q 181 0 194 22 q 44 86 109 42 q 210 292 127 189 q 367 494 370 493 m 491 632 q 569 745 566 720 q 550 831 576 806 q 494 857 523 857 q 426 822 456 857 q 403 749 403 784 q 435 667 403 710 q 769 314 651 433 q 777 135 746 223 q 914 0 813 42 l 813 0 q 334 562 510 339 q 264 756 264 655 q 316 916 264 848 q 482 980 364 980 q 603 954 553 980 q 715 797 715 895 q 576 528 715 699 l 491 632 m 1023 467 q 1197 393 1122 467 q 1268 235 1268 322 q 1201 71 1268 139 q 1023 0 1130 0 q 842 69 908 0 q 778 235 778 134 q 850 393 778 322 q 1023 467 925 467 m 1023 368 q 931 325 968 368 q 895 235 895 286 q 931 147 895 185 q 1023 107 968 107 q 1116 147 1078 107 q 1151 235 1151 185 q 1116 325 1151 286 q 1023 368 1078 368 "},"ł":{"x_min":2,"x_max":304,"ha":334,"o":"m 91 388 l 2 314 l 2 422 l 91 496 l 91 994 l 212 994 l 212 599 l 304 677 l 304 570 l 212 492 l 212 0 l 91 0 l 91 388 "},"ц":{"x_min":0,"x_max":1882.75,"ha":1905,"o":"m 1279 438 l 1279 546 l 773 546 l 731 436 l 1279 438 m 944 -33 l 947 -33 q 1067 4 970 -33 q 1300 153 1210 61 q 1429 467 1427 284 q 1302 820 1430 675 q 1063 986 1211 923 q 934 1030 935 1041 q 1280 513 1280 765 q 1277 464 1280 489 q 1214 218 1256 305 q 1107 83 1178 142 q 944 -33 1104 80 m 1882 512 l 1882 1018 l 1136 1018 l 1139 951 l 1269 866 l 1272 873 l 1444 873 l 1444 5 l 1583 5 l 1585 873 l 1747 873 l 1747 512 l 1882 512 m 405 0 l 0 999 l 171 999 l 413 379 q 477 218 446 297 q 532 356 515 297 l 785 999 l 960 999 l 547 0 l 405 0 m 50 1098 l 50 1220 l 886 1220 l 886 1098 l 50 1098 m 564 433 l 604 541 l 447 541 l 447 433 l 564 433 "},"Л":{"x_min":84.09375,"x_max":1405.28125,"ha":1489,"o":"m 744 -35 l 84 625 l 744 1285 l 1405 625 l 744 -35 m 759 71 l 1306 617 l 737 1187 l 191 640 l 759 71 "},"$":{"x_min":5.421875,"x_max":615.828125,"ha":610,"o":"m 70 1130 q 149 1056 101 1119 l 166 1020 l 215 1020 l 219 1017 l 219 954 l 215 950 l 189 950 q 227 712 227 798 l 227 691 q 178 675 227 687 q 155 665 177 673 q 70 609 90 633 q 37 560 38 578 l 34 560 l 34 950 l 8 950 l 5 954 l 5 1017 l 8 1020 l 107 1020 l 107 1022 l 94 1075 l 70 1127 l 70 1130 m 491 1019 l 612 1019 l 615 1015 l 615 492 q 514 373 615 431 q 323 330 425 330 q 160 360 240 330 l 160 492 l 164 492 q 238 458 174 474 q 324 449 284 449 q 487 494 439 449 l 487 1015 l 491 1019 m 324 689 q 484 659 404 689 l 484 535 l 480 535 q 323 573 427 573 q 157 524 204 573 l 157 0 l 153 -3 l 37 -3 l 34 0 l 34 528 q 162 659 34 600 q 324 689 246 689 m 612 465 l 615 465 l 615 0 l 612 -3 l 491 -3 l 487 0 l 487 350 l 535 374 q 612 465 595 413 "},"w":{"x_min":41.375,"x_max":1943.109375,"ha":1993,"o":"m 1233 231 q 1187 336 1233 298 q 1085 370 1147 370 q 990 337 1034 370 q 938 231 938 298 q 976 134 938 172 q 1085 92 1017 92 q 1192 129 1151 92 q 1233 231 1233 166 m 779 231 q 871 435 779 348 q 1085 521 962 521 q 1300 435 1209 521 q 1391 231 1391 348 q 1300 27 1391 113 q 1085 -59 1209 -59 q 871 27 962 -59 q 779 231 779 113 m 1233 632 q 1205 719 1233 682 q 1085 771 1167 771 q 984 733 1027 771 q 938 632 938 693 q 1085 493 938 493 q 1233 632 1233 493 m 779 632 q 871 835 779 749 q 1085 922 962 922 q 1300 835 1209 922 q 1391 632 1391 749 q 1300 427 1391 514 q 1085 341 1209 341 q 871 427 962 341 q 779 632 779 514 m 1784 436 q 1757 523 1784 486 q 1637 575 1718 575 q 1536 537 1578 575 q 1490 436 1490 498 q 1637 297 1490 297 q 1784 436 1784 297 m 1331 436 q 1422 640 1331 553 q 1637 727 1513 727 q 1852 640 1761 727 q 1943 436 1943 553 q 1852 231 1943 318 q 1637 145 1761 145 q 1422 231 1513 145 q 1331 436 1331 318 m 672 434 q 645 522 672 485 q 525 573 607 573 q 424 537 467 573 q 378 434 378 497 q 525 295 378 295 q 672 434 672 295 m 219 434 q 304 640 214 540 q 525 725 394 739 q 740 638 649 725 q 831 434 831 552 q 740 230 831 317 q 525 144 649 144 q 310 230 402 144 q 219 434 219 317 m 1351 737 q 1361 744 1386 663 l 1360 803 l 1363 918 l 1140 918 l 1142 1056 l 1522 1054 l 1521 708 q 1385 624 1454 706 l 1351 737 m 79 1254 q 283 1056 205 1185 l 442 1056 l 442 910 l 346 910 q 386 708 394 778 q 202 496 290 674 q 201 673 201 579 q 184 913 201 819 l 41 913 l 41 1053 l 175 1053 q 79 1254 149 1121 "},"∫":{"x_min":0,"x_max":379.8125,"ha":355,"o":"m 136 643 l 147 1003 q 181 1175 150 1100 q 294 1264 217 1264 q 352 1242 326 1264 q 379 1191 379 1221 q 362 1141 379 1162 q 317 1121 345 1121 q 265 1145 293 1121 q 238 1158 250 1158 q 211 1115 211 1158 q 217 1016 211 1084 q 242 565 242 736 q 232 167 242 535 q 170 -103 225 -34 q 80 -149 135 -149 q 22 -125 44 -149 q 0 -67 0 -102 q 61 0 0 0 q 107 -21 85 0 q 141 -43 130 -43 q 167 -2 167 -43 q 161 79 167 27 q 134 525 134 310 q 136 643 134 584 "},"\\":{"x_min":2.71875,"x_max":792.84375,"ha":785,"o":"m 303 1233 q 444 1174 368 1233 q 470 1138 470 1143 q 523 1034 512 1079 q 546 924 546 956 l 546 905 q 521 795 546 870 q 466 712 491 737 q 417 681 427 681 l 396 681 q 322 719 364 685 q 277 797 292 754 q 252 901 260 836 l 252 916 q 282 1043 252 982 q 313 1092 290 1051 l 328 1106 l 332 1106 q 396 1045 364 1086 l 396 1043 q 375 1005 388 1034 q 349 907 358 992 q 368 829 357 862 q 400 798 383 807 l 404 798 q 440 863 423 809 l 446 908 l 446 956 q 413 1047 440 994 q 284 1127 349 1127 q 218 1104 242 1121 q 172 1066 193 1094 q 107 857 107 981 l 105 831 l 105 807 q 153 643 105 723 l 174 609 q 263 475 212 541 l 332 382 q 368 333 339 368 l 398 291 l 440 227 l 440 234 q 377 331 440 249 q 400 359 388 352 l 442 416 q 514 511 485 478 l 535 539 q 569 585 554 569 l 635 666 q 685 788 685 754 q 694 871 694 835 q 673 986 694 897 q 601 1091 643 1054 q 542 1121 571 1121 l 501 1111 q 440 1193 482 1147 q 531 1230 440 1214 l 548 1230 q 657 1184 587 1228 q 741 1083 727 1118 q 779 967 767 1043 l 792 890 l 792 846 q 768 712 776 712 q 713 607 756 676 q 626 492 684 562 l 550 392 l 472 285 l 635 285 l 639 282 l 639 202 l 635 198 l 459 198 q 510 92 495 134 q 523 41 514 84 l 523 3 q 489 -77 514 -44 q 379 -132 463 -113 l 364 -132 q 231 -41 280 -132 q 218 28 218 -21 q 258 157 218 86 l 282 198 l 131 198 l 127 202 l 127 282 l 131 285 l 263 285 q 208 356 230 332 l 162 420 q 55 590 101 497 l 23 664 q 2 780 2 742 l 2 827 q 21 973 10 952 q 146 1184 66 1134 q 196 1210 162 1195 q 275 1233 196 1218 l 303 1233 m 301 223 l 301 208 l 362 127 q 320 25 320 67 l 320 11 q 368 -40 335 -40 l 373 -40 q 419 11 409 -40 l 419 27 q 394 93 406 80 q 301 223 358 159 "},"о":{"x_min":79.359375,"x_max":963.75,"ha":1025,"o":"m 963 569 q 960 524 960 556 l 959 524 l 960 522 l 960 520 q 918 391 940 421 q 720 218 848 271 l 672 202 q 599 129 646 147 l 594 129 q 531 181 570 137 l 526 188 l 526 197 l 562 227 q 585 285 585 255 q 558 316 577 316 l 554 316 q 511 261 522 316 l 510 241 l 511 240 l 511 238 l 510 236 q 553 146 510 174 q 657 111 580 111 l 678 111 q 780 140 756 126 l 804 86 l 815 51 q 737 16 815 44 l 672 7 l 666 10 l 655 10 l 648 7 q 520 42 562 17 l 481 67 l 443 105 l 420 146 q 403 199 416 146 l 406 201 l 402 236 q 416 299 408 290 q 478 385 430 348 q 549 417 502 404 q 621 402 621 411 q 655 375 643 394 q 687 315 677 356 l 697 315 l 743 341 q 752 350 743 345 q 800 398 779 373 q 867 577 867 489 l 865 588 l 867 589 q 831 718 855 677 q 779 788 813 754 q 694 850 739 830 q 653 864 694 855 q 621 918 636 903 q 596 945 621 926 q 562 964 588 956 l 562 967 q 589 975 562 973 l 607 973 l 621 975 q 744 938 699 964 q 854 855 800 911 q 915 765 901 807 q 956 642 940 728 q 962 571 962 603 l 963 570 l 963 569 m 691 310 l 689 310 l 687 301 l 691 267 q 684 234 687 234 l 684 231 l 687 227 q 701 276 697 227 q 691 310 693 310 m 652 794 q 596 672 633 706 q 511 630 547 630 l 492 630 q 407 672 444 635 q 379 716 382 697 l 377 718 l 373 718 q 282 665 331 707 q 190 436 190 577 q 227 292 190 372 q 318 208 273 233 q 377 177 347 187 l 394 177 l 400 173 l 397 167 q 452 80 408 120 l 454 78 l 454 71 q 434 65 454 65 q 237 126 335 65 q 138 228 178 174 q 118 263 132 233 q 96 316 110 276 l 99 322 q 80 415 89 335 l 83 415 l 80 417 l 80 435 l 79 448 q 109 584 88 537 q 158 668 141 648 l 183 700 q 269 773 217 737 q 341 809 269 779 q 368 816 348 813 q 397 878 373 851 q 419 895 411 893 l 421 895 q 510 845 457 895 q 495 826 510 832 l 481 800 q 475 769 475 783 q 506 735 480 735 l 508 735 q 540 779 540 746 l 540 800 q 459 895 512 870 q 409 910 437 910 l 407 908 l 398 910 l 392 910 l 384 908 l 383 910 l 380 910 l 373 908 l 371 910 l 370 910 q 295 890 341 906 l 290 887 l 280 887 q 253 958 277 887 l 246 985 q 398 1015 332 1015 l 409 1015 q 517 985 478 1007 q 601 921 538 980 q 652 794 652 852 m 371 741 l 373 741 l 366 779 l 368 779 l 366 781 l 368 803 l 368 807 l 364 807 l 364 809 q 352 794 352 804 q 364 723 352 761 q 375 729 373 723 l 371 741 "},"Д":{"x_min":67.828125,"x_max":1110.921875,"ha":1219,"o":"m 179 416 l 179 261 l 67 261 l 67 539 l 354 539 q 392 473 362 507 q 474 416 427 430 l 179 416 m 592 411 q 421 478 492 411 q 350 642 350 545 q 421 805 350 737 q 592 873 492 873 q 763 805 692 873 q 833 642 833 737 q 763 478 833 545 q 592 411 692 411 m 715 642 q 585 759 715 759 q 506 731 539 759 q 469 642 469 698 q 592 524 469 524 q 715 642 715 524 m 352 1039 l 198 1039 l 198 1150 l 476 1150 l 476 863 q 409 826 444 855 q 352 744 366 790 l 352 1039 m 828 245 l 983 245 l 983 134 l 705 134 l 705 421 q 771 458 737 429 q 828 540 814 493 l 828 245 m 999 878 l 999 1032 l 1110 1032 l 1110 754 l 824 754 q 786 821 815 786 q 704 878 751 864 l 999 878 "},"ъ":{"x_min":65.78125,"x_max":701.28125,"ha":713,"o":"m 220 625 l 65 625 l 65 736 l 343 736 l 343 449 q 277 412 311 441 q 220 330 234 377 l 220 625 m 459 -2 q 289 64 360 -2 q 218 228 218 132 q 289 392 218 324 q 459 459 360 459 q 630 392 560 459 q 701 228 701 324 q 630 64 701 132 q 459 -2 560 -2 m 583 228 q 453 345 583 345 q 374 317 406 345 q 337 228 337 284 q 459 110 337 110 q 583 228 583 110 "},"ς":{"x_min":58,"x_max":654.828125,"ha":639,"o":"m 654 713 l 626 611 q 474 636 550 636 q 263 557 348 636 q 177 353 177 477 q 239 194 177 252 q 397 118 290 146 q 509 83 477 97 q 599 10 572 55 q 623 -79 623 -28 q 538 -239 623 -180 q 359 -292 464 -292 q 256 -282 314 -292 l 286 -170 q 355 -179 325 -179 q 446 -157 408 -179 q 495 -82 495 -131 q 445 -13 495 -37 q 355 10 423 -3 q 143 115 220 39 q 58 331 58 200 q 185 626 58 512 q 490 737 307 737 q 654 713 573 737 "},"C":{"x_min":69.171875,"x_max":854.5625,"ha":909,"o":"m 847 73 l 739 0 q 689 63 727 9 q 583 212 606 169 l 581 212 l 581 141 l 576 137 l 497 137 l 497 45 l 493 40 l 420 40 l 416 45 l 416 137 l 330 137 l 326 141 l 326 210 l 163 5 l 69 100 l 69 104 q 368 480 235 307 l 372 480 q 444 370 378 477 l 444 366 q 387 288 444 357 q 333 221 362 250 l 416 221 l 416 315 l 420 320 l 495 320 l 499 315 l 499 219 l 576 219 q 499 324 556 236 q 387 482 446 389 q 330 563 330 554 q 290 644 306 594 q 278 733 278 707 l 278 741 q 297 851 284 820 q 315 884 301 851 q 409 961 365 950 q 464 976 438 976 l 475 976 q 673 750 622 976 l 677 713 l 677 687 q 671 658 671 677 q 660 614 662 642 q 596 513 629 537 q 559 491 570 491 l 556 491 q 464 614 493 581 q 475 618 464 618 q 519 673 492 618 l 524 704 l 524 735 q 478 820 524 801 l 475 820 q 418 728 436 820 q 537 504 418 647 l 809 130 q 847 73 847 83 m 758 1220 q 845 1167 813 1220 l 854 1127 q 836 1068 854 1103 q 806 1038 818 1045 q 784 1020 806 1033 q 746 1003 751 1003 l 742 1003 q 708 1047 731 1015 q 787 1127 787 1085 q 746 1152 789 1152 q 678 1122 706 1152 l 650 1152 q 638 1183 659 1144 q 758 1220 700 1220 "},"!":{"x_min":111.90625,"x_max":338.4375,"ha":407,"o":"m 134 228 l 134 1258 l 311 1258 l 311 228 l 134 228 m 111 45 q 144 124 111 91 q 224 158 177 158 q 305 125 271 158 q 338 45 338 92 q 305 -34 338 -1 q 224 -67 271 -67 q 144 -34 177 -67 q 111 45 111 -1 "},"Й":{"x_min":48.15625,"x_max":581.234375,"ha":594,"o":"m 406 779 l 406 0 l 215 0 l 215 779 l 406 779 m 169 1020 q 252 988 217 1020 q 288 918 288 956 q 253 844 288 879 q 169 807 216 807 q 85 844 122 807 q 50 918 50 879 q 85 988 50 956 q 169 1020 121 1020 m 462 1020 q 545 988 510 1020 q 581 918 581 956 q 546 844 581 879 q 462 807 509 807 q 378 844 415 807 q 343 918 343 879 q 379 988 343 956 q 462 1020 414 1020 m 137 1250 q 227 1186 185 1219 q 306 1087 278 1146 q 415 1108 338 1112 q 482 1083 454 1106 q 516 1049 499 1066 q 385 1038 453 1062 q 320 958 329 1018 q 205 1068 299 991 q 115 1113 163 1102 q 48 1128 82 1121 l 137 1250 "},"X":{"x_min":73.25,"x_max":817.9375,"ha":876,"o":"m 170 913 q 344 846 246 913 q 433 729 426 762 q 496 581 496 606 q 565 636 505 581 l 737 781 l 739 783 l 741 783 q 817 685 817 699 q 758 640 801 677 q 724 609 754 640 l 522 436 q 570 217 545 261 q 650 93 585 175 q 774 25 701 40 q 811 17 811 23 l 811 12 q 754 0 811 4 l 737 0 q 522 130 634 15 q 442 253 461 205 q 409 338 420 320 l 286 227 l 155 121 l 147 121 l 75 206 l 75 210 l 368 464 q 383 486 383 475 l 383 488 q 357 657 383 541 q 238 853 312 800 q 151 887 175 887 l 125 887 l 82 881 l 73 893 q 170 913 84 913 "},"Б":{"x_min":56.296875,"x_max":814.546875,"ha":832,"o":"m 173 446 l 341 446 l 341 298 q 400 195 353 225 q 496 168 433 174 q 592 196 552 170 q 659 334 659 239 q 604 430 652 396 q 495 463 560 463 l 56 463 l 56 624 l 501 624 q 724 536 634 624 q 814 315 814 447 q 722 102 814 197 q 496 2 626 3 l 494 2 q 270 96 367 2 q 176 299 177 187 l 173 446 m 174 1018 l 759 1019 l 759 857 l 343 857 l 343 637 q 173 637 233 638 l 174 1018 "},"г":{"x_min":56,"x_max":502,"ha":496,"o":"m 56 741 l 502 741 l 502 617 l 187 617 l 187 -3 l 56 -3 l 56 741 "},"℠":{"x_min":86,"x_max":1074,"ha":1086,"o":"m 86 994 l 218 994 l 218 726 q 289 499 218 570 q 514 420 356 432 l 514 994 l 646 994 l 646 420 q 872 506 803 429 q 942 742 942 584 l 942 994 l 1074 994 l 1074 713 q 646 307 1074 313 l 646 0 l 514 0 l 514 307 q 86 701 86 314 l 86 994 "},"х":{"x_min":51.546875,"x_max":693.828125,"ha":688,"o":"m 693 -92 q 350 54 502 -94 q 198 394 198 203 q 284 647 198 530 l 360 511 q 335 387 335 451 q 436 130 335 259 q 693 -92 529 11 m 673 887 q 448 670 492 741 l 376 739 q 673 887 455 811 m 51 859 q 385 711 229 860 q 546 366 546 558 q 460 119 546 235 l 385 255 q 410 379 410 315 q 309 636 410 506 q 51 859 216 755 m 61 -121 q 286 95 242 24 l 358 21 q 61 -121 287 -44 "},"}":{"x_min":67.140625,"x_max":1274.375,"ha":1356,"o":"m 1149 0 l 1144 0 q 680 368 892 204 l 680 373 q 815 463 683 381 l 821 463 q 916 392 832 463 q 1000 324 964 361 l 1000 427 l 883 427 l 878 433 l 878 525 l 883 531 l 1003 531 l 1003 626 q 872 531 981 601 q 677 392 792 465 q 577 322 588 322 q 476 273 539 293 q 368 257 399 257 l 357 257 q 221 281 259 265 q 181 303 221 286 q 86 419 99 365 q 67 487 67 455 l 67 501 q 346 745 67 711 l 392 750 l 425 750 q 460 742 436 742 q 514 729 480 731 q 639 650 610 691 q 666 604 666 617 l 666 601 q 514 487 554 523 q 509 501 509 487 q 441 555 509 522 l 403 560 l 365 560 q 259 503 283 560 l 259 501 q 373 430 259 452 q 650 577 474 430 l 1111 913 q 1182 959 1170 959 l 1274 826 q 1195 764 1262 811 q 1011 634 1064 662 l 1011 631 l 1098 631 l 1103 626 l 1103 528 l 1217 528 l 1222 522 l 1222 433 l 1217 427 l 1103 427 l 1103 322 l 1098 316 l 1013 316 l 1266 115 l 1149 0 "},"ø":{"x_min":87,"x_max":762,"ha":803,"o":"m 622 677 l 689 764 l 755 716 l 682 623 q 740 517 725 563 q 762 359 762 451 q 647 60 762 155 q 423 -16 555 -16 q 233 37 316 -16 l 161 -54 l 97 -5 l 171 89 q 114 182 131 136 q 87 350 87 256 q 166 623 87 520 q 420 737 255 737 q 622 677 520 737 m 554 588 q 424 636 492 636 q 259 548 315 636 q 212 360 212 474 q 247 189 212 258 l 554 588 m 605 522 l 300 126 q 420 85 353 85 q 588 170 531 85 q 637 361 637 244 q 628 451 637 411 q 605 522 622 480 "},"‰":{"x_min":25,"x_max":1364,"ha":1333,"o":"m 216 -37 l 624 1011 l 712 1011 l 306 -37 l 216 -37 m 25 745 q 218 1003 25 1003 q 372 923 322 1003 q 414 747 414 857 q 220 480 414 480 q 25 745 25 480 m 125 739 q 222 565 125 565 q 314 741 314 565 q 220 919 314 919 q 125 739 125 919 m 517 227 q 710 486 517 486 q 864 406 814 486 q 907 230 907 340 q 712 -37 907 -37 q 517 227 517 -37 m 617 222 q 715 47 617 47 q 807 223 807 47 q 712 402 807 402 q 617 222 617 402 m 975 227 q 1168 486 975 486 q 1322 406 1272 486 q 1364 230 1364 340 q 1170 -37 1364 -37 q 975 227 975 -37 m 1075 222 q 1172 47 1075 47 q 1264 223 1264 47 q 1170 402 1264 402 q 1075 222 1075 402 "},"Ä":{"x_min":7.453125,"x_max":881.6875,"ha":882,"o":"m 561 502 l 467 623 q 609 815 476 623 q 746 1017 733 994 q 881 927 817 971 q 718 713 800 819 q 561 502 558 504 m 438 358 q 362 240 364 266 q 381 150 354 177 q 435 124 406 124 q 503 161 474 124 q 526 237 526 201 q 494 322 526 277 q 7 926 308 583 q 70 974 12 929 q 130 1018 125 1018 q 131 1017 131 1018 q 302 806 217 911 q 594 430 507 552 q 663 229 663 335 q 612 62 663 134 q 448 -4 564 -4 q 327 23 377 -4 q 216 187 216 85 q 354 466 216 288 l 438 358 "},"Ч":{"x_min":4.0625,"x_max":620.578125,"ha":618,"o":"m 4 1021 l 4 566 l 162 566 l 162 1021 l 4 1021 m 461 1017 l 461 4 l 620 4 l 620 1017 l 461 1017 m 4 459 l 590 459 l 590 615 l 4 615 l 4 459 m 48 1104 l 48 1243 l 554 1243 l 554 1104 l 48 1104 "},"—":{"x_min":1,"x_max":1390,"ha":1432,"o":"m 1 311 l 1 409 l 1390 409 l 1390 311 l 1 311 "},"N":{"x_min":103.09375,"x_max":886.4375,"ha":930,"o":"m 103 0 l 103 994 l 238 994 l 760 213 l 760 994 l 886 994 l 886 0 l 751 0 l 229 781 l 229 0 l 103 0 "},"⁄":{"x_min":-307.3125,"x_max":546.203125,"ha":508,"o":"m -307 -39 l 439 1011 l 546 1011 l -200 -39 l -307 -39 "},"2":{"x_min":-2.71875,"x_max":872.875,"ha":870,"o":"m 166 942 l 224 996 q 253 984 237 994 q 338 904 291 961 q 396 743 396 834 q 373 641 396 693 q 288 571 342 571 q 197 618 231 571 q 167 712 166 659 q 240 862 168 833 l 166 942 m 281 670 q 312 715 312 670 q 281 762 312 762 q 250 715 250 762 q 281 670 250 670 m 360 926 q 481 989 408 989 q 686 882 612 989 q 748 678 748 793 q 604 278 748 465 q 401 91 522 170 q 175 7 273 7 q 47 58 101 7 q -2 160 -2 105 q 46 260 -2 215 q 181 311 101 311 q 362 240 287 311 l 301 185 q 255 185 275 181 q 236 196 253 185 q 186 204 223 204 q 140 193 161 204 q 113 158 113 180 q 168 101 113 101 q 185 103 177 101 q 395 213 295 101 q 537 454 480 308 q 588 680 590 588 q 533 842 586 790 q 464 874 499 874 q 412 855 446 875 l 360 926 m 442 74 l 532 145 q 670 104 607 104 q 778 132 710 104 q 849 160 846 160 q 872 120 872 160 q 832 49 872 86 q 662 -5 773 -5 q 442 74 501 -5 "},"М":{"x_min":-0.671875,"x_max":790.125,"ha":788,"o":"m 0 1021 l 790 1021 l 790 3 l 636 3 l 636 884 l 149 884 l 146 0 l 0 3 l 0 1021 m 365 367 q 369 319 369 343 q 322 167 369 236 q 238 70 290 122 q 168 6 203 38 q 221 85 194 46 q 262 221 257 152 q 265 308 265 293 q 259 367 265 320 q 239 478 258 381 q 224 592 224 558 l 224 605 q 272 698 231 655 q 408 757 326 754 q 581 690 526 761 q 620 569 620 640 q 559 424 620 474 q 445 379 516 389 q 382 377 414 379 l 366 464 q 439 478 403 464 q 510 569 510 503 q 427 655 512 648 q 368 634 395 657 q 336 575 341 611 q 349 461 334 553 q 365 367 357 415 m 225 464 l 241 376 l 160 376 l 160 464 l 225 464 "},"ь":{"x_min":5,"x_max":584,"ha":585,"o":"m 5 928 q 186 746 112 873 q 271 487 255 628 q 115 381 187 466 q 122 497 122 438 q 5 928 122 771 m 340 471 q 512 396 439 471 q 584 236 584 325 q 516 69 584 139 q 340 -2 447 -2 q 159 68 226 -2 q 97 236 97 134 q 168 396 97 325 q 340 471 242 471 m 340 362 q 249 320 286 362 q 216 229 216 281 q 249 142 216 179 q 340 102 286 102 q 431 142 395 102 q 465 229 465 179 q 431 320 465 281 q 340 362 394 362 "},"˜":{"x_min":4.75,"x_max":458.484375,"ha":498,"o":"m 4 826 l 4 829 q 40 935 4 893 q 142 981 78 981 q 257 944 184 981 q 320 924 297 924 q 370 983 362 924 l 458 983 q 325 828 454 828 q 212 866 282 828 q 146 891 167 891 q 94 826 93 891 l 4 826 "},"ˇ":{"x_min":27,"x_max":456.3125,"ha":484,"o":"m 243 884 l 317 1000 l 456 1000 l 303 810 l 173 810 l 27 1000 l 166 1000 l 243 884 "},"Η":{"x_min":111,"x_max":789.21875,"ha":935,"o":"m 111 0 l 111 1015 l 246 1015 l 246 600 l 653 600 l 653 1015 l 789 1015 l 789 0 l 653 0 l 653 486 l 246 486 l 246 0 l 111 0 "},"в":{"x_min":59,"x_max":519,"ha":575,"o":"m 400 216 q 365 295 400 267 q 289 321 335 321 q 217 296 250 321 q 178 216 178 267 q 206 143 178 173 q 289 112 237 112 q 369 139 338 112 q 400 216 400 167 m 59 216 q 127 369 59 304 q 289 435 196 435 q 450 369 381 435 q 519 216 519 304 q 450 63 519 128 q 289 -2 381 -2 q 127 63 196 -2 q 59 216 59 128 m 400 517 q 379 583 400 555 q 289 622 350 622 q 212 594 244 622 q 178 517 178 564 q 289 413 178 413 q 400 517 400 413 m 59 517 q 127 670 59 605 q 289 736 196 736 q 450 670 381 736 q 519 517 519 605 q 450 364 519 429 q 289 299 381 299 q 127 364 196 299 q 59 517 59 429 "},"С":{"x_min":0,"x_max":636.171875,"ha":635,"o":"m 0 0 l 0 1005 l 636 1005 l 636 856 l 163 856 l 163 145 l 636 145 l 636 0 l 0 0 "},"Ω":{"x_min":86,"x_max":1000,"ha":1031,"o":"m 336 109 q 224 197 263 154 q 102 544 102 332 q 152 781 102 674 q 312 959 207 898 q 548 1019 415 1019 q 898 846 776 1019 q 987 543 987 721 q 854 190 987 333 q 753 109 817 151 l 1000 113 l 1000 0 l 610 0 l 610 119 q 694 172 663 146 q 829 392 791 255 q 846 526 846 456 q 814 708 846 622 q 710 858 778 809 q 545 908 642 908 q 344 826 415 908 q 246 528 246 712 q 300 288 246 392 q 477 121 360 174 l 477 0 l 86 0 l 86 113 l 336 109 "},"ß":{"x_min":104,"x_max":805,"ha":823,"o":"m 104 0 l 104 677 q 125 846 104 785 q 234 973 155 930 q 393 1011 305 1011 q 562 963 491 1011 q 645 816 645 909 q 589 654 645 751 q 542 540 542 570 q 638 431 542 494 q 761 334 731 371 q 805 211 805 282 q 731 45 805 110 q 557 -17 659 -17 q 410 26 475 -17 q 311 146 344 70 l 416 195 q 555 84 476 84 q 642 118 605 84 q 680 201 680 152 q 658 266 680 239 q 582 326 644 283 q 475 406 502 381 q 417 521 417 463 q 470 661 417 570 q 526 803 526 758 q 481 883 526 853 q 391 910 442 910 q 254 836 291 910 q 227 671 227 783 l 227 0 l 104 0 "},"s":{"x_min":67.828125,"x_max":535.796875,"ha":584,"o":"m 71 -164 l 105 -54 q 236 21 166 13 q 389 33 352 13 q 434 106 434 58 q 404 159 434 140 q 303 192 385 172 q 185 225 212 215 q 89 296 115 253 q 67 374 67 331 q 134 501 67 453 q 282 542 190 542 q 480 469 425 542 q 511 419 504 435 l 431 385 q 289 461 403 461 q 163 385 163 461 q 213 324 163 344 q 300 299 227 319 q 415 266 398 273 q 512 201 484 241 q 535 117 535 167 q 423 -42 535 5 q 300 -67 369 -67 q 71 -164 158 -54 "},"?":{"x_min":61,"x_max":703,"ha":711,"o":"m 320 244 q 319 281 319 269 q 339 405 319 352 q 388 484 355 445 q 478 570 405 505 q 558 658 539 624 q 578 731 578 691 q 520 858 578 807 q 385 910 462 910 q 186 709 218 910 l 61 724 q 161 936 77 862 q 383 1011 244 1011 q 603 941 513 1011 q 703 739 703 866 q 658 597 703 663 q 552 486 626 551 q 489 425 505 444 q 447 350 458 390 q 437 244 438 318 l 320 244 m 313 0 l 313 139 l 452 139 l 452 0 l 313 0 "},"c":{"x_min":69.859375,"x_max":611.078125,"ha":777,"o":"m 611 370 l 611 737 l 69 737 l 69 370 l 167 369 l 166 632 l 293 632 l 293 2 l 394 2 l 394 630 l 512 632 l 512 370 l 611 370 m 402 990 l 354 1051 q 425 1146 359 1051 q 494 1247 488 1236 q 562 1203 529 1225 q 480 1096 521 1149 q 402 990 400 991 m 340 918 l 298 972 q 229 833 229 883 q 284 750 229 781 q 345 737 309 737 q 427 770 403 737 q 453 853 453 806 q 418 954 453 906 q 272 1142 375 1015 q 187 1247 229 1195 q 186 1248 187 1248 q 156 1226 183 1248 q 124 1202 127 1203 q 368 900 275 1031 q 384 857 384 878 q 373 819 384 840 q 339 801 358 801 q 311 814 324 801 q 302 859 298 828 q 340 918 303 872 "},"¶":{"x_min":1,"x_max":751.125,"ha":764,"o":"m 275 -276 l 275 432 q 77 511 152 439 q 1 707 1 585 q 91 924 1 849 q 321 994 176 994 l 751 994 l 751 877 l 653 877 l 653 -276 l 538 -276 l 538 877 l 387 877 l 387 -276 l 275 -276 "},"Μ":{"x_min":102.828125,"x_max":841.40625,"ha":1095,"o":"m 585 1199 l 586 1198 l 587 1198 l 597 1199 q 704 1155 650 1197 q 781 1072 734 1133 q 822 976 800 1041 q 838 883 835 919 l 836 882 l 840 851 l 838 851 l 840 850 l 840 849 l 841 763 l 840 735 l 838 733 l 840 731 l 839 720 q 831 650 833 649 l 832 648 l 832 647 l 825 607 q 840 416 840 490 q 839 393 840 404 l 838 393 l 839 391 l 839 379 l 838 378 l 839 377 l 836 341 l 835 319 q 792 164 816 220 q 707 48 766 102 l 669 23 q 634 9 665 23 q 585 0 602 0 l 561 0 q 452 46 513 2 q 379 149 399 93 q 351 294 349 223 l 353 296 l 353 297 l 351 299 q 387 402 362 362 q 440 455 412 440 q 471 465 463 465 q 530 446 511 459 q 582 375 578 398 q 604 288 604 324 l 603 281 l 604 276 l 603 274 l 604 267 q 577 158 602 223 q 540 106 561 124 l 538 106 q 493 147 511 123 q 483 158 490 147 l 483 160 q 511 212 496 169 l 520 261 l 520 300 q 507 349 513 337 q 483 375 507 356 q 448 347 454 376 l 443 339 l 445 337 l 445 336 q 435 297 437 317 q 478 134 431 198 q 549 87 515 96 l 583 80 l 587 80 q 689 145 644 78 l 712 189 q 747 343 745 278 l 748 381 l 750 402 l 749 446 l 750 448 l 750 449 q 732 598 745 550 l 728 607 q 749 748 747 691 l 748 749 l 748 750 l 751 765 l 750 767 l 750 772 l 752 784 q 732 936 748 875 l 708 1013 q 622 1107 682 1073 l 620 1106 l 619 1106 l 599 1112 l 595 1111 l 593 1112 l 591 1112 l 555 1102 q 524 1148 544 1128 l 500 1169 l 498 1171 l 498 1172 q 537 1193 499 1182 q 585 1199 543 1197 m 368 1201 l 368 1199 l 370 1201 l 372 1201 l 374 1199 l 376 1201 l 377 1201 l 378 1199 l 380 1201 l 381 1201 q 457 1178 457 1187 q 532 1108 491 1167 q 578 1025 557 1083 q 596 941 591 980 l 594 941 l 595 939 l 595 916 l 596 910 l 595 906 l 596 900 l 593 885 l 594 883 q 555 779 592 836 q 477 733 519 731 l 475 733 q 399 776 435 734 q 353 883 368 806 q 349 933 348 912 q 382 1059 351 1005 q 403 1090 382 1070 l 406 1090 q 464 1041 433 1079 l 464 1039 l 462 1038 l 464 1036 l 463 1033 q 447 1008 451 1025 q 430 948 436 990 l 431 944 l 430 935 l 429 926 q 441 852 429 893 q 473 819 451 830 l 476 819 q 513 903 504 818 l 514 912 q 481 1040 516 978 q 405 1109 455 1085 q 364 1116 391 1115 l 359 1116 l 349 1115 l 349 1117 q 316 1103 329 1112 q 262 1060 300 1101 q 220 978 240 1032 q 189 829 192 905 l 190 815 l 188 809 l 191 747 l 189 747 q 196 693 193 733 l 213 600 q 188 440 193 551 l 188 425 l 189 417 l 188 410 l 189 404 l 188 402 l 187 401 q 216 227 193 309 q 266 130 232 185 q 370 80 310 82 q 395 88 386 82 q 412 61 403 82 l 447 24 l 447 21 q 364 0 438 3 q 278 24 304 8 l 229 61 q 178 122 191 94 q 122 265 149 162 q 106 398 105 363 l 108 398 l 106 400 l 107 415 l 106 431 l 108 450 l 108 453 q 118 554 113 554 l 117 555 l 117 556 l 122 590 q 103 786 106 678 l 102 815 q 155 1048 107 958 q 226 1145 175 1091 q 325 1195 281 1192 l 368 1201 "},"•":{"x_min":74,"x_max":418,"ha":454,"o":"m 74 487 q 124 608 74 558 q 245 659 174 659 q 367 609 317 659 q 418 487 418 559 q 367 365 418 415 q 245 315 317 315 q 124 365 174 315 q 74 487 74 416 "},"н":{"x_min":-7.453125,"x_max":975.96875,"ha":947,"o":"m -7 88 l 208 467 l 364 408 l 150 3 l -7 88 m 276 651 q 285 684 274 652 q 297 742 297 721 q 295 756 297 751 q 280 821 280 819 q 219 866 263 859 q 172 843 192 869 q 154 806 156 824 q 172 734 153 784 q 230 648 194 672 q 311 607 279 615 q 509 589 367 593 q 893 413 780 582 q 955 228 930 356 q 958 193 958 213 q 764 3 958 4 l 760 3 q 577 87 652 3 q 503 281 503 170 q 524 400 503 336 l 688 368 q 673 297 673 331 q 701 207 673 244 q 764 169 729 170 q 808 219 808 167 q 800 260 808 238 q 704 376 765 344 q 561 407 662 397 q 365 440 435 421 q 66 586 141 502 q 4 806 5 655 q 44 942 3 881 q 200 1022 98 1022 q 442 752 442 1022 q 423 615 442 714 l 276 651 m 811 1018 l 975 942 l 773 558 l 603 619 l 811 1018 "},"(":{"x_min":78,"x_max":406.25,"ha":475,"o":"m 318 -305 q 78 476 78 59 q 318 1258 78 872 l 406 1258 q 297 1016 324 1089 q 203 476 203 759 q 406 -305 203 84 l 318 -305 "},"◊":{"x_min":32,"x_max":655.96875,"ha":675,"o":"m 372 964 l 655 480 l 372 0 l 297 0 l 32 480 l 297 964 l 372 964 m 335 898 l 105 480 l 336 64 l 579 480 l 335 898 "},"α":{"x_min":49,"x_max":750.96875,"ha":783,"o":"m 626 720 l 750 720 q 663 360 703 570 q 750 0 710 98 l 629 0 q 585 131 600 67 q 350 -16 529 -16 q 119 102 200 -16 q 49 361 49 204 q 118 621 49 521 q 352 737 198 737 q 490 702 434 737 q 590 598 542 670 q 626 720 594 621 m 372 636 q 220 545 269 636 q 183 362 183 474 q 218 179 183 252 q 365 85 266 85 q 519 179 467 85 q 562 367 562 256 q 522 547 562 477 q 372 636 473 636 "},"γ":{"x_min":16.984375,"x_max":677.59375,"ha":695,"o":"m 16 720 l 146 720 l 346 154 l 552 720 l 677 720 l 408 0 l 408 -276 l 284 -276 l 284 0 l 16 720 "},"­":{"x_min":77,"x_max":733.53125,"ha":778,"o":"m 733 433 l 77 433 l 77 547 l 733 547 l 733 433 "},"м":{"x_min":10.859375,"x_max":1185.53125,"ha":1192,"o":"m 109 5 q 84 59 109 1 q 38 197 57 125 q 10 397 13 298 l 10 417 q 109 767 10 606 q 440 967 232 967 l 444 967 q 687 868 586 965 q 805 679 763 794 q 836 548 838 592 q 784 354 830 430 q 604 251 723 251 q 420 345 486 251 q 360 545 364 426 q 391 691 358 634 q 464 769 411 727 q 548 737 534 752 q 599 688 568 720 q 507 543 507 617 q 526 449 507 492 q 593 394 550 394 q 690 550 681 394 q 636 701 694 623 q 447 799 564 799 q 256 643 333 799 q 195 405 193 516 q 248 168 196 290 q 295 71 288 71 l 109 5 m 651 923 q 693 889 652 924 q 727 860 710 874 q 777 788 746 832 q 796 800 786 794 q 830 803 811 807 q 931 738 885 790 q 1012 475 1009 648 q 944 220 1014 382 q 872 77 881 77 l 1039 -3 q 1127 180 1112 138 q 1185 491 1185 330 q 1096 815 1185 682 q 851 963 1002 954 q 816 964 832 964 q 651 923 699 964 "},":":{"x_min":125,"x_max":264,"ha":292,"o":"m 125 581 l 125 720 l 264 720 l 264 581 l 125 581 m 125 0 l 125 139 l 264 139 l 264 0 l 125 0 "},"з":{"x_min":67.140625,"x_max":635.5,"ha":672,"o":"m 72 674 q 139 705 106 693 q 301 738 220 736 l 313 738 q 518 675 423 738 q 635 463 635 596 l 635 460 q 523 258 634 331 q 390 209 444 206 q 217 357 217 219 q 271 476 217 433 q 388 514 318 512 q 520 447 470 516 q 501 394 510 402 q 472 360 491 381 q 387 419 431 419 q 346 406 365 419 q 322 358 322 389 q 391 302 322 307 q 480 337 434 299 q 537 458 537 383 q 446 578 537 531 q 307 614 373 615 q 168 583 239 613 q 111 556 111 560 l 72 674 m 609 327 q 590 301 610 326 q 573 278 581 289 q 531 246 556 267 q 534 219 537 232 q 347 102 511 105 q 198 143 293 101 q 114 186 114 180 l 67 79 q 174 22 150 32 q 356 -14 263 -14 q 547 42 469 -14 q 633 199 628 103 q 634 222 634 210 q 609 327 634 297 "},"і":{"x_min":92.34375,"x_max":919.78125,"ha":255,"o":"m 679 200 l 333 200 l 333 78 l 679 78 l 679 200 m 92 297 l 431 297 l 431 0 l 577 0 l 577 297 l 919 297 l 917 1018 l 770 1017 l 770 442 l 579 442 l 579 710 l 431 710 l 431 442 l 248 442 l 248 1023 l 92 1022 l 92 297 "},"V":{"x_min":-6.109375,"x_max":659.90625,"ha":658,"o":"m -4 935 l -4 997 l 11 997 l 533 217 l 533 997 l 659 997 l 659 3 l 524 3 l 2 784 l -6 816 l -4 935 "},"У":{"x_min":75.28125,"x_max":1071.59375,"ha":1126,"o":"m 1071 583 l 322 279 l 415 452 l 787 590 q 908 637 849 614 q 804 678 849 666 l 415 827 l 322 999 l 1071 689 l 1071 583 m 524 641 q 424 330 524 411 q 299 289 375 289 q 133 375 189 289 q 75 641 75 465 q 174 951 75 870 q 299 992 224 992 q 524 641 524 992 m 437 641 q 419 816 437 754 q 299 923 387 923 q 162 641 162 923 q 180 465 162 526 q 300 359 212 359 q 394 408 359 359 q 437 641 437 471 "},"@":{"x_min":67.828125,"x_max":1037,"ha":1114,"o":"m 1037 489 q 928 398 1037 398 q 750 433 849 398 l 645 469 l 632 427 l 797 345 q 918 204 918 286 q 827 109 918 109 q 604 400 754 109 q 575 387 592 392 q 619 244 602 305 q 642 98 642 158 q 551 0 642 0 q 461 98 461 0 q 537 387 461 172 l 499 400 q 405 221 468 340 q 273 109 343 109 q 183 204 183 109 q 303 344 183 280 q 474 427 307 345 q 458 469 463 449 q 318 423 366 437 q 174 398 235 398 q 67 489 67 398 q 174 583 67 583 q 312 558 236 583 l 458 505 q 474 554 463 529 q 303 634 416 579 q 183 773 183 695 q 273 870 183 870 q 404 758 341 870 q 499 577 438 691 l 534 589 q 499 695 533 597 q 461 878 461 808 q 551 981 461 981 q 642 878 642 981 q 617 739 642 815 l 567 592 l 604 577 l 697 756 q 827 870 762 870 q 918 773 918 870 q 798 635 918 697 q 632 554 754 613 l 645 505 q 783 555 737 539 q 928 583 868 583 q 1037 489 1037 583 m 607 489 q 551 545 607 545 q 496 489 496 545 q 551 433 496 433 q 607 489 607 433 "},"¾":{"x_min":22,"x_max":1138,"ha":1147,"o":"m 170 -39 l 916 1011 l 1023 1011 l 276 -39 l 170 -39 m 22 630 l 121 640 q 156 584 134 599 q 225 564 185 564 q 298 587 268 564 q 332 654 332 612 q 226 729 332 731 q 200 728 212 729 q 186 728 187 728 l 201 802 q 308 870 308 800 q 227 931 308 931 q 130 862 157 931 l 33 877 q 105 977 62 949 q 227 1006 148 1006 q 414 879 414 1006 q 320 770 414 797 q 438 641 438 741 q 370 521 438 564 q 231 485 313 485 q 22 630 51 485 m 969 -21 l 969 83 l 710 83 l 710 166 l 982 488 l 1067 488 l 1067 156 l 1138 156 l 1138 83 l 1067 83 l 1067 -21 l 969 -21 m 969 156 l 969 335 l 813 156 l 969 156 "},"i":{"x_min":98.34375,"x_max":925.78125,"ha":1021,"o":"m 685 200 l 339 200 l 339 78 l 685 78 l 685 200 m 98 297 l 437 297 l 437 0 l 583 0 l 583 297 l 925 297 l 923 1018 l 776 1017 l 776 442 l 585 442 l 585 710 l 437 710 l 437 442 l 254 442 l 254 1023 l 98 1022 l 98 297 "},"≤":{"x_min":52,"x_max":710.5625,"ha":730,"o":"m 52 516 l 52 630 l 710 909 l 710 787 l 188 573 l 710 357 l 710 235 l 52 516 m 709 72 l 52 72 l 52 185 l 709 185 l 709 72 "},"ё":{"x_min":54.9375,"x_max":548.6875,"ha":578,"o":"m 150 948 q 202 927 181 948 q 223 876 223 906 q 202 824 223 845 q 150 803 181 803 q 98 824 120 803 q 77 876 77 845 q 98 927 77 906 q 150 948 120 948 m 448 948 q 501 927 479 948 q 522 876 522 906 q 501 824 522 845 q 448 803 479 803 q 397 824 419 803 q 375 876 375 845 q 397 927 375 906 q 448 948 419 948 m 548 617 l 193 616 l 193 427 l 546 427 l 546 304 l 193 304 l 193 118 l 546 118 l 546 -2 l 54 -2 l 56 733 l 548 733 l 548 617 "},"υ":{"x_min":92,"x_max":669,"ha":731,"o":"m 92 720 l 215 720 l 215 294 q 252 149 215 205 q 380 85 295 85 q 472 113 429 85 q 532 187 514 141 q 548 303 548 228 l 548 720 l 669 720 l 669 298 q 597 70 669 151 q 377 -16 522 -16 q 225 20 293 -16 q 118 133 150 60 q 92 293 92 192 l 92 720 "},"m":{"x_min":0,"x_max":712.140625,"ha":709,"o":"m 295 271 l 295 1148 l 0 1148 l 0 1265 l 712 1265 l 712 1148 l 415 1148 l 415 271 l 295 271 m 0 0 l 0 1019 l 142 1019 l 142 602 l 569 602 l 569 1018 l 712 1019 l 712 0 l 569 0 l 569 488 l 142 488 l 142 0 l 0 0 "},"Е":{"x_min":0,"x_max":604.296875,"ha":590,"o":"m 170 353 q 283 320 201 324 q 398 359 345 316 q 453 463 451 402 q 402 579 455 523 q 288 639 349 635 q 134 595 226 643 q 4 408 8 529 q 7 362 4 386 q 115 149 27 226 q 347 33 185 88 q 548 -61 467 -6 q 604 -105 604 -99 l 604 -99 q 525 35 604 -40 q 381 138 457 101 q 222 225 255 200 q 153 343 150 277 q 154 358 153 350 q 202 475 168 446 q 273 499 219 490 q 282 501 278 501 q 318 474 314 499 q 283 446 321 445 q 214 466 261 448 q 183 425 198 448 q 170 353 172 404 m 6 488 q 0 560 0 521 l 0 579 q 66 786 4 695 q 350 967 155 913 q 581 1089 539 1019 q 578 1056 580 1072 q 544 997 572 1027 q 500 946 522 972 q 350 841 467 915 q 168 652 171 726 q 170 633 168 645 q 118 610 143 621 q 63 579 77 592 q 6 488 20 537 "},"Э":{"x_min":33.90625,"x_max":722.984375,"ha":749,"o":"m 532 604 q 402 642 497 635 q 261 609 322 647 q 199 500 193 567 q 272 397 204 436 q 389 362 324 367 q 573 408 468 355 q 710 593 710 476 q 707 623 710 608 q 632 816 689 746 q 486 916 583 876 q 277 989 453 931 q 71 1097 137 1035 q 33 1147 33 1132 l 33 1142 q 127 994 33 1080 q 297 876 211 916 q 550 629 550 760 q 548 604 550 617 q 491 490 531 514 q 408 473 480 484 q 368 497 371 467 q 383 514 366 508 q 423 518 400 520 q 478 507 465 512 q 513 549 496 523 q 532 604 531 575 m 712 527 q 722 429 722 474 q 284 26 722 125 q 93 -46 154 -2 q 43 -101 69 -63 q 106 5 57 -38 q 164 45 134 30 q 347 139 249 85 q 531 340 531 240 q 529 372 531 339 q 651 436 626 416 q 712 527 695 473 "},"ž":{"x_min":31.828125,"x_max":1288.5625,"ha":671,"o":"m 1049 542 l 1048 1013 l 303 1013 l 303 923 l 398 881 l 442 866 l 611 868 l 611 0 l 750 0 l 752 868 l 913 868 l 912 542 l 1049 542 m 436 624 q 422 556 434 575 q 392 518 408 533 q 327 537 347 535 q 294 511 291 539 q 327 485 297 487 q 336 486 331 485 q 404 508 387 495 q 451 619 436 535 q 453 634 452 626 q 389 747 456 696 q 239 831 358 771 q 104 932 168 868 q 31 1061 31 1005 l 31 1068 q 84 1024 31 1061 q 273 931 160 971 q 492 816 426 875 q 591 612 574 742 q 593 569 594 590 q 465 394 587 455 q 318 354 377 349 q 212 413 261 359 q 166 524 162 467 q 220 622 168 582 q 329 657 271 661 q 436 624 408 651 m 590 493 q 594 407 597 455 q 528 211 589 296 q 255 44 441 92 q 33 -67 74 -1 q 37 -35 35 -52 q 69 18 43 -8 q 113 66 91 42 q 257 164 144 94 q 432 339 429 269 q 432 358 433 346 q 482 379 457 368 q 534 408 521 396 q 590 493 576 446 m 1020 520 q 1209 438 1128 520 q 1288 262 1288 359 q 1214 78 1288 154 q 1020 0 1137 0 q 820 77 893 0 q 750 262 750 149 q 829 438 750 359 q 1020 520 911 520 m 1020 400 q 918 355 959 400 q 881 255 881 311 q 918 158 881 199 q 1020 114 959 114 q 1120 158 1080 114 q 1157 255 1157 199 q 1120 355 1157 311 q 1020 400 1079 400 m 583 1178 q 752 1059 665 1171 q 777 1017 779 1017 q 718 1017 752 1018 l 647 1017 q 583 1178 642 1085 m 750 881 l 750 370 l 775 401 l 818 438 l 818 709 l 802 881 l 750 881 m 390 884 l 464 1000 l 603 1000 l 450 810 l 320 810 l 174 1000 l 313 1000 l 390 884 "},"ю":{"x_min":54.265625,"x_max":988.171875,"ha":1019,"o":"m 604 691 l 541 772 q 634 908 553 798 q 686 988 661 940 q 713 1028 706 1024 q 736 1024 722 1032 q 777 994 746 1016 q 809 978 787 993 q 811 963 816 971 q 693 806 791 929 q 626 712 669 771 q 604 691 607 690 m 507 575 q 472 526 475 542 q 474 446 468 499 q 497 371 482 385 q 530 361 510 360 q 557 371 548 362 q 569 430 569 384 q 552 532 569 501 q 485 634 529 577 q 415 721 450 677 q 246 966 244 953 q 255 982 247 974 q 295 1012 259 985 q 335 1039 330 1039 q 341 1034 340 1039 q 479 813 374 956 q 556 712 518 763 q 635 594 598 656 q 668 459 668 536 q 621 297 668 349 q 529 258 585 258 q 442 290 478 258 q 378 510 378 347 q 379 543 378 527 q 414 630 383 589 q 443 662 426 647 l 507 575 m 432 678 q 417 656 423 672 q 407 636 411 640 q 366 577 392 613 q 316 584 341 590 q 242 552 265 573 q 175 368 185 501 q 206 166 170 297 q 244 49 238 49 l 132 0 q 54 341 54 172 q 55 385 54 362 q 141 615 63 529 q 340 701 219 701 q 417 689 392 701 q 432 678 434 680 m 589 671 q 614 686 587 673 q 701 701 649 701 q 901 615 823 701 q 986 385 979 529 q 988 340 988 362 q 909 0 988 172 l 796 49 q 835 166 803 49 q 866 368 872 297 q 799 552 857 501 q 725 584 776 573 q 675 577 699 590 q 634 636 649 613 q 589 671 607 659 "},"á":{"x_min":67.828125,"x_max":662.625,"ha":746,"o":"m 404 919 q 594 836 521 919 q 634 784 602 834 q 662 667 662 714 l 660 665 l 660 663 l 662 661 l 660 649 l 660 645 l 662 633 l 660 633 l 662 631 q 640 533 662 598 q 560 425 622 486 q 430 379 495 379 l 404 379 q 347 398 347 390 q 338 403 338 400 l 338 414 q 306 594 330 478 l 304 617 l 306 619 l 309 619 q 316 587 314 619 q 350 531 329 543 q 418 507 380 507 q 514 579 475 507 q 526 644 526 619 l 526 651 q 444 772 526 738 l 409 777 q 322 718 359 777 q 301 608 301 673 l 302 606 l 302 604 l 301 602 l 304 564 l 302 564 l 304 562 l 304 558 l 327 393 l 335 288 l 335 220 l 333 202 l 363 200 l 423 200 l 425 198 l 427 200 l 434 200 l 436 198 l 441 200 l 470 198 l 477 200 l 478 198 l 478 197 l 477 191 l 478 183 l 477 174 l 478 154 l 478 134 l 477 108 l 470 108 l 464 111 l 457 109 l 444 111 l 400 111 l 389 113 l 387 111 l 370 113 l 333 113 l 324 115 q 313 72 320 113 q 231 -101 298 0 q 167 -172 200 -147 l 162 -172 l 158 -168 q 208 -44 192 -101 q 226 94 226 50 l 226 115 l 190 115 l 179 117 l 178 115 l 147 117 l 115 117 l 105 118 l 103 117 l 94 118 l 82 118 l 74 113 l 73 113 q 67 128 67 114 l 67 200 l 71 204 l 107 204 l 149 202 l 151 204 l 160 202 l 204 202 l 222 204 l 222 217 q 204 359 217 305 q 165 581 165 556 l 164 608 l 164 649 q 190 775 170 725 q 238 848 212 814 q 259 866 242 848 q 375 916 324 910 q 404 919 394 916 "},"×":{"x_min":109,"x_max":700.40625,"ha":728,"o":"m 109 277 l 322 491 l 109 704 l 192 787 l 405 574 l 617 786 l 698 704 l 487 492 l 700 278 l 618 195 l 404 409 l 190 195 l 109 277 "},"п":{"x_min":54.265625,"x_max":864.734375,"ha":856,"o":"m 67 510 q 84 586 61 510 q 158 727 109 674 q 328 798 225 801 q 493 785 425 795 q 583 776 553 776 q 618 777 599 776 q 864 857 741 784 q 744 739 817 794 q 549 663 637 659 q 418 676 468 667 q 350 681 380 682 q 67 510 191 674 m 492 640 q 447 605 470 623 q 362 482 394 554 q 322 257 318 383 q 223 -55 330 46 q 54 -131 153 -122 q 140 -40 120 -95 q 183 295 170 42 q 270 532 189 442 q 415 626 328 596 q 492 640 492 651 m 604 537 l 604 0 l 475 0 l 476 538 l 604 537 "},"K":{"x_min":67.828125,"x_max":1791.1875,"ha":1831,"o":"m 1081 290 q 1035 396 1081 358 q 933 430 995 430 q 838 397 882 430 q 786 290 786 358 q 824 193 786 232 q 933 151 865 151 q 1040 188 999 151 q 1081 290 1081 225 m 628 290 q 719 494 628 408 q 933 581 810 581 q 1148 494 1057 581 q 1239 290 1239 408 q 1148 86 1239 173 q 933 0 1057 0 q 719 86 810 0 q 628 290 628 173 m 1081 691 q 1053 779 1081 741 q 933 830 1015 830 q 832 793 875 830 q 786 691 786 753 q 933 552 786 552 q 1081 691 1081 552 m 628 691 q 719 895 628 809 q 933 982 810 982 q 1148 895 1057 982 q 1239 691 1239 809 q 1148 487 1239 574 q 933 400 1057 400 q 719 487 810 400 q 628 691 628 574 m 1632 495 q 1605 583 1632 546 q 1485 634 1566 634 q 1384 597 1426 634 q 1338 495 1338 558 q 1485 356 1338 356 q 1632 495 1632 356 m 1179 495 q 1270 699 1179 613 q 1485 786 1361 786 q 1700 699 1609 786 q 1791 495 1791 613 q 1700 291 1791 378 q 1485 204 1609 204 q 1270 291 1361 204 q 1179 495 1179 378 m 520 494 q 493 581 520 545 q 373 633 455 633 q 272 596 315 633 q 226 494 226 556 q 373 355 226 355 q 520 494 520 355 m 67 494 q 159 698 67 611 q 373 785 250 785 q 588 698 497 785 q 679 494 679 611 q 588 290 679 377 q 373 204 497 204 q 159 290 250 204 q 67 494 67 377 m 1223 881 l 1226 990 l 1017 991 l 1020 1151 l 1385 1152 l 1384 786 q 1223 677 1317 785 l 1223 881 "},"7":{"x_min":46.125,"x_max":916.28125,"ha":920,"o":"m 571 878 l 500 786 q 238 877 329 877 q 159 853 194 877 q 98 830 123 830 q 46 873 52 830 q 242 1003 52 1003 q 571 878 408 1003 m 666 739 l 771 841 q 822 873 817 842 q 805 891 824 891 q 790 889 799 891 q 780 887 780 887 q 741 855 775 887 q 608 696 638 758 q 566 565 575 630 q 555 471 560 518 l 447 482 q 445 514 445 497 q 476 676 445 594 q 542 796 497 728 q 615 885 585 862 q 690 950 653 918 q 816 992 750 992 q 887 959 857 992 q 916 881 916 925 q 787 744 916 781 l 666 739 m 813 558 l 812 452 q 512 358 747 358 q 222 444 222 358 q 303 499 222 503 q 389 465 333 497 q 311 461 331 460 q 294 456 297 462 q 293 448 293 454 q 505 440 374 440 q 813 558 636 440 m 605 321 q 628 278 605 320 q 642 185 642 251 q 594 33 643 88 q 501 -10 554 -10 l 500 -10 q 420 53 457 -9 q 385 186 383 117 q 428 326 388 278 l 551 325 q 526 282 535 303 q 504 189 510 243 q 501 149 501 165 q 522 107 501 109 q 541 134 531 106 q 552 186 552 162 q 536 221 552 219 l 605 321 "},"¨":{"x_min":42,"x_max":422,"ha":465,"o":"m 42 861 l 42 1000 l 170 1000 l 170 861 l 42 861 m 294 861 l 294 1000 l 422 1000 l 422 861 l 294 861 "},"Y":{"x_min":67.140625,"x_max":1491.40625,"ha":1448,"o":"m 617 691 l 554 772 q 647 908 566 798 q 699 988 674 940 q 726 1028 718 1024 q 749 1024 735 1032 q 790 994 758 1016 q 822 978 800 993 q 824 963 829 971 q 706 806 804 929 q 638 712 682 771 q 617 691 620 690 m 520 575 q 485 526 488 542 q 487 446 481 499 q 510 371 495 385 q 543 361 523 360 q 570 371 561 362 q 581 430 581 384 q 565 532 581 501 q 498 634 542 577 q 428 721 463 677 q 259 966 257 953 q 268 982 260 974 q 308 1012 272 985 q 348 1039 343 1039 q 354 1034 353 1039 q 492 813 387 956 q 569 712 531 763 q 648 594 611 656 q 681 459 681 536 q 634 297 681 349 q 541 258 598 258 q 455 290 491 258 q 391 510 391 347 q 392 543 391 527 q 427 630 396 589 q 456 662 439 647 l 520 575 m 444 678 q 430 656 436 672 q 420 636 424 640 q 379 577 405 613 q 329 584 354 590 q 255 552 278 573 q 188 368 198 501 q 219 166 183 297 q 257 49 251 49 l 145 0 q 67 341 67 172 q 68 385 67 362 q 153 615 75 529 q 353 701 231 701 q 430 689 405 701 q 444 678 447 680 m 602 671 q 647 636 619 659 q 688 577 662 613 q 738 584 712 590 q 812 552 789 573 q 879 368 870 501 q 881 168 885 297 q 991 0 881 67 l 1152 0 q 992 271 992 93 q 999 385 1001 362 q 914 615 992 529 q 714 701 836 701 q 627 686 662 701 q 602 671 600 673 m 1017 1106 l 67 1106 l 67 1220 l 1017 1220 l 1017 1106 m 1246 467 q 1420 393 1345 467 q 1491 235 1491 322 q 1424 71 1491 139 q 1246 0 1353 0 q 1065 69 1131 0 q 1001 235 1001 134 q 1073 393 1001 322 q 1246 467 1148 467 m 1246 368 q 1154 325 1191 368 q 1118 235 1118 286 q 1154 147 1118 185 q 1246 107 1191 107 q 1339 147 1301 107 q 1374 235 1374 185 q 1339 325 1374 286 q 1246 368 1301 368 "},"E":{"x_min":67.828125,"x_max":678.21875,"ha":746,"o":"m 67 0 l 67 991 l 678 991 l 677 855 l 202 857 l 203 572 l 677 572 l 677 441 l 202 441 l 202 135 l 677 135 l 677 0 l 67 0 "},"‹":{"x_min":62,"x_max":376.703125,"ha":404,"o":"m 196 357 l 376 49 l 275 49 l 62 357 l 275 667 l 376 667 l 196 357 "},"Є":{"x_min":75.28125,"x_max":948.15625,"ha":943,"o":"m 581 571 l 581 454 l 211 454 q 293 204 218 301 q 523 93 377 93 q 821 345 760 93 l 948 312 q 533 -16 862 -16 q 183 134 297 -16 q 75 489 75 276 l 75 507 q 126 755 78 650 q 292 944 182 877 q 535 1011 400 1011 q 788 938 685 1011 q 935 721 897 862 l 806 687 q 535 895 750 895 q 305 805 388 895 q 217 571 225 720 l 581 571 "},"±":{"x_min":53,"x_max":710,"ha":711,"o":"m 324 177 l 324 450 l 53 450 l 53 563 l 324 563 l 324 834 l 439 834 l 439 563 l 710 563 l 710 450 l 439 450 l 439 177 l 324 177 m 710 0 l 53 0 l 53 114 l 710 114 l 710 0 "},"|":{"x_min":127,"x_max":233,"ha":280,"o":"m 127 -292 l 127 1011 l 233 1011 l 233 -292 l 127 -292 "},"§":{"x_min":54.9375,"x_max":708.75,"ha":727,"o":"m 666 -47 q 571 -231 651 -168 q 370 -292 494 -292 q 232 -264 296 -292 q 137 -186 172 -238 q 101 -69 101 -134 q 208 120 101 38 q 104 183 132 152 q 54 314 54 238 q 148 493 54 415 q 292 588 184 522 q 499 737 462 692 q 524 803 524 767 q 477 883 524 852 q 385 910 436 910 q 239 763 265 910 l 112 775 q 396 1011 141 1011 q 567 954 496 1011 q 643 796 643 894 q 556 628 643 712 q 665 558 623 609 q 708 436 708 505 q 683 337 708 385 q 594 234 654 282 q 478 158 561 209 q 248 -7 290 43 q 223 -71 223 -36 q 270 -160 223 -127 q 370 -189 311 -189 q 490 -147 448 -189 q 543 -29 526 -109 l 666 -47 m 269 165 q 426 265 335 212 q 537 339 507 313 q 598 450 598 392 q 496 581 598 524 q 358 488 451 545 q 241 408 275 437 q 170 292 170 347 q 269 165 170 216 "},"ϋ":{"x_min":92,"x_max":669,"ha":706,"o":"m 92 720 l 215 720 l 215 294 q 252 149 215 205 q 380 85 295 85 q 472 113 429 85 q 532 187 514 141 q 548 303 548 228 l 548 720 l 669 720 l 669 298 q 597 70 669 151 q 377 -16 522 -16 q 225 20 293 -16 q 118 133 150 60 q 92 293 92 192 l 92 720 m 205 861 l 205 1000 l 333 1000 l 333 861 l 205 861 m 457 861 l 457 1000 l 585 1000 l 585 861 l 457 861 "},"й":{"x_min":-10.859375,"x_max":1354.40625,"ha":1350,"o":"m 1353 483 l 1353 591 l -8 591 l -8 483 l 1353 483 m -10 -46 q 152 86 88 -14 q 220 187 192 143 q 344 533 343 349 q 192 933 345 741 q 124 1033 159 973 q -10 1138 56 1106 q 187 579 187 832 q 185 530 187 554 q 152 295 162 371 q 88 157 124 227 q -10 -46 56 77 m 765 -67 q 883 362 883 88 q 876 478 883 421 q 1029 480 948 478 q 946 113 1015 231 q 765 -67 873 -12 m 475 480 q 647 405 573 480 q 718 246 718 334 q 651 79 718 148 q 475 7 581 7 q 294 78 360 7 q 236 187 231 143 q 342 456 296 311 q 475 480 377 480 m 472 368 q 381 327 417 368 q 347 236 347 288 q 381 149 347 186 q 472 109 417 109 q 563 149 527 109 q 597 236 597 186 q 563 327 597 288 q 472 368 526 368 m 480 1074 q 653 1000 579 1074 q 724 841 724 929 q 657 674 724 743 q 480 602 587 602 q 330 621 366 602 q 245 849 313 769 q 307 1000 236 929 q 480 1074 382 1074 m 478 966 q 386 925 423 966 q 352 834 352 885 q 386 746 352 784 q 478 706 423 706 q 569 746 533 706 q 602 834 602 784 q 569 925 602 885 q 478 966 532 966 m 1110 1072 q 1283 997 1209 1072 q 1354 838 1354 926 q 1287 671 1354 740 q 1110 599 1217 599 q 875 596 996 599 q 866 838 866 735 q 937 997 866 926 q 1110 1072 1012 1072 m 1116 963 q 1024 922 1061 963 q 990 831 990 883 q 1024 744 990 781 q 1116 704 1061 704 q 1207 744 1171 704 q 1241 831 1241 781 q 1207 922 1241 883 q 1116 963 1170 963 m 1027 737 l 1027 601 l 1044 601 l 1039 717 l 1027 737 "},"q":{"x_min":67.828125,"x_max":423.890625,"ha":485,"o":"m 164 0 l 164 720 l 338 720 l 338 0 l 164 0 m 347 889 q 400 868 378 889 q 422 819 422 848 q 400 771 422 791 q 347 750 378 750 q 294 771 316 750 q 272 819 272 791 q 294 868 272 848 q 347 889 316 889 m 143 883 q 196 863 174 883 q 217 814 217 843 q 196 766 217 786 q 143 746 174 746 q 91 766 113 746 q 69 814 69 786 q 91 863 69 843 q 143 883 113 883 m 67 1006 q 124 1005 115 1006 q 195 972 168 999 q 228 931 221 945 q 240 895 233 913 q 268 933 247 912 q 313 961 293 959 q 423 943 383 969 q 322 925 373 948 q 269 880 295 913 q 244 831 246 850 q 181 916 214 891 q 89 930 147 942 l 67 1006 "},"b":{"x_min":-12.203125,"x_max":949.515625,"ha":952,"o":"m 595 675 q 474 786 595 786 q 400 759 430 786 q 365 675 365 728 q 480 565 365 565 q 595 675 595 565 m 265 748 q 320 834 280 796 q 480 898 387 898 q 640 834 574 898 q 706 680 706 770 q 640 525 706 589 q 480 461 574 461 q 320 525 387 461 q 265 611 280 562 l 265 572 q 112 737 192 653 q 120 735 121 735 q 96 720 117 735 l 96 1077 l 871 1077 l 871 692 q 949 643 911 668 q 871 550 910 596 l 871 -3 l 707 -3 l 706 352 q 583 207 606 232 l 491 324 q 650 531 495 320 q 706 606 681 573 l 706 916 l 265 915 l 265 748 m 265 338 l 265 2 l 96 2 l 96 522 q 265 338 185 426 m 475 79 l 385 187 q 250 -94 239 -2 q 349 -261 241 -202 q 474 -295 395 -295 q 645 -217 607 -289 q 696 -73 699 -160 q 626 128 697 44 q 313 515 539 261 q 124 726 219 620 q 124 727 124 727 q 57 683 118 727 q -12 635 -6 638 q 524 31 320 293 q 559 -53 559 -13 q 535 -129 559 -89 q 459 -151 502 -166 q 406 -128 427 -154 q 381 -73 382 -104 q 475 79 381 -24 "},"Ж":{"x_min":44.078125,"x_max":874.90625,"ha":924,"o":"m 78 1037 l 221 1020 q 198 836 198 906 q 202 783 198 807 q 236 672 210 725 q 311 596 269 607 l 172 537 q 50 758 73 611 q 44 851 44 805 q 78 1037 44 942 m 470 662 q 484 702 476 682 q 491 760 492 729 q 476 800 490 791 q 454 807 465 804 q 434 803 444 805 q 417 758 417 794 q 557 587 417 598 q 671 666 634 581 q 698 813 695 725 q 665 1034 699 895 l 804 1064 q 830 988 813 1064 q 850 835 850 905 q 849 803 850 817 q 569 472 819 472 q 542 473 556 472 q 585 421 563 447 q 618 304 615 374 q 570 162 623 210 q 472 124 529 124 q 366 156 413 124 q 295 288 301 200 q 323 403 290 360 q 369 446 346 425 q 424 432 422 433 q 457 389 450 406 q 434 360 446 375 q 417 299 418 337 q 430 252 416 271 q 472 233 445 229 q 495 253 482 235 q 506 301 509 276 q 386 461 490 461 q 372 461 379 461 q 253 408 288 451 q 211 272 221 368 q 209 227 209 249 q 259 14 209 126 l 92 -17 q 44 225 44 84 q 50 324 44 273 q 186 520 66 451 q 362 583 245 555 q 324 627 343 605 q 295 733 297 669 q 347 870 294 807 q 454 931 398 931 q 607 744 607 931 q 588 659 607 701 q 559 603 573 631 q 470 662 479 619 m 623 451 q 700 470 670 463 q 763 514 722 479 q 874 272 874 417 q 828 -1 874 128 l 678 30 q 722 242 722 162 q 721 265 722 254 q 668 422 714 371 q 623 451 649 443 "},"Н":{"x_min":79.359375,"x_max":1400.53125,"ha":1494,"o":"m 739 -40 l 79 620 l 739 1281 l 1400 620 l 739 -40 m 754 67 l 1302 613 l 732 1182 l 186 635 l 754 67 m 271 170 l 271 1104 l 1205 1104 l 1205 170 l 271 170 m 357 235 l 1131 235 l 1131 1040 l 357 1040 l 357 235 "},"ф":{"x_min":67.140625,"x_max":1319.140625,"ha":1386,"o":"m 668 1251 l 719 1251 l 719 1022 q 956 927 848 1013 l 1152 1119 l 1188 1083 l 994 889 q 1064 775 1044 824 q 1091 647 1089 710 l 1319 647 l 1319 600 l 1091 600 q 994 364 1079 472 l 1188 167 l 1149 133 l 957 324 q 719 229 847 243 l 719 0 l 668 0 l 668 229 q 434 322 533 247 l 234 134 l 200 168 l 393 362 q 295 602 308 470 l 67 602 l 67 649 l 295 649 q 392 886 305 781 l 200 1081 l 232 1119 l 430 928 q 668 1022 552 1012 l 668 1251 m 1039 626 q 937 871 1039 770 q 691 973 836 973 q 445 871 547 973 q 344 626 344 770 q 445 379 344 480 q 691 278 547 278 q 937 379 836 278 q 1039 626 1039 481 "},"Ε":{"x_min":109.828125,"x_max":720.21875,"ha":815,"o":"m 109 0 l 109 991 l 720 991 l 719 855 l 244 857 l 245 572 l 719 572 l 719 441 l 244 441 l 244 135 l 719 135 l 719 0 l 109 0 "},"л":{"x_min":60.359375,"x_max":843.703125,"ha":954,"o":"m 389 954 l 396 954 q 470 913 427 954 q 499 843 499 877 q 480 783 499 827 q 397 735 443 735 l 387 735 q 324 756 359 735 q 284 826 284 797 q 281 837 281 826 l 281 845 q 301 908 287 892 q 346 944 320 935 q 389 954 377 954 m 770 774 q 843 698 843 705 q 411 288 590 444 q 349 257 367 257 q 339 252 349 253 q 229 227 297 227 l 224 227 q 122 255 170 227 q 84 297 88 284 q 60 356 67 318 l 60 375 q 75 440 60 413 q 133 495 88 467 q 203 514 180 514 q 255 505 229 514 q 267 498 264 505 l 267 394 l 264 391 q 227 407 264 398 q 181 391 181 400 q 173 382 177 391 l 173 368 q 210 343 179 343 l 215 343 q 305 375 269 355 q 419 449 343 381 q 770 774 676 682 m 290 713 l 351 713 l 354 710 l 354 416 q 288 382 352 413 l 286 383 l 286 710 l 290 713 m 370 713 l 479 713 l 482 710 l 482 525 q 368 423 467 507 l 367 423 l 367 710 l 370 713 m 525 375 l 843 56 l 769 -17 l 501 249 l 501 350 l 525 375 m 479 320 l 479 6 l 476 3 l 293 3 l 290 6 l 290 219 q 337 231 293 224 q 424 274 404 252 q 476 320 465 307 l 479 320 "},"ѱ":{"x_min":83,"x_max":907,"ha":946,"o":"m 83 720 l 204 720 l 204 364 q 214 231 204 273 q 289 126 232 163 q 433 86 341 90 l 433 720 l 556 720 l 556 86 q 768 209 728 95 q 786 364 786 261 l 786 720 l 907 720 l 907 368 q 888 182 907 241 q 775 39 860 94 q 556 -16 695 -11 l 556 -276 l 433 -276 l 433 -16 q 161 83 247 -10 q 92 216 108 139 q 83 368 83 262 l 83 720 "},"L":{"x_min":67.828125,"x_max":678.21875,"ha":746,"o":"m 67 0 l 67 949 l 203 949 l 203 135 l 678 135 l 678 0 l 67 0 "},"Щ":{"x_min":1.359375,"x_max":789.453125,"ha":797,"o":"m 328 0 l 328 902 l 1 902 l 1 1023 l 789 1023 l 789 902 l 460 902 l 460 0 l 328 0 m 201 416 l 604 416 l 604 294 l 201 294 l 201 416 "},"σ":{"x_min":46,"x_max":826.625,"ha":847,"o":"m 826 720 l 826 621 l 630 621 q 721 359 721 536 q 637 91 721 191 q 382 -16 547 -16 q 128 91 218 -16 q 46 360 46 192 q 129 628 46 527 q 382 737 218 737 q 497 720 433 737 l 826 720 m 380 636 q 217 547 272 636 q 171 360 171 474 q 217 171 171 243 q 382 85 272 85 q 549 171 493 85 q 597 360 597 244 q 548 551 597 478 q 380 636 492 636 "},"θ":{"x_min":62,"x_max":710,"ha":748,"o":"m 62 497 q 386 1011 62 1011 q 710 497 710 1011 q 386 -16 710 -16 q 62 497 62 -16 m 188 546 l 584 546 q 384 910 572 910 q 188 546 195 910 m 584 448 l 188 448 q 386 85 195 85 q 584 448 577 85 "}," ":{"x_min":0,"x_max":0,"ha":370},"Ο":{"x_min":67,"x_max":636.703125,"ha":1049,"o":"m 632 366 q 609 444 613 444 q 534 535 581 495 q 398 596 484 577 q 303 583 303 592 q 185 527 270 583 l 185 529 q 231 564 191 539 l 271 588 q 292 628 287 588 l 292 630 l 290 632 l 292 644 l 292 682 l 290 702 l 292 702 l 292 707 l 273 803 q 225 907 252 877 q 169 992 190 951 l 154 1039 l 156 1047 l 158 1047 q 163 1039 163 1047 q 192 969 163 1018 q 273 843 273 875 q 298 828 273 828 q 419 903 370 841 q 457 1013 451 958 l 455 1015 l 457 1024 l 457 1026 l 452 1064 q 398 1182 440 1129 q 265 1235 343 1235 q 148 1186 210 1235 q 85 1062 85 1123 l 92 982 q 148 777 148 832 l 148 754 l 146 729 l 148 727 l 146 725 q 119 573 146 671 l 83 437 l 67 316 q 79 208 67 271 q 119 132 105 133 l 119 122 l 131 107 q 165 70 153 74 q 363 0 235 0 q 434 16 434 11 l 434 14 q 601 174 557 74 q 636 337 636 227 l 632 366 m 363 440 l 355 440 q 271 385 319 440 q 237 281 237 330 l 237 274 l 235 266 q 263 183 235 238 q 317 147 288 153 l 340 143 q 363 147 348 147 l 363 151 l 365 151 l 367 149 q 467 324 467 186 q 363 440 452 440 m 365 76 l 361 76 l 361 70 l 365 70 l 365 76 m 265 1108 q 206 1056 227 1108 l 204 1034 q 237 971 215 971 q 260 961 248 961 q 311 984 311 970 q 330 1024 324 997 l 330 1043 l 332 1045 q 292 1101 332 1079 q 265 1108 277 1108 "},"∑":{"x_min":83,"x_max":940.265625,"ha":900,"o":"m 94 1011 l 933 1011 l 933 900 l 263 900 l 675 374 l 234 -183 l 940 -183 l 940 -292 l 83 -292 l 83 -165 l 503 368 l 94 891 l 94 1011 "},"+":{"x_min":64.4375,"x_max":1317.109375,"ha":1386,"o":"m 632 6 l 632 543 l 64 543 l 64 652 l 632 654 l 631 1209 l 739 1209 l 739 651 l 1316 650 l 1317 543 l 741 543 l 741 4 l 632 6 "},"½":{"x_min":72,"x_max":1133.421875,"ha":1140,"o":"m 154 -39 l 900 1011 l 1007 1011 l 260 -39 l 154 -39 m 224 497 l 224 872 q 72 796 154 817 l 72 879 q 248 1006 177 913 l 322 1006 l 322 497 l 224 497 m 710 -21 q 743 55 714 16 q 869 170 780 107 q 999 276 967 240 q 1025 334 1025 305 q 931 408 1025 408 q 863 391 885 408 q 827 330 841 374 l 725 341 q 932 489 763 489 q 1065 460 1012 489 q 1131 351 1131 424 q 1090 243 1131 293 q 952 126 1061 205 q 871 61 894 84 l 1133 61 l 1133 -21 l 710 -21 "},"'":{"x_min":73.25,"x_max":817.9375,"ha":881,"o":"m 73 628 q 162 630 133 630 q 185 630 179 630 q 336 561 280 617 q 405 475 392 505 q 430 399 417 437 q 491 480 446 436 q 584 539 543 535 q 817 499 732 555 q 603 463 712 512 q 493 368 546 437 q 439 265 444 304 q 305 444 375 392 q 113 474 236 497 l 73 628 "},"˛":{"x_min":124,"x_max":421,"ha":393,"o":"m 151 16 l 235 16 q 209 -95 209 -44 q 235 -168 209 -139 q 306 -198 262 -198 q 421 -166 359 -198 l 421 -247 q 272 -289 341 -289 q 164 -247 204 -289 q 124 -139 124 -206 q 151 16 124 -80 "},"Р":{"x_min":29.15625,"x_max":760.28125,"ha":763,"o":"m 355 398 q 361 322 361 359 q 286 81 361 190 q 152 -72 237 10 q 42 -174 97 -123 q 126 -48 84 -111 q 191 166 184 56 q 197 305 197 280 q 187 398 196 324 q 155 573 185 421 q 130 754 130 701 q 131 776 130 767 q 207 923 141 854 q 424 1017 292 1013 l 443 1017 q 698 910 616 1017 q 760 718 760 831 q 663 489 760 567 q 482 418 594 433 q 382 413 432 416 l 356 552 q 472 573 415 552 q 585 718 585 615 q 454 855 587 844 q 359 822 402 859 q 309 727 316 786 q 329 548 305 693 q 355 398 342 473 m 132 552 l 158 412 l 29 412 l 29 552 l 132 552 "},"щ":{"x_min":1.359375,"x_max":949.515625,"ha":687,"o":"m 453 382 l 453 490 l 184 490 l 184 382 l 453 382 m 11 -39 l 14 -39 q 134 0 37 -39 q 367 148 277 56 q 495 461 494 278 q 368 815 497 670 q 130 981 278 918 q 4 1026 23 1026 q 1 1025 1 1026 q 347 507 347 760 q 344 459 347 483 q 281 212 322 300 q 174 78 245 137 q 11 -39 170 75 m 949 506 l 948 1013 l 203 1013 l 206 946 l 336 860 l 339 868 l 511 868 l 511 0 l 650 0 l 652 868 l 813 868 l 813 506 l 949 506 "},"Φ":{"x_min":57,"x_max":1050,"ha":1071,"o":"m 487 1024 l 619 1024 l 619 901 q 922 794 807 889 q 1050 507 1050 688 q 924 215 1050 323 q 619 109 808 115 l 619 -36 l 487 -36 l 487 109 q 184 214 302 115 q 57 501 57 322 q 251 842 57 735 q 487 901 344 894 l 487 1024 m 487 787 q 273 712 348 783 q 194 502 194 639 q 275 295 194 371 q 487 221 354 223 l 487 787 m 619 221 q 833 295 755 225 q 916 504 916 370 q 834 714 916 639 q 619 787 755 787 l 619 221 "},"ı":{"x_min":134,"x_max":257,"ha":321,"o":"m 134 0 l 134 720 l 257 720 l 257 0 l 134 0 "},"Т":{"x_min":75.96875,"x_max":1072.265625,"ha":1138,"o":"m 75 699 l 825 1003 l 732 830 l 360 693 q 240 644 299 668 q 343 603 299 616 l 732 455 l 825 282 l 75 592 l 75 699 m 623 640 q 723 952 623 871 q 847 992 772 992 q 1013 906 957 992 q 1072 640 1072 816 q 973 330 1072 411 q 847 289 923 289 q 623 640 623 289 m 710 640 q 728 465 710 527 q 847 359 760 359 q 985 640 985 359 q 967 816 985 755 q 847 923 935 923 q 754 873 788 923 q 710 640 710 811 "},"¹":{"x_min":72,"x_max":322,"ha":366,"o":"m 224 497 l 224 872 q 72 796 154 817 l 72 879 q 248 1006 177 913 l 322 1006 l 322 497 l 224 497 "},"£":{"x_min":67.828125,"x_max":858.625,"ha":924,"o":"m 67 1018 l 858 1018 l 858 0 l 691 0 l 690 858 l 240 857 l 240 0 l 67 0 l 67 1018 m 261 0 l 261 333 q 305 502 261 436 q 474 585 360 588 q 636 512 583 581 q 678 369 678 456 q 619 225 678 286 q 476 159 560 164 q 404 180 435 157 q 381 204 382 196 l 381 311 q 467 256 410 255 q 577 366 564 257 q 579 387 579 377 q 473 497 579 497 q 386 438 413 497 q 368 331 365 393 q 366 0 368 213 l 261 0 m 574 0 l 574 174 l 573 174 q 613 204 595 189 q 672 283 657 244 l 672 0 l 574 0 "},"W":{"x_min":1.359375,"x_max":885.765625,"ha":876,"o":"m 885 540 q 882 496 882 527 l 881 496 l 882 494 l 882 492 q 841 362 862 392 q 642 189 770 243 l 594 174 q 521 101 568 118 l 516 101 q 453 153 492 109 l 448 160 l 448 168 l 484 198 q 507 257 507 226 q 480 288 499 288 l 476 288 q 433 232 444 288 l 432 212 l 433 211 l 433 209 l 432 207 q 475 118 432 145 q 579 82 502 82 l 600 82 q 702 111 678 97 l 726 58 l 737 23 q 659 -12 737 15 l 594 -21 l 588 -18 l 577 -18 l 570 -21 q 442 13 484 -10 l 403 39 l 365 76 l 342 118 q 325 170 338 118 l 328 172 l 324 207 q 338 270 330 261 q 400 357 352 320 q 471 388 424 375 q 543 374 543 383 q 577 346 565 365 q 609 286 599 327 l 619 286 l 665 313 q 674 322 665 317 q 722 370 701 344 q 789 549 789 460 l 787 559 l 789 560 q 753 689 777 649 q 701 760 735 725 q 616 822 661 802 q 575 835 616 826 q 543 890 558 874 q 518 916 543 897 q 484 935 510 927 l 484 939 q 511 946 484 944 l 529 944 l 543 946 q 666 910 621 935 q 776 826 722 883 q 837 737 823 779 q 878 613 862 699 q 884 543 884 575 l 885 541 l 885 540 m 613 282 l 611 282 l 609 272 l 613 239 q 606 206 609 206 l 606 202 l 609 198 q 623 248 619 198 q 613 282 615 282 m 574 765 q 518 643 555 677 q 433 601 469 601 l 414 601 q 329 643 366 607 q 301 687 304 669 l 299 689 l 295 689 q 204 636 253 678 q 112 408 112 548 q 149 263 112 343 q 240 180 195 205 q 299 149 269 159 l 316 149 l 322 145 l 319 139 q 374 51 330 91 l 376 50 l 376 42 q 356 37 376 37 q 159 98 257 37 q 60 200 100 146 q 40 235 54 204 q 18 288 32 247 l 21 294 q 2 387 11 307 l 5 387 l 2 388 l 2 406 l 1 419 q 31 556 10 508 q 80 640 63 619 l 105 672 q 191 745 139 709 q 263 780 191 751 q 290 788 270 784 q 319 849 295 822 q 341 867 333 864 l 343 867 q 432 816 379 867 q 417 798 432 803 l 403 772 q 397 740 397 754 q 428 707 402 707 l 430 707 q 462 751 462 717 l 462 772 q 381 867 434 842 q 331 881 359 881 l 329 880 l 320 881 l 314 881 l 306 880 l 305 881 l 302 881 l 295 880 l 293 881 l 292 881 q 217 862 263 877 l 212 858 l 202 858 q 175 929 199 859 l 168 956 q 320 986 254 986 l 331 986 q 439 956 400 978 q 523 893 460 952 q 574 765 574 824 m 293 712 l 295 712 l 288 751 l 290 751 l 288 752 l 290 774 l 290 779 l 286 779 l 286 780 q 274 765 274 775 q 286 695 274 733 q 297 700 295 695 l 293 712 m 689 1154 l 413 1155 l 413 1234 l 744 1234 q 829 1183 800 1216 q 854 1111 855 1137 q 820 1051 854 1081 q 718 1003 774 1007 q 412 1003 634 1003 l 412 1081 q 689 1081 578 1081 q 763 1109 744 1081 q 744 1150 763 1129 q 689 1154 725 1158 "},"λ":{"x_min":16,"x_max":676.59375,"ha":691,"o":"m 346 540 l 144 0 l 16 0 l 283 708 l 176 994 l 304 994 l 676 0 l 548 0 l 346 540 "},"а":{"x_min":68.5,"x_max":625.328125,"ha":686,"o":"m 167 758 l 167 1034 q 203 1175 167 1119 q 337 1243 248 1243 l 344 1243 q 478 1183 434 1241 q 513 1065 513 1136 q 464 944 513 995 q 346 890 415 893 q 286 907 311 888 q 266 928 267 921 l 266 1016 q 339 971 290 970 q 430 1062 419 971 q 431 1080 431 1071 q 343 1170 431 1170 q 271 1122 293 1170 q 256 1033 253 1085 q 254 758 256 935 l 167 758 m 427 758 l 427 902 l 426 902 q 460 928 444 914 q 508 993 497 961 l 508 758 l 427 758 m 526 375 l 526 646 l 403 649 l 403 -4 l 299 -4 l 299 646 l 170 646 l 170 375 l 68 375 l 68 755 l 624 755 l 625 375 l 526 375 "},"v":{"x_min":67.828125,"x_max":889.828125,"ha":950,"o":"m 68 200 l 889 200 l 889 -134 l 708 -135 l 708 32 l 248 32 l 246 -135 l 67 -135 l 68 200 "},">":{"x_min":76,"x_max":734.546875,"ha":741,"o":"m 734 434 l 76 153 l 76 274 l 596 490 l 76 705 l 76 827 l 734 548 l 734 434 "},"τ":{"x_min":31,"x_max":516.609375,"ha":530,"o":"m 343 621 l 343 0 l 220 0 l 220 621 l 31 621 l 31 720 l 516 720 l 516 621 l 343 621 "},"Ї":{"x_min":67.671875,"x_max":319.96875,"ha":407,"o":"m 107 0 l 107 810 l 289 810 l 289 0 l 107 0 m 193 1127 q 283 1091 246 1127 q 319 1003 319 1054 q 283 915 319 951 q 193 878 246 878 q 104 915 141 878 q 67 1003 67 951 q 104 1091 67 1054 q 193 1127 140 1127 m 193 1097 q 128 1070 155 1097 q 102 1007 102 1044 q 128 943 102 969 q 193 916 155 916 q 258 943 231 916 q 285 1007 285 969 q 258 1070 285 1044 q 193 1097 231 1097 "},"Λ":{"x_min":8,"x_max":917.5,"ha":930,"o":"m 532 994 l 917 0 l 774 0 l 516 721 q 464 885 482 815 q 411 721 442 804 l 142 0 l 8 0 l 396 994 l 532 994 "},"ˉ":{"x_min":20,"x_max":443,"ha":486,"o":"m 20 832 l 20 933 l 443 933 l 443 832 l 20 832 "},"·":{"x_min":67.828125,"x_max":318.765625,"ha":407,"o":"m 67 621 q 104 709 67 672 q 192 746 141 746 q 282 709 245 746 q 318 621 318 673 q 282 532 318 569 q 192 495 245 495 q 104 532 141 495 q 67 621 67 569 "},"Х":{"x_min":-1.359375,"x_max":719.59375,"ha":703,"o":"m 111 -3 q -1 70 52 33 q 125 204 62 137 q 246 337 249 336 l 335 240 q 221 121 327 240 q 111 -3 121 10 m 459 375 l 377 426 l 442 357 q 719 73 666 120 q 652 31 715 71 q 594 -3 623 13 l 208 394 q 150 516 150 453 q 225 660 150 591 l 285 602 l 286 625 l 246 666 q 80 847 167 748 q 8 931 44 889 q 75 974 12 933 q 134 1009 105 991 q 448 653 291 830 q 522 491 528 558 q 512 432 519 445 q 459 375 503 413 m 398 516 l 394 526 l 385 539 l 369 556 q 351 557 359 557 q 295 504 295 557 q 296 484 295 495 q 342 456 318 456 q 399 501 376 456 q 400 509 400 507 q 398 516 400 511 m 447 678 l 356 770 q 470 885 363 770 q 579 1008 570 994 q 697 936 640 972 q 569 807 634 871 q 447 678 444 680 "},"Υ":{"x_min":20.34375,"x_max":817.9375,"ha":903,"o":"m 326 199 l 326 -3 l 511 -3 l 511 199 l 326 199 m 511 335 l 511 851 l 657 851 l 657 492 l 817 492 l 817 1018 l 20 1018 l 20 492 l 180 492 l 180 851 l 326 851 l 326 335 l 511 335 m 210 200 l 206 200 l 209 335 l 326 335 l 326 332 l 511 332 l 511 335 l 630 335 l 634 200 l 620 200 l 620 199 l 511 199 l 511 200 l 326 200 l 326 199 l 210 199 l 210 200 "},"r":{"x_min":67.828125,"x_max":805.734375,"ha":882,"o":"m 71 1007 l 801 1007 l 805 1003 l 805 4 l 801 0 l 741 0 l 737 4 l 737 502 q 723 568 733 507 q 716 596 720 568 q 668 685 685 668 l 640 723 l 640 857 l 229 857 l 229 723 q 189 659 229 718 q 149 550 172 638 l 143 512 l 143 6 l 139 2 l 71 2 l 67 6 l 67 1003 l 71 1007 m 419 793 q 638 691 545 793 q 689 606 664 670 q 716 496 716 545 l 718 472 l 718 438 q 676 318 718 394 q 623 241 666 284 q 584 207 607 217 q 492 167 528 167 q 476 163 492 163 q 317 211 352 163 l 317 381 l 318 382 l 318 384 q 362 341 322 384 q 446 313 409 313 q 522 347 499 323 q 568 470 568 399 l 568 474 q 494 632 568 588 q 436 653 463 653 q 366 628 400 650 q 299 454 299 558 l 299 6 l 295 2 l 167 2 l 163 6 l 163 510 q 215 670 167 588 q 419 793 288 793 m 710 364 l 714 364 l 714 4 l 710 0 l 580 0 l 576 4 l 576 183 l 618 213 q 687 313 668 259 q 710 364 699 333 "},"ж":{"x_min":52.90625,"x_max":655.15625,"ha":693,"o":"m 78 729 l 181 716 q 164 588 164 636 q 167 550 164 567 q 184 470 176 489 q 246 420 201 432 l 145 379 q 57 533 73 430 q 52 598 52 567 q 78 729 52 662 m 361 466 q 377 534 377 519 q 366 563 376 556 q 349 568 358 565 q 336 565 343 567 q 322 533 322 558 q 425 413 322 421 q 526 571 522 406 q 503 726 528 629 l 604 748 q 623 695 610 748 q 637 587 637 636 q 584 402 637 468 q 413 333 526 328 q 445 297 430 315 q 469 215 466 264 q 434 115 472 149 q 362 89 404 89 q 286 111 320 89 q 234 204 239 142 q 255 284 231 255 q 288 315 271 299 q 328 305 327 305 q 352 275 347 286 q 335 254 344 265 q 322 211 324 238 q 333 178 322 192 q 362 166 343 163 q 380 181 370 166 q 388 212 389 195 q 290 324 375 334 q 205 289 229 318 q 174 193 181 260 q 172 161 172 177 q 208 12 172 90 l 87 -10 q 52 160 52 61 q 57 229 52 193 q 155 366 68 318 q 283 411 198 391 q 255 441 269 426 q 235 516 236 471 q 272 611 233 567 q 349 654 309 654 q 460 523 460 654 q 446 464 460 493 q 426 425 436 444 q 361 466 368 436 m 473 318 q 529 331 507 326 q 574 362 544 338 q 655 193 655 295 q 621 1 655 92 l 512 23 q 543 187 548 126 q 505 292 539 252 q 473 318 491 308 "},"x":{"x_min":0.671875,"x_max":1018.015625,"ha":1017,"o":"m 882 506 l 882 868 l 720 868 l 718 0 l 579 0 l 579 868 l 411 866 l 366 881 l 271 923 l 271 1013 l 1017 1013 l 1018 506 l 882 506 m 405 624 q 391 556 402 575 q 361 518 377 533 q 296 537 316 536 q 263 511 260 539 q 296 485 265 487 q 305 486 300 485 q 373 508 356 495 q 420 619 405 535 q 421 634 421 626 q 358 747 425 696 q 208 831 326 771 q 73 932 137 868 q 0 1061 0 1005 l 0 1068 q 52 1024 0 1061 q 242 931 129 971 q 461 816 395 875 q 560 612 543 742 q 562 569 563 590 q 434 394 556 455 q 287 354 346 349 q 181 413 230 359 q 134 524 131 467 q 188 622 137 582 q 298 657 240 661 q 405 624 377 651 m 558 493 q 563 407 566 455 q 497 211 558 297 q 224 44 410 92 q 2 -67 43 0 q 6 -35 4 -51 q 38 18 12 -8 q 82 66 60 42 q 226 164 113 94 q 401 339 398 269 q 401 358 402 346 q 451 379 426 368 q 503 408 490 396 q 558 493 545 446 "},"Ѳ":{"x_min":65,"x_max":1016,"ha":1047,"o":"m 65 484 q 185 858 65 714 q 541 1012 315 1012 q 891 861 760 1012 q 1016 495 1016 718 q 890 132 1016 274 q 540 -17 758 -17 q 286 52 400 -17 q 115 250 168 124 q 65 484 65 368 m 201 482 q 286 211 201 317 q 539 96 379 96 q 797 216 705 96 q 880 496 880 325 q 798 776 880 667 q 541 899 707 899 q 278 774 367 899 q 201 482 201 665 m 344 439 l 344 555 l 737 555 l 737 439 l 344 439 "},"Ø":{"x_min":56.03125,"x_max":1028.5625,"ha":1064,"o":"m 847 903 l 961 1030 l 1028 973 l 909 839 q 987 687 966 753 q 1015 496 1015 601 q 959 236 1015 351 q 780 44 897 108 q 542 -17 668 -17 q 373 9 449 -17 q 237 87 315 29 l 123 -40 l 56 16 l 175 150 q 89 313 112 245 q 64 494 64 389 q 118 755 64 639 q 296 949 179 884 q 541 1011 406 1011 q 847 903 704 1011 m 765 812 q 662 876 706 858 q 542 898 609 898 q 281 779 372 898 q 200 497 200 672 q 214 357 200 419 q 259 245 225 311 l 765 812 m 821 741 l 317 177 q 413 118 369 135 q 538 96 471 96 q 795 215 703 96 q 879 493 879 323 q 821 741 879 634 "},"с":{"x_min":-4.75,"x_max":507.984375,"ha":490,"o":"m -4 544 q 121 864 -1 721 q 446 1052 248 1009 l 484 1060 l 436 1033 q 233 822 313 960 q 151 537 153 683 q 238 231 148 375 q 470 18 325 91 l 507 0 l 493 1 q 130 193 274 30 q -4 535 -4 346 l -4 544 "},"÷":{"x_min":53,"x_max":709,"ha":705,"o":"m 311 625 l 311 764 l 450 764 l 450 625 l 311 625 m 709 433 l 53 433 l 53 547 l 709 547 l 709 433 m 311 216 l 311 355 l 450 355 l 450 216 l 311 216 "},"μ":{"x_min":108.515625,"x_max":690.4375,"ha":735,"o":"m 690 720 l 690 0 l 581 0 l 581 85 q 511 10 545 31 q 400 -16 463 -16 q 301 5 344 -16 q 229 72 268 22 l 229 -276 l 108 -276 l 108 720 l 229 720 l 229 415 q 233 257 229 290 q 304 122 248 162 q 395 93 343 93 q 491 122 448 93 q 552 200 534 151 q 570 413 570 247 l 570 720 l 690 720 "},"h":{"x_min":54.265625,"x_max":881.6875,"ha":950,"o":"m 881 0 l 725 1 l 725 574 l 542 574 l 542 307 l 394 307 l 394 574 l 203 575 l 203 0 l 54 0 l 54 719 l 396 719 l 396 1017 l 542 1017 l 542 720 l 881 720 l 881 0 "},".":{"x_min":135.640625,"x_max":386.59375,"ha":445,"o":"m 135 125 q 172 213 135 177 q 260 250 208 250 q 349 213 313 250 q 386 125 386 177 q 349 36 386 73 q 260 0 313 0 q 172 36 208 0 q 135 125 135 73 "},"f":{"x_min":65.78125,"x_max":1763.375,"ha":1831,"o":"m 1612 451 q 1586 534 1612 499 q 1472 583 1549 583 q 1376 548 1416 583 q 1332 451 1332 510 q 1472 318 1332 318 q 1612 451 1612 318 m 1182 451 q 1268 644 1182 562 q 1472 727 1355 727 q 1676 644 1589 727 q 1763 451 1763 562 q 1676 257 1763 339 q 1472 174 1589 174 q 1268 257 1355 174 q 1182 451 1182 339 m 518 387 q 491 474 518 438 q 371 526 453 526 q 270 489 313 526 q 224 387 224 449 q 371 248 224 248 q 518 387 518 248 m 65 387 q 157 591 65 504 q 371 678 248 678 q 586 591 495 678 q 677 387 677 504 q 586 183 677 269 q 371 96 495 96 q 157 183 248 96 q 65 387 65 269 m 617 0 q 689 248 689 56 q 660 483 689 349 q 630 732 630 617 q 708 921 630 841 q 894 1002 786 1002 q 1062 958 987 1002 q 1195 700 1190 882 q 1125 490 1198 567 q 994 415 1075 437 q 944 404 954 404 q 830 453 878 408 l 807 642 q 929 550 867 550 q 1053 700 1053 550 q 1000 823 1053 776 q 907 862 956 862 q 822 819 865 862 q 775 717 777 773 q 792 533 773 679 q 810 336 811 383 q 617 0 807 115 m 1195 552 q 1220 581 1195 544 l 1195 552 l 1195 988 l 992 988 l 992 1123 l 1331 1123 l 1332 695 q 1186 533 1227 649 l 1195 552 "},"“":{"x_min":70.53125,"x_max":815.21875,"ha":881,"o":"m 70 628 q 160 630 130 630 q 183 630 177 630 q 333 561 278 617 q 402 475 389 505 q 427 399 415 437 q 488 480 443 436 q 581 539 541 535 q 815 499 729 555 q 600 463 709 512 q 491 368 543 437 q 436 265 442 304 q 303 444 373 392 q 111 474 233 497 l 70 628 "},"A":{"x_min":67.828125,"x_max":1046.5,"ha":1117,"o":"m 583 1221 q 660 1179 619 1221 q 678 1130 678 1145 l 678 1102 q 627 1026 668 1053 q 568 1013 598 1013 q 472 1086 503 1013 l 468 1108 q 558 1221 468 1198 l 583 1221 m 569 977 q 737 939 639 975 q 975 731 899 872 q 1033 588 1033 634 q 1046 493 1042 556 q 991 283 1046 417 q 878 132 958 210 q 719 37 783 53 q 626 6 704 27 q 589 0 606 0 l 562 0 q 160 196 305 0 q 67 491 67 328 q 164 775 67 629 q 250 870 196 818 q 569 977 385 977 m 510 948 l 510 888 q 436 868 510 880 q 227 707 294 817 q 160 486 160 604 q 244 243 160 356 q 350 148 308 169 q 474 101 398 119 q 507 95 474 98 l 510 92 l 510 42 l 615 42 l 615 97 q 633 104 615 103 l 633 101 q 757 150 688 115 q 951 501 951 282 q 826 786 951 659 q 697 864 761 841 l 615 884 l 615 948 l 510 948 m 522 935 l 602 935 l 607 930 l 607 57 l 602 53 l 522 53 l 518 57 l 518 930 l 522 935 "},"‘":{"x_min":58.328125,"x_max":803.6875,"ha":884,"o":"m 236 919 l 231 919 q 103 857 160 919 q 58 726 58 809 q 63 665 58 697 q 225 389 75 496 q 641 274 384 274 q 803 275 803 281 l 803 274 q 626 324 715 299 q 447 425 508 359 q 353 684 362 514 q 356 742 352 701 q 361 803 361 784 q 236 919 361 906 "},"O":{"x_min":78,"x_max":647.703125,"ha":746,"o":"m 643 366 q 620 444 624 444 q 545 535 592 495 q 409 596 495 577 q 314 583 314 592 q 196 527 281 583 l 196 529 q 242 564 202 539 l 282 588 q 303 628 298 588 l 303 630 l 301 632 l 303 644 l 303 682 l 301 702 l 303 702 l 303 707 l 284 803 q 236 907 263 877 q 180 992 201 951 l 165 1039 l 167 1047 l 169 1047 q 174 1039 174 1047 q 203 969 174 1018 q 284 843 284 875 q 309 828 284 828 q 430 903 381 841 q 468 1013 462 958 l 466 1015 l 468 1024 l 468 1026 l 463 1064 q 409 1182 451 1129 q 276 1235 354 1235 q 159 1186 221 1235 q 96 1062 96 1123 l 103 982 q 159 777 159 832 l 159 754 l 157 729 l 159 727 l 157 725 q 130 573 157 671 l 94 437 l 78 316 q 90 208 78 271 q 130 132 116 133 l 130 122 l 142 107 q 176 70 164 74 q 374 0 246 0 q 445 16 445 11 l 445 14 q 612 174 568 74 q 647 337 647 227 l 643 366 m 374 440 l 366 440 q 282 385 330 440 q 248 281 248 330 l 248 274 l 246 266 q 274 183 246 238 q 328 147 299 153 l 351 143 q 374 147 359 147 l 374 151 l 376 151 l 378 149 q 478 324 478 186 q 374 440 463 440 m 376 76 l 372 76 l 372 70 l 376 70 l 376 76 m 276 1108 q 217 1056 238 1108 l 215 1034 q 248 971 226 971 q 271 961 259 961 q 322 984 322 970 q 341 1024 335 997 l 341 1043 l 343 1045 q 303 1101 343 1079 q 276 1108 288 1108 "},"π":{"x_min":30,"x_max":927.96875,"ha":944,"o":"m 343 621 l 343 0 l 220 0 l 220 621 l 30 621 l 30 720 l 927 720 l 927 621 l 764 621 l 764 0 l 641 0 l 641 621 l 343 621 "},"3":{"x_min":19,"x_max":706,"ha":739,"o":"m 21 929 q 19 942 19 935 q 71 975 19 975 q 140 963 121 975 q 207 907 189 927 q 251 784 251 855 q 160 676 251 676 q 58 770 58 676 q 114 870 58 833 l 21 929 m 162 736 q 197 778 197 736 q 162 821 197 821 q 136 806 146 821 q 127 778 127 792 q 162 736 127 736 m 259 872 l 225 928 q 377 1000 291 1000 q 573 940 484 999 q 692 716 692 863 q 273 378 689 378 q 106 430 148 378 q 85 509 85 455 q 127 593 85 558 q 281 638 180 638 q 503 596 421 638 l 425 523 q 325 547 387 547 q 231 498 231 547 q 309 459 231 459 q 492 537 411 459 q 534 591 523 568 q 555 712 554 634 q 527 830 555 790 q 373 892 486 889 q 259 872 285 893 m 575 431 l 645 493 q 706 321 706 442 q 625 115 706 211 q 396 7 533 7 q 242 57 320 7 l 280 111 q 351 106 282 104 q 499 158 427 106 q 588 331 588 223 q 575 431 588 401 m 170 315 q 246 281 216 315 q 275 203 277 247 q 219 77 271 134 q 153 22 185 49 q 96 0 127 0 q 67 19 81 0 q 58 38 58 29 q 66 52 58 46 q 135 101 83 63 q 90 224 88 142 q 170 315 90 306 m 184 162 q 204 194 204 162 q 184 228 204 228 q 165 194 165 228 q 184 162 165 162 "},"9":{"x_min":57,"x_max":711,"ha":745,"o":"m 75 229 l 192 240 q 357 84 221 84 q 526 178 466 84 q 590 443 590 279 q 589 467 590 451 q 487 372 551 407 q 351 337 423 337 q 135 434 217 337 q 57 662 57 526 q 140 900 57 806 q 369 998 227 998 q 549 944 470 998 q 669 797 628 890 q 711 517 711 700 q 546 41 711 160 q 354 -17 464 -17 q 163 48 237 -17 q 75 229 90 113 m 575 668 q 526 825 575 761 q 384 897 473 897 q 234 821 292 897 q 182 658 182 752 q 235 508 182 568 q 380 445 291 445 q 526 511 474 445 q 575 668 575 573 "},"l":{"x_min":67.828125,"x_max":679.578125,"ha":814,"o":"m 67 0 l 68 953 l 203 953 l 203 130 l 678 130 l 678 0 l 67 0 m 542 135 l 542 914 l 679 914 l 679 135 l 542 135 m 496 1040 q 523 1105 496 1079 q 588 1131 550 1131 q 652 1105 626 1131 q 678 1040 678 1079 q 652 975 678 1002 q 588 949 626 949 q 523 976 550 949 q 496 1040 496 1003 "},"":{"x_min":16,"x_max":601,"ha":648,"o":"m 125 0 l 125 626 l 16 626 l 16 720 l 125 720 l 125 789 q 316 1011 125 1011 q 440 995 383 1011 l 421 892 q 356 898 386 898 q 266 866 288 898 q 248 766 248 839 l 248 720 l 386 720 l 386 626 l 248 626 l 248 0 l 125 0 m 478 854 l 478 994 l 601 994 l 601 854 l 478 854 m 478 0 l 478 720 l 601 720 l 601 0 l 478 0 "},"4":{"x_min":17.640625,"x_max":690.4375,"ha":718,"o":"m 424 990 q 484 904 484 990 q 462 798 484 861 q 378 588 448 758 q 240 361 319 443 q 101 285 168 285 q 37 322 62 285 q 17 379 17 351 q 64 462 17 417 q 160 507 111 507 q 206 478 206 507 q 174 424 206 442 q 130 411 152 418 q 92 389 93 399 q 96 374 92 379 q 107 369 100 368 q 153 381 137 371 q 212 446 173 395 q 322 685 274 529 q 389 961 371 845 q 391 968 389 964 q 424 990 396 984 m 305 403 l 354 467 q 472 383 382 440 q 472 316 478 380 q 442 320 458 316 q 368 352 405 328 q 305 403 312 386 m 575 462 q 611 590 611 538 q 599 613 611 613 q 575 561 586 613 l 575 462 m 603 729 q 690 611 690 720 q 587 356 690 498 l 587 35 q 541 7 587 7 q 493 39 502 7 l 493 505 q 520 653 493 588 q 603 729 551 729 "},"Ъ":{"x_min":-2.71875,"x_max":798.953125,"ha":802,"o":"m 200 374 l 200 374 l 200 375 l 200 809 l -2 809 l -2 950 l 355 950 l 355 541 q 200 360 226 446 l 200 374 m 499 552 q 711 463 620 552 q 798 269 798 376 q 716 69 798 152 q 499 -16 630 -16 q 278 67 359 -16 q 200 269 200 147 q 288 463 200 376 q 499 552 379 552 m 499 432 q 386 380 432 432 q 343 269 343 332 q 386 163 343 209 q 499 113 432 113 q 613 163 567 113 q 655 269 655 209 q 613 380 655 332 q 499 432 567 432 m 238 1152 l -2 1153 l -2 1232 l 287 1232 q 361 1181 335 1214 q 383 1108 384 1135 q 354 1049 383 1079 q 265 1001 314 1005 l -2 1001 l -2 1079 l 239 1079 q 303 1107 287 1079 q 287 1148 303 1127 q 238 1152 269 1156 "},"Ü":{"x_min":67.828125,"x_max":1001.734375,"ha":1085,"o":"m 618 691 l 554 772 q 647 908 567 798 q 699 988 674 940 q 727 1028 719 1024 q 750 1024 735 1032 q 791 994 759 1016 q 822 978 800 993 q 825 963 830 971 q 706 806 805 929 q 639 712 682 771 q 618 691 621 690 m 521 575 q 486 526 489 542 q 488 446 482 499 q 511 371 495 385 q 543 361 524 360 q 571 371 562 362 q 582 430 582 384 q 566 532 582 501 q 499 634 543 577 q 429 721 463 677 q 259 966 258 953 q 269 982 261 974 q 308 1012 273 985 q 349 1039 344 1039 q 355 1034 354 1039 q 493 813 387 956 q 570 712 531 763 q 649 594 611 656 q 682 459 682 536 q 634 297 682 349 q 542 258 599 258 q 455 290 492 258 q 392 510 392 347 q 393 543 392 527 q 427 630 397 589 q 457 662 440 647 l 521 575 m 445 678 q 431 656 437 672 q 421 636 425 640 q 380 577 406 613 q 330 584 355 590 q 255 552 279 573 q 189 368 198 501 q 219 166 183 297 q 258 49 252 49 l 146 0 q 67 341 67 172 q 69 385 67 362 q 154 615 76 529 q 354 701 232 701 q 430 689 406 701 q 445 678 448 680 m 602 671 q 628 686 600 673 q 714 701 663 701 q 914 615 836 701 q 1000 385 992 529 q 1001 340 1001 362 q 923 0 1001 172 l 810 49 q 849 166 817 49 q 880 368 885 297 q 813 552 870 501 q 739 584 790 573 q 689 577 713 590 q 647 636 663 613 q 602 671 620 659 "},"ψ":{"x_min":83,"x_max":907,"ha":946,"o":"m 83 720 l 204 720 l 204 364 q 214 231 204 273 q 289 126 232 163 q 433 86 341 90 l 433 720 l 556 720 l 556 86 q 768 209 728 95 q 786 364 786 261 l 786 720 l 907 720 l 907 368 q 888 182 907 241 q 775 39 860 94 q 556 -16 695 -11 l 556 -276 l 433 -276 l 433 -16 q 161 83 247 -10 q 92 216 108 139 q 83 368 83 262 l 83 720 "},"η":{"x_min":94,"x_max":679,"ha":721,"o":"m 94 0 l 94 720 l 204 720 l 204 617 q 433 737 283 737 q 568 705 508 737 q 660 605 636 670 q 679 443 679 549 l 679 -276 l 556 -276 l 556 438 q 527 576 556 530 q 405 631 491 631 q 217 393 217 631 l 217 0 l 94 0 "}}}
